{
DisplayStrings = (
"Hhp\012Hhh",
"\U00C3",
CG,
B,
C,
D,
E,
F,
G,
H,
I,
J,
K,
L,
M,
N,
O,
P,
Q,
/Q.alt,
T,
U,
V,
W,
X,
Y,
Z,
"/a.alt2 d",
b,
hop,
eoc,
"/f.alt f",
g,
/g.alt,
h,
i,
j,
k,
l,
m,
nmrh,
o,
p,
q,
r,
/s.alt,
t,
/t.alt,
nvnwnxnynznoni,
Wwv,
x,
/x.alt,
yv,
z,
"\U00AA",
HO0x,
1,
2,
5,
/two.alt,
/five.alt,
/two.alt2,
"?.",
"\U00BF",
/ampersand.alt,
HXHYHZH,
",i",
",/quoteright",
";",
/quoteright,
/quotedblright,
/quotedblleft,
/quoteleft,
/quotereversed,
"\"",
"'",
"*",
"#",
hijklmnpqr,
"NnQno o",
"/Q.alt po",
"n/f.alt n/t.alt n\012nfntn",
/a.alt,
onhmpdrou,
a,
c,
/c.alt,
d,
/d.alt,
e,
n,
s,
/s.alt2,
u,
/u.alt,
v,
w,
/A.alt,
S,
/S.alt2,
":",
",.",
"!",
"\U00A1",
/quotedblbase,
hmu,
hmu/u.alt
);
classes = (
{
automatic = 1;
code = "A B C D E F G H I J K L M N O P Q R S T U V W X Y Z R.alt";
name = Uppercase;
}
);
copyright = "Aoife Mooney";
date = "2015-06-25 01:21:12 +0000";
designer = "Aoife Mooney";
designerURL = www.aoifemooney.org;
familyName = "BioRhyme";
featurePrefixes = (
{
automatic = 1;
code = "languagesystem DFLT dflt;\012languagesystem latn dflt;\012";
name = Languagesystems;
}
);
features = (
{
code = "sub R by R.alt;\012sub Q by Q.alt;\012sub A by A.alt;\012sub S by S.alt2;\012sub ampersand by ampersand.alt;\012\012\012";
name = ss01;
},
{
code = "#alternate exit strokes\012sub a by a.alt;\012sub d by d.alt;\012sub u by u.alt;\012";
name = ss02;
},
{
code = "#stylistic alternates\012sub ampersand by ampersand_alt1;\012sub f by f.alt;\012sub t by t.alt;\012sub a by a.alt2;\012sub x by x.alt;\012sub s by s.alt;\012sub g by g.alt;\012sub c by c.alt;\012\012\012";
name = ss03;
},
{
code = "sub ampersand by ampersand.alt;\012sub s by s.alt2;\012\012";
name = ss04;
}
);
fontMaster = (
{
alignmentZones = (
"{900, 16}",
"{800, 36}",
"{700, 39}",
"{510, 29}",
"{0, -15}",
"{-235, -15}"
);
ascender = 900;
capHeight = 800;
customParameters = (
{
name = hheaAscender;
value = 725;
},
{
name = hheaDescender;
value = 100;
},
{
name = hheaLineGap;
value = 355;

glyphs = (
{
color = 6;
glyphname = A;
lastChange = "2015-07-19 20:21:54 +0000";
layers = (
{
layerId = "B29C398E-974A-40D0-A0A0-00935056D4B4";
name = "Light Extended";
paths = (
{
closed = 1;
nodes = (
"1452 0 LINE",
"1452 33 LINE",
"969 33 LINE",
"969 0 LINE"
);
},
{
closed = 1;
nodes = (
"458 0 LINE",
"458 33 LINE",
"-25 33 LINE",
"-25 0 LINE"
);
},
{
closed = 1;
nodes = (
"1001 295 LINE",
"421 295 LINE",
"396 261 LINE",
"1026 261 LINE"
);
},
{
closed = 1;
nodes = (
"980 667 LINE",
"980 700 LINE",
"443 700 LINE",
"443 667 LINE"
);
},
{
closed = 1;
nodes = (
"196 18 LINE",
"237 18 LINE",
"717 674 LINE",
"707 674 LINE",
"1187 18 LINE",
"1231 18 LINE",
"738 686 LINE SMOOTH",
"685 686 LINE"
);
}
);
width = 1427;
},
{
background = {
paths = (
{
closed = 1;
nodes = (
"218 18 LINE",
"480 479 LINE",
"741 18 LINE",
"923 18 LINE",
"484 745 LINE",
"45 18 LINE"
);
},
{
closed = 1;
nodes = (
"993 0 LINE",
"993 105 LINE",
"612 105 LINE",
"612 0 LINE"
);
},
{
closed = 1;
nodes = (
"356 0 LINE",
"356 105 LINE",
"-25 105 LINE",
"-25 0 LINE"
);
},
{
closed = 1;
nodes = (
"668 294 LINE",
"294 294 LINE",
"270 200 LINE",
"693 200 LINE"
);
}
);
};
layerId = "FA480B27-EBBD-4830-9868-98507D39050C";
name = Bold;
paths = (
{
closed = 1;
nodes = (
"992 0 LINE",
"992 104 LINE",
"609 104 LINE",
"609 0 LINE"
);
},
{
closed = 1;
nodes = (
"358 0 LINE",
"358 104 LINE",
"-25 104 LINE",
"-25 0 LINE"
);
},
{
closed = 1;
nodes = (
"671 305 LINE",
"291 305 LINE",
"266 211 LINE",
"696 211 LINE"
);
},
{
closed = 1;
nodes = (
"700 596 LINE",
"700 700 LINE",
"263 700 LINE",
"263 596 LINE"
);
},
{
closed = 1;
nodes = (
"46 18 LINE",
"202 18 LINE",
"522 629 LINE",
"442 629 LINE",
"762 18 LINE",
"921 18 LINE",
"565 641 LINE SMOOTH",
"398 641 LINE"
);
}
);
width = 967;
},
{
background = {
paths = (
{
closed = 1;
nodes = (
"181 18 LINE",
"483 674 LINE",
"784 18 LINE",
"823 18 LINE",
"484 745 LINE",
"145 18 LINE"
);
},
{
closed = 1;
nodes = (
"993 0 LINE",
"993 34 LINE",
"612 34 LINE",
"612 0 LINE"
);
},
{
closed = 1;
nodes = (
"356 0 LINE",
"356 34 LINE",
"-25 34 LINE",
"-25 0 LINE"
);
},
{
closed = 1;
nodes = (
"668 294 LINE",
"294 294 LINE",
"270 260 LINE",
"693 260 LINE"
);
}
);
};
layerId = "543F9737-16F7-428D-9F96-2EBD9FC8D3B6";
name = Light;
paths = (
{
closed = 1;
nodes = (
"992 0 LINE",
"992 34 LINE",
"609 34 LINE",
"609 0 LINE"
);
},
{
closed = 1;
nodes = (
"358 0 LINE",
"358 34 LINE",
"-25 34 LINE",
"-25 0 LINE"
);
},
{
closed = 1;
nodes = (
"671 295 LINE",
"291 295 LINE",
"266 261 LINE",
"696 261 LINE"
);
},
{
closed = 1;
nodes = (
"700 666 LINE",
"700 700 LINE",
"263 700 LINE",
"263 666 LINE"
);
},
{
closed = 1;
nodes = (
"146 18 LINE",
"182 18 LINE",
"482 674 LINE",
"482 674 LINE",
"782 18 LINE",
"821 18 LINE",
"510 686 LINE SMOOTH",
"453 686 LINE"
);
}
);
width = 967;
}
);
unicode = 0041;
},
{
color = 6;
glyphname = A.alt;
lastChange = "2015-07-19 20:21:56 +0000";
layers = (
{
background = {
paths = (
{
closed = 1;
nodes = (
"164 0 LINE",
"512 495 LINE",
"863 0 LINE",
"876 25 LINE",
"512 537 LINE",
"152 25 LINE"
);
},
{
closed = 1;
nodes = (
"720 216 LINE",
"300 216 LINE",
"282 190 LINE",
"738 190 LINE"
);
},
{
closed = 1;
nodes = (
"330 -1 LINE",
"330 25 LINE",
"-26 25 LINE",
"-26 -1 LINE"
);
},
{
closed = 1;
nodes = (
"697 25 LINE",
"697 -1 LINE",
"1049 -1 LINE",
"1050 25 LINE"
);
}
);
};
layerId = "B29C398E-974A-40D0-A0A0-00935056D4B4";
name = "Light Extended";
paths = (
{
closed = 1;
nodes = (
"236 18 LINE",
"708 684 LINE",
"1179 18 LINE",
"1223 18 LINE",
"709 745 LINE",
"195 18 LINE"
);
},
{
closed = 1;
nodes = (
"1443 0 LINE",
"1447 33 LINE",
"966 33 LINE",
"962 0 LINE"
);
},
{
closed = 1;
nodes = (
"456 0 LINE",
"460 33 LINE",
"-21 33 LINE",
"-25 0 LINE"
);
},
{
closed = 1;
nodes = (
"997 294 LINE",
"423 294 LINE",
"395 260 LINE",
"1018 260 LINE"
);
}
);
width = 1418;
},
{
layerId = "FA480B27-EBBD-4830-9868-98507D39050C";
name = Bold;
paths = (
{
closed = 1;
nodes = (
"208 18 LINE",
"480 519 LINE",
"751 18 LINE",
"923 18 LINE",
"484 765 LINE",
"45 18 LINE"
);
},
{
closed = 1;
nodes = (
"993 0 LINE",
"993 105 LINE",
"612 105 LINE",
"612 0 LINE"
);
},
{
closed = 1;
nodes = (
"356 0 LINE",
"356 105 LINE",
"-25 105 LINE",
"-25 0 LINE"
);
},
{
closed = 1;
nodes = (
"668 294 LINE",
"294 294 LINE",
"270 200 LINE",
"693 200 LINE"
);
}
);
width = 968;
},
{
layerId = "543F9737-16F7-428D-9F96-2EBD9FC8D3B6";
name = Light;
paths = (
{
closed = 1;
nodes = (
"181 18 LINE",
"483 674 LINE",
"784 18 LINE",
"823 18 LINE",
"484 745 LINE",
"145 18 LINE"
);
},
{
closed = 1;
nodes = (
"993 0 LINE",
"993 34 LINE",
"612 34 LINE",
"612 0 LINE"
);
},
{
closed = 1;
nodes = (
"356 0 LINE",
"356 34 LINE",
"-25 34 LINE",
"-25 0 LINE"
);
},
{
closed = 1;
nodes = (
"668 294 LINE",
"294 294 LINE",
"270 260 LINE",
"693 260 LINE"
);
}
);
width = 968;
}
);
},
{
color = 4;
glyphname = B;
lastChange = "2015-07-19 18:13:35 +0000";
layers = (
{
background = {
paths = (
{
closed = 1;
nodes = (
"288 13 LINE",
"288 487 LINE",
"263 487 LINE",
"263 13 LINE"
);
},
{
closed = 1;
nodes = (
"717 250 LINE",
"793 250 OFFCURVE",
"865 297 OFFCURVE",
"865 376 CURVE SMOOTH",
"865 447 OFFCURVE",
"813 500 OFFCURVE",
"698 500 CURVE",
"77 500 LINE",
"77 475 LINE",
"698 475 LINE",
"799 475 OFFCURVE",
"839 429 OFFCURVE",
"839 376 CURVE SMOOTH",
"839 321 OFFCURVE",
"785 266 OFFCURVE",
"688 266 CURVE",
"279 267 LINE",
"279 242 LINE",
"689 241 LINE",
"796 241 OFFCURVE",
"879 212 OFFCURVE",
"879 135 CURVE SMOOTH",
"879 59 OFFCURVE",
"806 25 OFFCURVE",
"718 25 CURVE",
"77 25 LINE",
"77 0 LINE",
"718 0 LINE",
"830 0 OFFCURVE",
"905 49 OFFCURVE",
"905 135 CURVE SMOOTH",
"905 219 OFFCURVE",
"825 259 OFFCURVE",
"717 259 CURVE"
);
}
);
};
layerId = "B29C398E-974A-40D0-A0A0-00935056D4B4";
name = "Light Extended";
paths = (
{
closed = 1;
nodes = (
"375 20 LINE",
"375 683 LINE",
"340 683 LINE",
"340 20 LINE"
);
},
{
closed = 1;
nodes = (
"948 353 LINE",
"1108 353 OFFCURVE",
"1183 431 OFFCURVE",
"1183 521 CURVE SMOOTH",
"1183 633 OFFCURVE",
"1098 700 OFFCURVE",
"951 700 CURVE SMOOTH",
"80 700 LINE",
"80 667 LINE",
"951 667 LINE SMOOTH",
"1078 667 OFFCURVE",
"1147 610 OFFCURVE",
"1147 521 CURVE SMOOTH",
"1147 435 OFFCURVE",
"1066 375 OFFCURVE",
"937 375 CURVE SMOOTH",
"363 376 LINE",
"363 343 LINE",
"937 342 LINE SMOOTH",
"1080 342 OFFCURVE",
"1196 289 OFFCURVE",
"1196 183 CURVE SMOOTH",
"1196 82 OFFCURVE",
"1112 33 OFFCURVE",
"964 33 CURVE SMOOTH",
"80 33 LINE",
"80 0 LINE",
"961 0 LINE SMOOTH",
"1150 0 OFFCURVE",
"1232 68 OFFCURVE",
"1232 183 CURVE SMOOTH",
"1232 293 OFFCURVE",
"1134 365 OFFCURVE",
"948 365 CURVE"
);
}
);
width = 1319;
},
{
layerId = "FA480B27-EBBD-4830-9868-98507D39050C";
name = Bold;
width = 600;
},
{
layerId = "543F9737-16F7-428D-9F96-2EBD9FC8D3B6";
name = Light;
width = 600;
}
);
unicode = 0042;
},
{
color = 6;
glyphname = C;
lastChange = "2015-07-19 23:32:48 +0000";
layers = (
{
background = {
paths = (
{
closed = 1;
nodes = (
"848 293 LINE",
"871 300 LINE",
"871 301 OFFCURVE",
"839 354 OFFCURVE",
"773 408 CURVE SMOOTH",
"708 462 OFFCURVE",
"608 516 OFFCURVE",
"476 516 CURVE SMOOTH",
"351 516 OFFCURVE",
"257 480 OFFCURVE",
"194 425 CURVE SMOOTH",
"131 370 OFFCURVE",
"100 298 OFFCURVE",
"100 227 CURVE SMOOTH",
"100 155 OFFCURVE",
"131 84 OFFCURVE",
"194 31 CURVE SMOOTH",
"256 -22 OFFCURVE",
"350 -57 OFFCURVE",
"474 -57 CURVE SMOOTH",
"634 -57 OFFCURVE",
"734 -2 OFFCURVE",
"794 53 CURVE SMOOTH",
"848 102 OFFCURVE",
"870 158 OFFCURVE",
"873 166 CURVE",
"848 174 LINE",
"846 166 OFFCURVE",
"827 119 OFFCURVE",
"775 71 CURVE SMOOTH",
"720 21 OFFCURVE",
"627 -31 OFFCURVE",
"474 -31 CURVE SMOOTH",
"355 -31 OFFCURVE",
"267 2 OFFCURVE",
"211 50 CURVE SMOOTH",
"153 99 OFFCURVE",
"126 162 OFFCURVE",
"126 227 CURVE SMOOTH",
"126 291 OFFCURVE",
"153 356 OFFCURVE",
"211 406 CURVE SMOOTH",
"268 456 OFFCURVE",
"356 490 OFFCURVE",
"476 490 CURVE SMOOTH",
"601 490 OFFCURVE",
"694 439 OFFCURVE",
"757 388 CURVE SMOOTH",
"808 346 OFFCURVE",
"839 309 OFFCURVE",
"873 247 CURVE",
"873 500 LINE",
"848 500 LINE"
);
}
);
};
layerId = "B29C398E-974A-40D0-A0A0-00935056D4B4";
name = "Light Extended";
paths = (
{
closed = 1;
nodes = (
"1139 247 LINE",
"1084 117 OFFCURVE",
"914 -28 OFFCURVE",
"609 -28 CURVE",
"334 -28 OFFCURVE",
"100 113 OFFCURVE",
"100 356 CURVE",
"100 598 OFFCURVE",
"345 739 OFFCURVE",
"620 739 CURVE",
"864 739 OFFCURVE",
"1027 635 OFFCURVE",
"1127 497 CURVE",
"1098 497 LINE",
"1098 701 LINE",
"1132 701 LINE",
"1132 444 LINE",
"986 639 OFFCURVE",
"801 706 OFFCURVE",
"620 706 CURVE",
"356 706 OFFCURVE",
"135 573 OFFCURVE",
"135 356 CURVE",
"135 138 OFFCURVE",
"349 5 OFFCURVE",
"609 5 CURVE",
"891 5 OFFCURVE",
"1062 148 OFFCURVE",
"1106 262 CURVE"
);
}
);
width = 1226;
},
{
associatedMasterId = "B29C398E-974A-40D0-A0A0-00935056D4B4";
background = {
paths = (
{
closed = 1;
nodes = (
"1068 419 LINE",
"1102 429 LINE",
"1101 430 OFFCURVE",
"1055 506 OFFCURVE",
"961 583 CURVE SMOOTH",
"868 660 OFFCURVE",
"726 737 OFFCURVE",
"537 737 CURVE SMOOTH",
"358 737 OFFCURVE",
"224 685 OFFCURVE",
"134 607 CURVE SMOOTH",
"44 529 OFFCURVE",
"0 426 OFFCURVE",
"0 324 CURVE SMOOTH",
"0 222 OFFCURVE",
"44 120 OFFCURVE",
"134 44 CURVE SMOOTH",
"223 -32 OFFCURVE",
"357 -81 OFFCURVE",
"535 -81 CURVE SMOOTH",
"763 -82 OFFCURVE",
"905 -3 OFFCURVE",
"991 76 CURVE SMOOTH",
"1068 146 OFFCURVE",
"1100 225 OFFCURVE",
"1104 237 CURVE",
"1069 249 LINE",
"1065 237 OFFCURVE",
"1039 170 OFFCURVE",
"964 102 CURVE SMOOTH",
"885 30 OFFCURVE",
"753 -44 OFFCURVE",
"535 -45 CURVE SMOOTH",
"364 -45 OFFCURVE",
"239 3 OFFCURVE",
"158 72 CURVE SMOOTH",
"76 141 OFFCURVE",
"37 232 OFFCURVE",
"37 324 CURVE SMOOTH",
"37 415 OFFCURVE",
"76 508 OFFCURVE",
"158 580 CURVE SMOOTH",
"240 651 OFFCURVE",
"365 700 OFFCURVE",
"537 700 CURVE SMOOTH",
"716 700 OFFCURVE",
"849 627 OFFCURVE",
"938 554 CURVE SMOOTH",
"1012 494 OFFCURVE",
"1055 441 OFFCURVE",
"1104 353 CURVE",
"1104 700 LINE",
"1068 700 LINE"
);
}
);
};
layerId = "4CE72ED2-500C-4544-8864-BE0CB7E60B06";
name = Background;
paths = (
{
closed = 1;
nodes = (
"1068 432 LINE",
"1102 429 LINE",
"978 642 OFFCURVE",
"778 737 OFFCURVE",
"537 737 CURVE SMOOTH",
"358 737 OFFCURVE",
"224 685 OFFCURVE",
"134 607 CURVE SMOOTH",
"44 529 OFFCURVE",
"0 426 OFFCURVE",
"0 324 CURVE SMOOTH",
"0 222 OFFCURVE",
"44 120 OFFCURVE",
"134 44 CURVE SMOOTH",
"223 -32 OFFCURVE",
"357 -81 OFFCURVE",
"535 -81 CURVE SMOOTH",
"763 -82 OFFCURVE",
"905 -3 OFFCURVE",
"991 76 CURVE SMOOTH",
"1068 146 OFFCURVE",
"1100 225 OFFCURVE",
"1104 237 CURVE",
"1069 249 LINE",
"1065 237 OFFCURVE",
"1039 170 OFFCURVE",
"964 102 CURVE SMOOTH",
"885 30 OFFCURVE",
"753 -44 OFFCURVE",
"535 -45 CURVE SMOOTH",
"364 -45 OFFCURVE",
"239 3 OFFCURVE",
"158 72 CURVE SMOOTH",
"76 141 OFFCURVE",
"37 232 OFFCURVE",
"37 324 CURVE SMOOTH",
"37 415 OFFCURVE",
"76 508 OFFCURVE",
"158 580 CURVE SMOOTH",
"240 651 OFFCURVE",
"365 700 OFFCURVE",
"537 700 CURVE SMOOTH",
"773 700 OFFCURVE",
"981 598 OFFCURVE",
"1104 353 CURVE",
"1104 700 LINE",
"1068 700 LINE"
);
}
);
width = 1184;
},
{
layerId = "FA480B27-EBBD-4830-9868-98507D39050C";
name = Bold;
width = 600;
},
{
layerId = "543F9737-16F7-428D-9F96-2EBD9FC8D3B6";
name = Light;
width = 600;
}
);
unicode = 0043;
},
{
color = 4;
glyphname = D;
lastChange = "2015-07-19 17:36:05 +0000";
layers = (
{
layerId = "B29C398E-974A-40D0-A0A0-00935056D4B4";
name = "Light Extended";
paths = (
{
closed = 1;
nodes = (
"779 0 LINE",
"1071 0 OFFCURVE",
"1270 122 OFFCURVE",
"1270 350 CURVE",
"1270 578 OFFCURVE",
"1071 700 OFFCURVE",
"779 700 CURVE",
"80 700 LINE",
"80 667 LINE",
"779 667 LINE",
"1056 667 OFFCURVE",
"1234 554 OFFCURVE",
"1234 350 CURVE",
"1234 146 OFFCURVE",
"1056 33 OFFCURVE",
"779 33 CURVE",
"80 33 LINE",
"80 0 LINE"
);
},
{
closed = 1;
nodes = (
"375 18 LINE",
"375 682 LINE",
"340 682 LINE",
"340 18 LINE"
);
}
);
width = 1370;
},
{
background = {
paths = (
{
closed = 1;
nodes = (
"155 190 LINE",
"310 190 LINE",
"310 700 LINE",
"155 700 LINE"
);
},
{
closed = 1;
nodes = (
"55 700 LINE",
"55 615 LINE",
"301 615 LINE",
"301 700 LINE"
);
},
{
closed = 1;
nodes = (
"173 572 LINE",
"173 630 LINE",
"102 628 LINE"
);
}
);
};
layerId = "FA480B27-EBBD-4830-9868-98507D39050C";
name = Bold;
paths = (
{
closed = 1;
nodes = (
"470 0 LINE",
"692 0 OFFCURVE",
"896 112 OFFCURVE",
"896 350 CURVE",
"896 588 OFFCURVE",
"692 700 OFFCURVE",
"470 700 CURVE",
"55 700 LINE",
"55 595 LINE",
"435 595 LINE",
"568 595 OFFCURVE",
"731 552 OFFCURVE",
"731 350 CURVE",
"731 148 OFFCURVE",
"568 105 OFFCURVE",
"435 105 CURVE",
"55 105 LINE",
"55 0 LINE"
);
},
{
closed = 1;
nodes = (
"330 68 LINE",
"330 632 LINE",
"175 632 LINE",
"175 68 LINE"
);
}
);
width = 941;
},
{
layerId = "543F9737-16F7-428D-9F96-2EBD9FC8D3B6";
name = Light;
paths = (
{
closed = 1;
nodes = (
"460 0 LINE",
"672 0 OFFCURVE",
"836 142 OFFCURVE",
"836 350 CURVE",
"836 558 OFFCURVE",
"672 700 OFFCURVE",
"460 700 CURVE",
"85 700 LINE",
"85 665 LINE",
"460 665 LINE",
"657 665 OFFCURVE",
"800 532 OFFCURVE",
"800 350 CURVE",
"800 168 OFFCURVE",
"657 35 OFFCURVE",
"460 35 CURVE",
"85 35 LINE",
"85 0 LINE"
);
},
{
closed = 1;
nodes = (
"271 18 LINE",
"271 682 LINE",
"236 682 LINE",
"236 18 LINE"
);
}
);
width = 941;
}
);
unicode = 0044;
},
{
color = 4;
glyphname = E;
lastChange = "2015-07-19 17:36:23 +0000";
layers = (
{
background = {
paths = (
{
closed = 1;
nodes = (
"1273 10 LINE",
"1273 270 LINE",
"1236 270 LINE",
"1236 47 LINE",
"118 47 LINE",
"118 10 LINE"
);
},
{
closed = 1;
nodes = (
"415 36 LINE",
"415 684 LINE",
"379 684 LINE",
"379 36 LINE"
);
},
{
closed = 1;
nodes = (
"868 372 LINE",
"868 409 LINE",
"397 409 LINE",
"397 372 LINE"
);
},
{
closed = 1;
nodes = (
"887 206 LINE",
"887 557 LINE",
"850 557 LINE",
"850 206 LINE"
);
},
{
closed = 1;
nodes = (
"1238 663 LINE",
"1238 447 LINE",
"1275 447 LINE",
"1275 700 LINE",
"123 700 LINE",
"122 663 LINE"
);
}
);
};
layerId = "B29C398E-974A-40D0-A0A0-00935056D4B4";
name = "Light Extended";
paths = (
{
closed = 1;
nodes = (
"1232 0 LINE",
"1232 265 LINE",
"1197 265 LINE",
"1197 33 LINE",
"80 33 LINE",
"80 0 LINE"
);
},
{
closed = 1;
nodes = (
"833 351 LINE",
"833 384 LINE",
"371 384 LINE",
"371 351 LINE"
);
},
{
closed = 1;
nodes = (
"851 188 LINE",
"851 532 LINE",
"816 532 LINE",
"816 188 LINE"
);
},
{
closed = 1;
nodes = (
"1196 667 LINE",
"1196 438 LINE",
"1231 438 LINE",
"1231 700 LINE",
"80 700 LINE",
"80 667 LINE"
);
},
{
closed = 1;
nodes = (
"375 18 LINE",
"375 682 LINE",
"340 682 LINE",
"340 18 LINE"
);
}
);
width = 1302;
},
{
layerId = "FA480B27-EBBD-4830-9868-98507D39050C";
name = Bold;
width = 600;
},
{
layerId = "543F9737-16F7-428D-9F96-2EBD9FC8D3B6";
name = Light;
width = 600;
}
);
unicode = 0045;
},
{
color = 4;
glyphname = F;
lastChange = "2015-07-19 17:36:40 +0000";
layers = (
{
layerId = "B29C398E-974A-40D0-A0A0-00935056D4B4";
name = "Light Extended";
paths = (
{
closed = 1;
nodes = (
"861 322 LINE",
"861 355 LINE",
"371 355 LINE",
"371 322 LINE"
);
},
{
closed = 1;
nodes = (
"879 160 LINE",
"879 504 LINE",
"844 504 LINE",
"844 160 LINE"
);
},
{
closed = 1;
nodes = (
"375 18 LINE",
"375 682 LINE",
"340 682 LINE",
"340 18 LINE"
);
},
{
closed = 1;
nodes = (
"650 0 LINE",
"650 33 LINE",
"80 33 LINE",
"80 0 LINE"
);
},
{
closed = 1;
nodes = (
"1197 667 LINE",
"1197 438 LINE",
"1232 438 LINE",
"1232 700 LINE",
"80 700 LINE",
"80 667 LINE"
);
}
);
width = 1282;
},
{
layerId = "FA480B27-EBBD-4830-9868-98507D39050C";
name = Bold;
width = 600;
},
{
layerId = "543F9737-16F7-428D-9F96-2EBD9FC8D3B6";
name = Light;
width = 600;
}
);
unicode = 0046;
},
{
color = 6;
glyphname = G;
lastChange = "2015-07-19 23:33:16 +0000";
layers = (
{
background = {
paths = (
{
closed = 1;
nodes = (
"345 738 OFFCURVE",
"100 597 OFFCURVE",
"100 350 CURVE",
"100 103 OFFCURVE",
"334 -38 OFFCURVE",
"609 -38 CURVE",
"958 -38 OFFCURVE",
"1121 135 OFFCURVE",
"1141 316 CURVE SMOOTH",
"1142 325 OFFCURVE",
"1142 331 OFFCURVE",
"1141 337 CURVE",
"1106 316 LINE",
"1090 152 OFFCURVE",
"931 -4 OFFCURVE",
"609 -4 CURVE",
"349 -4 OFFCURVE",
"135 129 OFFCURVE",
"135 350 CURVE",
"135 571 OFFCURVE",
"356 704 OFFCURVE",
"620 704 CURVE",
"801 704 OFFCURVE",
"982 637 OFFCURVE",
"1128 475 CURVE",
"1128 687 LINE",
"1094 687 LINE",
"1094 529 LINE",
"1123 529 LINE",
"1023 634 OFFCURVE",
"864 738 OFFCURVE",
"620 738 CURVE"
);
},
{
closed = 1;
nodes = (
"603 337 LINE",
"603 303 LINE",
"1131 303 LINE",
"1141 337 LINE"
);
}
);
};
layerId = "B29C398E-974A-40D0-A0A0-00935056D4B4";
name = "Light Extended";
paths = (
{
closed = 1;
nodes = (
"345 738 OFFCURVE",
"100 597 OFFCURVE",
"100 355 CURVE",
"100 113 OFFCURVE",
"334 -28 OFFCURVE",
"609 -28 CURVE",
"910 -28 OFFCURVE",
"1133 114 OFFCURVE",
"1141 347 CURVE",
"1106 326 LINE",
"1092 161 OFFCURVE",
"931 5 OFFCURVE",
"609 5 CURVE",
"349 5 OFFCURVE",
"135 138 OFFCURVE",
"135 355 CURVE",
"135 572 OFFCURVE",
"356 705 OFFCURVE",
"620 705 CURVE",
"801 705 OFFCURVE",
"986 638 OFFCURVE",
"1132 443 CURVE",
"1132 700 LINE",
"1098 700 LINE",
"1098 496 LINE",
"1127 496 LINE",
"1027 634 OFFCURVE",
"864 738 OFFCURVE",
"620 738 CURVE"
);
},
{
closed = 1;
nodes = (
"603 347 LINE",
"603 313 LINE",
"1131 313 LINE",
"1141 347 LINE"
);
}
);
width = 1226;
},
{
layerId = "FA480B27-EBBD-4830-9868-98507D39050C";
name = Bold;
width = 600;
},
{
layerId = "543F9737-16F7-428D-9F96-2EBD9FC8D3B6";
name = Light;
width = 600;
}
);
unicode = 0047;
},
{
color = 9;
glyphname = H;
lastChange = "2015-07-19 17:37:18 +0000";
layers = (
{
layerId = "B29C398E-974A-40D0-A0A0-00935056D4B4";
name = "Light Extended";
paths = (
{
closed = 1;
nodes = (
"1250 323 LINE",
"1250 357 LINE",
"368 357 LINE",
"368 323 LINE"
);
},
{
closed = 1;
nodes = (
"574 0 LINE",
"574 34 LINE",
"80 34 LINE",
"80 0 LINE"
);
},
{
closed = 1;
nodes = (
"375 15 LINE",
"375 682 LINE",
"340 682 LINE",
"340 15 LINE"
);
},
{
closed = 1;
nodes = (
"574 666 LINE",
"574 700 LINE",
"80 700 LINE",
"80 666 LINE"
);
},
{
closed = 1;
nodes = (
"1536 0 LINE",
"1536 34 LINE",
"1042 34 LINE",
"1042 0 LINE"
);
},
{
closed = 1;
nodes = (
"1276 18 LINE",
"1276 685 LINE",
"1241 685 LINE",
"1241 18 LINE"
);
},
{
closed = 1;
nodes = (
"1536 666 LINE",
"1536 700 LINE",
"1042 700 LINE",
"1042 666 LINE"
);
}
);
width = 1616;
},
{
background = {
paths = (
{
closed = 1;
nodes = (
"1077 85 LINE",
"672 85 LINE",
"672 0 LINE",
"1077 0 LINE"
);
},
{
closed = 1;
nodes = (
"941 116 LINE",
"941 68 LINE",
"1002 70 LINE"
);
},
{
closed = 1;
nodes = (
"808 68 LINE",
"808 116 LINE",
"747 70 LINE"
);
},
{
closed = 1;
nodes = (
"796 68 LINE",
"951 68 LINE",
"951 635 LINE",
"796 635 LINE"
);
},
{
closed = 1;
nodes = (
"672 615 LINE",
"1077 615 LINE",
"1077 700 LINE",
"672 700 LINE"
);
},
{
closed = 1;
nodes = (
"808 584 LINE",
"808 632 LINE",
"747 630 LINE"
);
},
{
closed = 1;
nodes = (
"941 632 LINE",
"941 584 LINE",
"1002 630 LINE"
);
}
);
};
layerId = "FA480B27-EBBD-4830-9868-98507D39050C";
name = Bold;
paths = (
{
closed = 1;
nodes = (
"931 68 LINE",
"931 635 LINE",
"776 635 LINE",
"776 68 LINE"
);
},
{
closed = 1;
nodes = (
"460 0 LINE",
"460 105 LINE",
"55 105 LINE",
"55 0 LINE"
);
},
{
closed = 1;
nodes = (
"336 65 LINE",
"336 632 LINE",
"181 632 LINE",
"181 65 LINE"
);
},
{
closed = 1;
nodes = (
"880 294 LINE",
"880 398 LINE",
"234 398 LINE",
"234 294 LINE"
);
},
{
closed = 1;
nodes = (
"460 595 LINE",
"460 700 LINE",
"55 700 LINE",
"55 595 LINE"
);
},
{
closed = 1;
nodes = (
"1057 0 LINE",
"1057 105 LINE",
"652 105 LINE",
"652 0 LINE"
);
},
{
closed = 1;
nodes = (
"1057 595 LINE",
"1057 700 LINE",
"652 700 LINE",
"652 595 LINE"
);
}
);
width = 1112;
},
{
background = {
paths = (
{
closed = 1;
nodes = (
"935 685 LINE",
"935 18 LINE",
"970 18 LINE",
"970 685 LINE"
);
},
{
closed = 1;
nodes = (
"776 35 LINE",
"776 0 LINE",
"1130 0 LINE",
"1130 35 LINE"
);
},
{
closed = 1;
nodes = (
"776 700 LINE",
"776 665 LINE",
"1130 665 LINE",
"1130 700 LINE"
);
}
);
};
layerId = "543F9737-16F7-428D-9F96-2EBD9FC8D3B6";
name = Light;
paths = (
{
closed = 1;
nodes = (
"865 18 LINE",
"865 685 LINE",
"830 685 LINE",
"830 18 LINE"
);
},
{
closed = 1;
nodes = (
"429 0 LINE",
"429 35 LINE",
"85 35 LINE",
"85 0 LINE"
);
},
{
closed = 1;
nodes = (
"280 18 LINE",
"280 685 LINE",
"245 685 LINE",
"245 18 LINE"
);
},
{
closed = 1;
nodes = (
"839 329 LINE",
"839 363 LINE",
"273 363 LINE",
"273 329 LINE"
);
},
{
closed = 1;
nodes = (
"429 665 LINE",
"429 700 LINE",
"85 700 LINE",
"85 665 LINE"
);
},
{
closed = 1;
nodes = (
"1025 0 LINE",
"1025 35 LINE",
"681 35 LINE",
"681 0 LINE"
);
},
{
closed = 1;
nodes = (
"1025 665 LINE",
"1025 700 LINE",
"681 700 LINE",
"681 665 LINE"
);
}
);
width = 1110;
}
);
unicode = 0048;
},
{
color = 4;
glyphname = I;
lastChange = "2015-07-19 17:37:34 +0000";
layers = (
{
layerId = "B29C398E-974A-40D0-A0A0-00935056D4B4";
name = "Light Extended";
paths = (
{
closed = 1;
nodes = (
"664 0 LINE SMOOTH",
"664 33 LINE SMOOTH",
"80 33 LINE SMOOTH",
"80 0 LINE SMOOTH"
);
},
{
closed = 1;
nodes = (
"354 682 LINE SMOOTH",
"354 18 LINE SMOOTH",
"389 18 LINE SMOOTH",
"389 682 LINE SMOOTH"
);
},
{
closed = 1;
nodes = (
"80 700 LINE SMOOTH",
"80 667 LINE SMOOTH",
"664 667 LINE SMOOTH",
"664 700 LINE SMOOTH"
);
}
);
width = 744;
},
{
layerId = "FA480B27-EBBD-4830-9868-98507D39050C";
name = Bold;
width = 600;
},
{
layerId = "543F9737-16F7-428D-9F96-2EBD9FC8D3B6";
name = Light;
width = 600;
}
);
unicode = 0049;
},
{
color = 4;
glyphname = J;
lastChange = "2015-07-19 23:42:48 +0000";
layers = (
{
background = {
paths = (
{
closed = 1;
nodes = (
"879 514 LINE",
"879 700 LINE",
"242 700 LINE",
"242 514 LINE"
);
},
{
closed = 1;
nodes = (
"515 193 OFFCURVE",
"403 148 OFFCURVE",
"322 148 CURVE SMOOTH",
"240 148 OFFCURVE",
"152 212 OFFCURVE",
"105 339 CURVE",
"-48 228 LINE",
"19 75 OFFCURVE",
"145 -38 OFFCURVE",
"329 -38 CURVE SMOOTH",
"536 -38 OFFCURVE",
"711 99 OFFCURVE",
"711 308 CURVE SMOOTH",
"711 682 LINE",
"515 682 LINE",
"515 315 LINE SMOOTH"
);
}
);
};
layerId = "B29C398E-974A-40D0-A0A0-00935056D4B4";
name = "Light Extended";
paths = (
{
closed = 1;
nodes = (
"878 667 LINE",
"878 700 LINE",
"272 700 LINE",
"272 667 LINE"
);
},
{
closed = 1;
nodes = (
"0 152 LINE",
"56 68 OFFCURVE",
"164 -28 OFFCURVE",
"333 -28 CURVE SMOOTH",
"522 -28 OFFCURVE",
"650 78 OFFCURVE",
"650 251 CURVE SMOOTH",
"650 682 LINE",
"615 682 LINE",
"615 251 LINE SMOOTH",
"615 84 OFFCURVE",
"484 5 OFFCURVE",
"333 5 CURVE SMOOTH",
"188 5 OFFCURVE",
"87 88 OFFCURVE",
"30 167 CURVE"
);
}
);
width = 918;
},
{
layerId = "FA480B27-EBBD-4830-9868-98507D39050C";
name = Bold;
width = 600;
},
{
layerId = "543F9737-16F7-428D-9F96-2EBD9FC8D3B6";
name = Light;
width = 600;
}
);
unicode = 004A;
},
{
color = 4;
glyphname = K;
lastChange = "2015-07-19 17:39:22 +0000";
layers = (
{
layerId = "B29C398E-974A-40D0-A0A0-00935056D4B4";
name = "Light Extended";
paths = (
{
closed = 1;
nodes = (
"664 0 LINE SMOOTH",
"664 33 LINE SMOOTH",
"80 33 LINE SMOOTH",
"80 0 LINE SMOOTH"
);
},
{
closed = 1;
nodes = (
"354 682 LINE SMOOTH",
"354 18 LINE SMOOTH",
"389 18 LINE SMOOTH",
"389 682 LINE SMOOTH"
);
},
{
closed = 1;
nodes = (
"80 700 LINE SMOOTH",
"80 667 LINE SMOOTH",
"664 667 LINE SMOOTH",
"664 700 LINE SMOOTH"
);
},
{
closed = 1;
nodes = (
"1164 693 LINE",
"362 196 LINE",
"382 169 LINE",
"1179 665 LINE"
);
},
{
closed = 1;
nodes = (
"1171 35 LINE",
"716 399 LINE",
"688 375 LINE",
"1156 2 LINE"
);
},
{
closed = 1;
nodes = (
"1389 667 LINE SMOOTH",
"1389 700 LINE SMOOTH",
"885 700 LINE SMOOTH",
"885 667 LINE SMOOTH"
);
},
{
closed = 1;
nodes = (
"1389 0 LINE SMOOTH",
"1389 33 LINE SMOOTH",
"885 33 LINE SMOOTH",
"885 0 LINE SMOOTH"
);
}
);
width = 1414;
},
{
layerId = "FA480B27-EBBD-4830-9868-98507D39050C";
name = Bold;
width = 600;
},
{
layerId = "543F9737-16F7-428D-9F96-2EBD9FC8D3B6";
name = Light;
width = 600;
}
);
unicode = 004B;
},
{
color = 4;
glyphname = L;
lastChange = "2015-07-19 17:39:34 +0000";
layers = (
{
layerId = "B29C398E-974A-40D0-A0A0-00935056D4B4";
name = "Light Extended";
paths = (
{
closed = 1;
nodes = (
"340 18 LINE",
"375 18 LINE",
"375 682 LINE",
"340 682 LINE"
);
},
{
closed = 1;
nodes = (
"80 667 LINE",
"650 667 LINE",
"650 700 LINE",
"80 700 LINE"
);
},
{
closed = 1;
nodes = (
"1127 0 LINE",
"1127 321 LINE",
"1092 321 LINE",
"1092 33 LINE",
"80 33 LINE",
"80 0 LINE"
);
}
);
width = 1177;
},
{
layerId = "FA480B27-EBBD-4830-9868-98507D39050C";
name = Bold;
width = 600;
},
{
layerId = "543F9737-16F7-428D-9F96-2EBD9FC8D3B6";
name = Light;
width = 600;
}
);
unicode = 004C;
},
{
color = 4;
glyphname = M;
lastChange = "2015-07-19 18:11:23 +0000";
layers = (
{
layerId = "B29C398E-974A-40D0-A0A0-00935056D4B4";
name = "Light Extended";
paths = (
{
closed = 1;
nodes = (
"1427 700 LINE",
"1383 700 LINE",
"877 17 LINE",
"370 700 LINE",
"326 700 LINE",
"877 -39 LINE"
);
},
{
closed = 1;
nodes = (
"564 0 LINE",
"564 33 LINE",
"80 33 LINE",
"80 0 LINE"
);
},
{
closed = 1;
nodes = (
"369 17 LINE",
"369 682 LINE",
"334 682 LINE",
"334 17 LINE"
);
},
{
closed = 1;
nodes = (
"369 667 LINE",
"369 700 LINE",
"80 700 LINE",
"80 667 LINE"
);
},
{
closed = 1;
nodes = (
"1673 0 LINE",
"1673 33 LINE",
"1189 33 LINE",
"1189 0 LINE"
);
},
{
closed = 1;
nodes = (
"1419 17 LINE",
"1419 682 LINE",
"1384 682 LINE",
"1384 17 LINE"
);
},
{
closed = 1;
nodes = (
"1673 667 LINE",
"1673 700 LINE",
"1384 700 LINE",
"1384 667 LINE"
);
}
);
width = 1753;
},
{
layerId = "FA480B27-EBBD-4830-9868-98507D39050C";
name = Bold;
paths = (
{
closed = 1;
nodes = (
"1020 700 LINE",
"885 700 LINE",
"618 180 LINE",
"341 700 LINE",
"191 700 LINE",
"608 -65 LINE"
);
},
{
closed = 1;
nodes = (
"435 0 LINE",
"435 105 LINE",
"55 105 LINE",
"55 0 LINE"
);
},
{
closed = 1;
nodes = (
"321 65 LINE",
"321 632 LINE",
"181 632 LINE",
"181 65 LINE"
);
},
{
closed = 1;
nodes = (
"321 595 LINE",
"321 700 LINE",
"55 700 LINE",
"55 595 LINE"
);
},
{
closed = 1;
nodes = (
"1176 0 LINE",
"1176 105 LINE",
"781 105 LINE",
"781 0 LINE"
);
},
{
closed = 1;
nodes = (
"1050 65 LINE",
"1050 632 LINE",
"895 632 LINE",
"895 65 LINE"
);
},
{
closed = 1;
nodes = (
"1176 595 LINE",
"1176 700 LINE",
"895 700 LINE",
"895 595 LINE"
);
}
);
width = 1231;
},
{
layerId = "543F9737-16F7-428D-9F96-2EBD9FC8D3B6";
name = Light;
paths = (
{
closed = 1;
nodes = (
"971 700 LINE",
"931 700 LINE",
"614 29 LINE",
"296 700 LINE",
"256 700 LINE",
"613 -41 LINE"
);
},
{
closed = 1;
nodes = (
"411 0 LINE",
"411 34 LINE",
"82 34 LINE",
"82 0 LINE"
);
},
{
closed = 1;
nodes = (
"271 17 LINE",
"271 682 LINE",
"237 682 LINE",
"237 17 LINE"
);
},
{
closed = 1;
nodes = (
"286 666 LINE",
"286 700 LINE",
"87 700 LINE",
"87 666 LINE"
);
},
{
closed = 1;
nodes = (
"1140 0 LINE",
"1140 34 LINE",
"811 34 LINE",
"811 0 LINE"
);
},
{
closed = 1;
nodes = (
"990 17 LINE",
"990 682 LINE",
"956 682 LINE",
"956 17 LINE"
);
},
{
closed = 1;
nodes = (
"1140 666 LINE",
"1140 700 LINE",
"956 700 LINE",
"956 666 LINE"
);
}
);
width = 1231;
}
);
unicode = 004D;
},
{
color = 4;
glyphname = N;
lastChange = "2015-07-19 18:11:55 +0000";
layers = (
{
background = {
paths = (
{
closed = 1;
nodes = (
"606 8 LINE",
"606 45 LINE",
"98 45 LINE",
"98 8 LINE"
);
},
{
closed = 1;
nodes = (
"404 26 LINE",
"404 682 LINE",
"368 682 LINE",
"368 26 LINE"
);
},
{
closed = 1;
nodes = (
"1465 700 LINE",
"932 17 LINE",
"395 700 LINE",
"98 700 LINE",
"98 664 LINE",
"377 664 LINE",
"932 -43 LINE",
"1483 664 LINE",
"1765 664 LINE",
"1764 700 LINE"
);
},
{
closed = 1;
nodes = (
"1259 45 LINE",
"1259 8 LINE",
"1762 8 LINE",
"1763 45 LINE"
);
},
{
closed = 1;
nodes = (
"1493 26 LINE",
"1493 682 LINE",
"1456 682 LINE",
"1456 26 LINE"
);
}
);
};
layerId = "B29C398E-974A-40D0-A0A0-00935056D4B4";
name = "Light Extended";
paths = (
{
closed = 1;
nodes = (
"564 0 LINE",
"564 33 LINE",
"80 33 LINE",
"80 0 LINE"
);
},
{
closed = 1;
nodes = (
"370 17 LINE",
"370 700 LINE",
"335 700 LINE",
"335 17 LINE"
);
},
{
closed = 1;
nodes = (
"308 700 LINE",
"1292 -37 LINE",
"1292 682 LINE",
"1258 682 LINE",
"1258 31 LINE",
"372 700 LINE"
);
},
{
closed = 1;
nodes = (
"1064 700 LINE",
"1064 667 LINE",
"1547 667 LINE",
"1547 700 LINE"
);
},
{
closed = 1;
nodes = (
"370 700 LINE",
"80 700 LINE",
"80 667 LINE",
"370 667 LINE"
);
}
);
width = 1567;
},
{
layerId = "FA480B27-EBBD-4830-9868-98507D39050C";
name = Bold;
width = 600;
},
{
layerId = "543F9737-16F7-428D-9F96-2EBD9FC8D3B6";
name = Light;
width = 600;
}
);
unicode = 004E;
},
{
color = 9;
glyphname = O;
lastChange = "2015-07-19 23:33:35 +0000";
layers = (
{
background = {
paths = (
{
closed = 1;
nodes = (
"297 -38 OFFCURVE",
"120 67 OFFCURVE",
"120 250 CURVE",
"120 433 OFFCURVE",
"297 538 OFFCURVE",
"511 538 CURVE",
"725 538 OFFCURVE",
"902 433 OFFCURVE",
"902 250 CURVE",
"902 67 OFFCURVE",
"725 -38 OFFCURVE",
"511 -38 CURVE"
);
},
{
closed = 1;
nodes = (
"308 513 OFFCURVE",
"146 414 OFFCURVE",
"146 250 CURVE",
"146 86 OFFCURVE",
"308 -13 OFFCURVE",
"511 -13 CURVE",
"714 -13 OFFCURVE",
"876 86 OFFCURVE",
"876 250 CURVE",
"876 414 OFFCURVE",
"714 513 OFFCURVE",
"511 513 CURVE"
);
}
);
};
layerId = "B29C398E-974A-40D0-A0A0-00935056D4B4";
name = "Light Extended";
paths = (
{
closed = 1;
nodes = (
"955 -29 OFFCURVE",
"1194 112 OFFCURVE",
"1194 354 CURVE",
"1194 596 OFFCURVE",
"955 737 OFFCURVE",
"647 737 CURVE",
"338 737 OFFCURVE",
"100 596 OFFCURVE",
"100 354 CURVE",
"100 112 OFFCURVE",
"338 -29 OFFCURVE",
"647 -29 CURVE"
);
},
{
closed = 1;
nodes = (
"353 4 OFFCURVE",
"135 137 OFFCURVE",
"135 354 CURVE",
"135 571 OFFCURVE",
"353 704 OFFCURVE",
"647 704 CURVE",
"940 704 OFFCURVE",
"1159 571 OFFCURVE",
"1159 354 CURVE",
"1159 137 OFFCURVE",
"940 4 OFFCURVE",
"647 4 CURVE"
);
}
);
width = 1294;
},
{
layerId = "FA480B27-EBBD-4830-9868-98507D39050C";
name = Bold;
paths = (
{
closed = 1;
nodes = (
"685 -38 OFFCURVE",
"869 88 OFFCURVE",
"869 350 CURVE",
"869 612 OFFCURVE",
"685 738 OFFCURVE",
"457 738 CURVE",
"229 738 OFFCURVE",
"45 612 OFFCURVE",
"45 350 CURVE",
"45 88 OFFCURVE",
"229 -38 OFFCURVE",
"457 -38 CURVE"
);
},
{
closed = 1;
nodes = (
"304 77 OFFCURVE",
"210 199 OFFCURVE",
"210 350 CURVE",
"210 501 OFFCURVE",
"304 623 OFFCURVE",
"457 623 CURVE",
"611 623 OFFCURVE",
"704 501 OFFCURVE",
"704 350 CURVE",
"704 199 OFFCURVE",
"611 77 OFFCURVE",
"457 77 CURVE"
);
}
);
width = 914;
},
{
layerId = "543F9737-16F7-428D-9F96-2EBD9FC8D3B6";
name = Light;
paths = (
{
closed = 1;
nodes = (
"655 -38 OFFCURVE",
"819 103 OFFCURVE",
"819 350 CURVE",
"819 597 OFFCURVE",
"655 738 OFFCURVE",
"457 738 CURVE",
"258 738 OFFCURVE",
"95 597 OFFCURVE",
"95 350 CURVE",
"95 103 OFFCURVE",
"258 -38 OFFCURVE",
"457 -38 CURVE"
);
},
{
closed = 1;
nodes = (
"273 -4 OFFCURVE",
"130 129 OFFCURVE",
"130 350 CURVE",
"130 571 OFFCURVE",
"273 704 OFFCURVE",
"457 704 CURVE",
"640 704 OFFCURVE",
"784 571 OFFCURVE",
"784 350 CURVE",
"784 129 OFFCURVE",
"640 -4 OFFCURVE",
"457 -4 CURVE"
);
}
);
width = 914;
}
);
unicode = 004F;
},
{
color = 4;
glyphname = P;
lastChange = "2015-07-19 18:18:13 +0000";
layers = (
{
layerId = "B29C398E-974A-40D0-A0A0-00935056D4B4";
name = "Light Extended";
paths = (
{
closed = 1;
nodes = (
"375 18 LINE",
"375 682 LINE",
"340 682 LINE",
"340 18 LINE"
);
},
{
closed = 1;
nodes = (
"650 0 LINE",
"650 33 LINE",
"80 33 LINE",
"80 0 LINE"
);
},
{
closed = 1;
nodes = (
"991 276 LINE SMOOTH",
"1151 276 OFFCURVE",
"1249 369 OFFCURVE",
"1249 486 CURVE SMOOTH",
"1249 616 OFFCURVE",
"1148 700 OFFCURVE",
"991 700 CURVE SMOOTH",
"80 700 LINE",
"80 667 LINE",
"1001 667 LINE SMOOTH",
"1129 667 OFFCURVE",
"1213 593 OFFCURVE",
"1213 486 CURVE SMOOTH",
"1213 381 OFFCURVE",
"1124 309 OFFCURVE",
"1001 309 CURVE SMOOTH",
"359 309 LINE",
"359 276 LINE"
);
}
);
width = 1319;
},
{
layerId = "FA480B27-EBBD-4830-9868-98507D39050C";
name = Bold;
width = 600;
},
{
layerId = "543F9737-16F7-428D-9F96-2EBD9FC8D3B6";
name = Light;
width = 600;
}
);
unicode = 0050;
},
{
color = 6;
glyphname = Q;
lastChange = "2015-07-19 23:33:56 +0000";
layers = (
{
background = {
paths = (
{
closed = 1;
nodes = (
"165 124 LINE",
"165 99 LINE",
"379 99 LINE SMOOTH",
"432 99 OFFCURVE",
"468 80 OFFCURVE",
"503 34 CURVE SMOOTH",
"532 -2 OFFCURVE",
"555 -49 OFFCURVE",
"590 -88 CURVE SMOOTH",
"636 -138 OFFCURVE",
"684 -156 OFFCURVE",
"759 -156 CURVE SMOOTH",
"867 -156 OFFCURVE",
"953 -82 OFFCURVE",
"953 31 CURVE",
"928 31 LINE",
"928 -71 OFFCURVE",
"848 -131 OFFCURVE",
"759 -131 CURVE SMOOTH",
"667 -131 OFFCURVE",
"624 -96 OFFCURVE",
"580 -32 CURVE SMOOTH",
"556 2 OFFCURVE",
"535 40 OFFCURVE",
"505 72 CURVE SMOOTH",
"473 107 OFFCURVE",
"431 124 OFFCURVE",
"379 124 CURVE SMOOTH"
);
}
);
};
layerId = "B29C398E-974A-40D0-A0A0-00935056D4B4";
name = "Light Extended";
paths = (
{
closed = 1;
nodes = (
"1249 -13 LINE",
"1234 -124 OFFCURVE",
"1154 -194 OFFCURVE",
"1044 -194 CURVE SMOOTH",
"923 -194 OFFCURVE",
"840 -101 OFFCURVE",
"729 33 CURVE SMOOTH",
"595 192 OFFCURVE",
"500 275 OFFCURVE",
"248 275 CURVE SMOOTH",
"133 275 LINE",
"133 242 LINE",
"248 242 LINE SMOOTH",
"475 242 OFFCURVE",
"576 162 OFFCURVE",
"691 24 CURVE SMOOTH",
"820 -133 OFFCURVE",
"906 -226 OFFCURVE",
"1044 -226 CURVE SMOOTH",
"1176 -226 OFFCURVE",
"1266 -141 OFFCURVE",
"1282 -18 CURVE"
);
},
{
closed = 1;
nodes = (
"955 -29 OFFCURVE",
"1194 112 OFFCURVE",
"1194 354 CURVE",
"1194 596 OFFCURVE",
"955 737 OFFCURVE",
"647 737 CURVE",
"338 737 OFFCURVE",
"100 596 OFFCURVE",
"100 354 CURVE",
"100 112 OFFCURVE",
"338 -29 OFFCURVE",
"647 -29 CURVE"
);
},
{
closed = 1;
nodes = (
"353 4 OFFCURVE",
"135 137 OFFCURVE",
"135 354 CURVE",
"135 571 OFFCURVE",
"353 704 OFFCURVE",
"647 704 CURVE",
"940 704 OFFCURVE",
"1159 571 OFFCURVE",
"1159 354 CURVE",
"1159 137 OFFCURVE",
"940 4 OFFCURVE",
"647 4 CURVE"
);
}
);
width = 1332;
},
{
layerId = "FA480B27-EBBD-4830-9868-98507D39050C";
name = Bold;
width = 600;
},
{
layerId = "543F9737-16F7-428D-9F96-2EBD9FC8D3B6";
name = Light;
width = 600;
}
);
unicode = 0051;
},
{
color = 6;
glyphname = Q.alt;
lastChange = "2015-07-19 23:34:03 +0000";
layers = (
{
background = {
paths = (
{
closed = 1;
nodes = (
"684 285 OFFCURVE",
"531 378 OFFCURVE",
"255 378 CURVE SMOOTH",
"119 378 LINE",
"119 344 LINE",
"255 344 LINE SMOOTH",
"474 344 OFFCURVE",
"633 283 OFFCURVE",
"834 78 CURVE SMOOTH",
"1062 -154 OFFCURVE",
"1285 -484 OFFCURVE",
"1602 -484 CURVE SMOOTH",
"1841 -484 OFFCURVE",
"2009 -389 OFFCURVE",
"2093 -335 CURVE",
"2077 -307 LINE",
"2001 -359 OFFCURVE",
"1836 -449 OFFCURVE",
"1602 -449 CURVE SMOOTH",
"1315 -449 OFFCURVE",
"1096 -143 OFFCURVE",
"881 80 CURVE SMOOTH"
);
},
{
closed = 1;
nodes = (
"955 -38 OFFCURVE",
"1194 103 OFFCURVE",
"1194 350 CURVE",
"1194 597 OFFCURVE",
"955 738 OFFCURVE",
"647 738 CURVE",
"338 738 OFFCURVE",
"100 597 OFFCURVE",
"100 350 CURVE",
"100 103 OFFCURVE",
"338 -38 OFFCURVE",
"647 -38 CURVE"
);
},
{
closed = 1;
nodes = (
"353 -5 OFFCURVE",
"135 128 OFFCURVE",
"135 350 CURVE",
"135 572 OFFCURVE",
"353 705 OFFCURVE",
"647 705 CURVE",
"940 705 OFFCURVE",
"1159 572 OFFCURVE",
"1159 350 CURVE",
"1159 128 OFFCURVE",
"940 -5 OFFCURVE",
"647 -5 CURVE"
);
}
);
};
guideLines = (
{
position = "{862, 38}";
}
);
layerId = "B29C398E-974A-40D0-A0A0-00935056D4B4";
name = "Light Extended";
paths = (
{
closed = 1;
nodes = (
"771 280 OFFCURVE",
"611 378 OFFCURVE",
"185 378 CURVE SMOOTH",
"119 378 LINE",
"119 344 LINE",
"185 344 LINE SMOOTH",
"564 344 OFFCURVE",
"725 273 OFFCURVE",
"944 -2 CURVE SMOOTH",
"1185 -305 OFFCURVE",
"1360 -504 OFFCURVE",
"1652 -504 CURVE SMOOTH",
"1851 -504 OFFCURVE",
"1981 -435 OFFCURVE",
"2093 -335 CURVE",
"2070 -309 LINE",
"1969 -401 OFFCURVE",
"1846 -469 OFFCURVE",
"1652 -469 CURVE SMOOTH",
"1390 -469 OFFCURVE",
"1221 -293 OFFCURVE",
"991 0 CURVE SMOOTH"
);
},
{
closed = 1;
nodes = (
"955 -29 OFFCURVE",
"1194 112 OFFCURVE",
"1194 354 CURVE",
"1194 596 OFFCURVE",
"955 737 OFFCURVE",
"647 737 CURVE",
"338 737 OFFCURVE",
"100 596 OFFCURVE",
"100 354 CURVE",
"100 112 OFFCURVE",
"338 -29 OFFCURVE",
"647 -29 CURVE"
);
},
{
closed = 1;
nodes = (
"353 4 OFFCURVE",
"135 137 OFFCURVE",
"135 354 CURVE",
"135 571 OFFCURVE",
"353 704 OFFCURVE",
"647 704 CURVE",
"940 704 OFFCURVE",
"1159 571 OFFCURVE",
"1159 354 CURVE",
"1159 137 OFFCURVE",
"940 4 OFFCURVE",
"647 4 CURVE"
);
}
);
width = 1293;
},
{
layerId = "FA480B27-EBBD-4830-9868-98507D39050C";
name = Bold;
width = 600;
},
{
layerId = "543F9737-16F7-428D-9F96-2EBD9FC8D3B6";
name = Light;
width = 600;
}
);
},
{
color = 4;
glyphname = R;
lastChange = "2015-07-19 20:19:20 +0000";
layers = (
{
background = {
paths = (
{
closed = 1;
nodes = (
"481 212 LINE SMOOTH",
"504 212 OFFCURVE",
"523 208 OFFCURVE",
"539 202 CURVE SMOOTH",
"567 190 OFFCURVE",
"587 172 OFFCURVE",
"606 147 CURVE SMOOTH",
"635 111 OFFCURVE",
"658 64 OFFCURVE",
"693 25 CURVE SMOOTH",
"711 6 OFFCURVE",
"732 -12 OFFCURVE",
"759 -24 CURVE SMOOTH",
"784 -36 OFFCURVE",
"816 -43 OFFCURVE",
"854 -43 CURVE SMOOTH",
"890 -43 OFFCURVE",
"921 -36 OFFCURVE",
"947 -22 CURVE SMOOTH",
"985 -1 OFFCURVE",
"1013 32 OFFCURVE",
"1030 68 CURVE SMOOTH",
"1048 105 OFFCURVE",
"1055 146 OFFCURVE",
"1055 183 CURVE",
"1030 183 LINE",
"1030 138 OFFCURVE",
"1017 87 OFFCURVE",
"989 48 CURVE SMOOTH",
"975 29 OFFCURVE",
"957 13 OFFCURVE",
"935 1 CURVE SMOOTH",
"913 -11 OFFCURVE",
"887 -18 OFFCURVE",
"854 -18 CURVE SMOOTH",
"801 -18 OFFCURVE",
"765 -3 OFFCURVE",
"737 19 CURVE SMOOTH",
"715 36 OFFCURVE",
"698 57 OFFCURVE",
"682 81 CURVE SMOOTH",
"658 115 OFFCURVE",
"637 153 OFFCURVE",
"608 185 CURVE SMOOTH",
"593 200 OFFCURVE",
"576 214 OFFCURVE",
"555 223 CURVE SMOOTH",
"534 232 OFFCURVE",
"510 237 OFFCURVE",
"481 237 CURVE SMOOTH",
"402 237 LINE",
"402 212 LINE"
);
},
{
closed = 1;
nodes = (
"290 14 LINE",
"290 487 LINE",
"265 487 LINE",
"265 14 LINE"
);
},
{
closed = 1;
nodes = (
"486 1 LINE",
"486 27 LINE",
"76 27 LINE",
"76 0 LINE"
);
},
{
closed = 1;
nodes = (
"278 212 OFFCURVE",
"285 212 OFFCURVE",
"298 212 CURVE SMOOTH",
"387 212 OFFCURVE",
"747 212 OFFCURVE",
"775 212 CURVE SMOOTH",
"820 212 OFFCURVE",
"861 225 OFFCURVE",
"892 250 CURVE SMOOTH",
"907 263 OFFCURVE",
"920 277 OFFCURVE",
"928 294 CURVE SMOOTH",
"937 312 OFFCURVE",
"942 340 OFFCURVE",
"942 361 CURVE SMOOTH",
"942 380 OFFCURVE",
"937 399 OFFCURVE",
"928 415 CURVE SMOOTH",
"915 439 OFFCURVE",
"894 463 OFFCURVE",
"867 477 CURVE SMOOTH",
"840 491 OFFCURVE",
"809 500 OFFCURVE",
"775 500 CURVE SMOOTH",
"759 500 OFFCURVE",
"581 500 OFFCURVE",
"407 500 CURVE SMOOTH",
"320 500 OFFCURVE",
"200 500 OFFCURVE",
"136 500 CURVE SMOOTH",
"108 500 OFFCURVE",
"124 500 OFFCURVE",
"105 500 CURVE",
"76 500 LINE",
"76 474 LINE",
"76 474 OFFCURVE",
"742 474 OFFCURVE",
"775 474 CURVE SMOOTH",
"815 474 OFFCURVE",
"850 461 OFFCURVE",
"875 441 CURVE SMOOTH",
"888 431 OFFCURVE",
"899 415 OFFCURVE",
"906 403 CURVE SMOOTH",
"912 389 OFFCURVE",
"916 376 OFFCURVE",
"916 361 CURVE SMOOTH",
"916 345 OFFCURVE",
"912 319 OFFCURVE",
"905 306 CURVE SMOOTH",
"895 286 OFFCURVE",
"878 269 OFFCURVE",
"854 256 CURVE SMOOTH",
"832 244 OFFCURVE",
"805 237 OFFCURVE",
"775 237 CURVE SMOOTH",
"742 237 OFFCURVE",
"278 237 OFFCURVE",
"278 237 CURVE",
"278 212 LINE"
);
}
);
};
layerId = "B29C398E-974A-40D0-A0A0-00935056D4B4";
name = "Light Extended";
paths = (
{
closed = 1;
nodes = (
"646 298 LINE SMOOTH",
"765 298 OFFCURVE",
"833 223 OFFCURVE",
"900 136 CURVE SMOOTH",
"973 42 OFFCURVE",
"1039 -53 OFFCURVE",
"1184 -53 CURVE SMOOTH",
"1355 -53 OFFCURVE",
"1446 91 OFFCURVE",
"1446 256 CURVE",
"1411 256 LINE",
"1411 104 OFFCURVE",
"1327 -20 OFFCURVE",
"1184 -20 CURVE SMOOTH",
"1065 -20 OFFCURVE",
"1003 64 OFFCURVE",
"930 154 CURVE SMOOTH",
"843 262 OFFCURVE",
"790 320 OFFCURVE",
"629 321 CURVE SMOOTH",
"504 322 LINE",
"504 298 LINE"
);
},
{
closed = 1;
nodes = (
"375 20 LINE",
"375 682 LINE",
"340 682 LINE",
"340 20 LINE"
);
},
{
closed = 1;
nodes = (
"649 1 LINE",
"649 34 LINE",
"80 33 LINE",
"80 0 LINE"
);
},
{
closed = 1;
nodes = (
"1053 298 LINE",
"1202 298 OFFCURVE",
"1286 398 OFFCURVE",
"1286 497 CURVE SMOOTH",
"1286 610 OFFCURVE",
"1200 700 OFFCURVE",
"1053 700 CURVE",
"80 700 LINE",
"80 667 LINE",
"1053 667 LINE",
"1180 667 OFFCURVE",
"1250 587 OFFCURVE",
"1250 497 CURVE SMOOTH",
"1250 410 OFFCURVE",
"1176 331 OFFCURVE",
"1053 331 CURVE",
"368 331 LINE",
"368 298 LINE"
);
}
);
width = 1496;
},
{
layerId = "FA480B27-EBBD-4830-9868-98507D39050C";
name = Bold;
width = 600;
},
{
layerId = "543F9737-16F7-428D-9F96-2EBD9FC8D3B6";
name = Light;
width = 600;
}
);
unicode = 0052;
},
{
color = 4;
glyphname = R.alt;
lastChange = "2015-07-19 20:19:24 +0000";
layers = (
{
background = {
paths = (
{
closed = 1;
nodes = (
"375 25 LINE",
"375 678 LINE",
"340 678 LINE",
"340 25 LINE"
);
},
{
closed = 1;
nodes = (
"651 0 LINE",
"651 33 LINE",
"80 33 LINE",
"80 0 LINE"
);
},
{
closed = 1;
nodes = (
"876 304 LINE SMOOTH",
"1041 304 OFFCURVE",
"1164 377 OFFCURVE",
"1164 500 CURVE SMOOTH",
"1164 618 OFFCURVE",
"1077 700 OFFCURVE",
"911 700 CURVE SMOOTH",
"80 700 LINE",
"80 667 LINE",
"911 667 LINE SMOOTH",
"1058 667 OFFCURVE",
"1128 596 OFFCURVE",
"1128 500 CURVE SMOOTH",
"1128 394 OFFCURVE",
"1015 337 OFFCURVE",
"876 337 CURVE SMOOTH",
"358 337 LINE",
"358 304 LINE"
);
},
{
closed = 1;
nodes = (
"461 322 LINE",
"431 304 LINE",
"525 304 LINE SMOOTH",
"758 304 OFFCURVE",
"896 263 OFFCURVE",
"1109 38 CURVE SMOOTH",
"1334 -199 OFFCURVE",
"1591 -374 OFFCURVE",
"1908 -374 CURVE SMOOTH",
"2147 -374 OFFCURVE",
"2315 -279 OFFCURVE",
"2399 -225 CURVE",
"2383 -197 LINE",
"2307 -249 OFFCURVE",
"2142 -339 OFFCURVE",
"1908 -339 CURVE SMOOTH",
"1621 -339 OFFCURVE",
"1374 -188 OFFCURVE",
"1159 40 CURVE SMOOTH",
"954 257 OFFCURVE",
"822 322 OFFCURVE",
"528 322 CURVE SMOOTH"
);
}
);
};
guideLines = (
{
position = "{679, -375}";
}
);
layerId = "B29C398E-974A-40D0-A0A0-00935056D4B4";
name = "Light Extended";
paths = (
{
closed = 1;
nodes = (
"375 25 LINE",
"375 678 LINE",
"340 678 LINE",
"340 25 LINE"
);
},
{
closed = 1;
nodes = (
"651 0 LINE",
"651 33 LINE",
"80 33 LINE",
"80 0 LINE"
);
},
{
closed = 1;
nodes = (
"876 304 LINE SMOOTH",
"1041 304 OFFCURVE",
"1164 377 OFFCURVE",
"1164 500 CURVE SMOOTH",
"1164 618 OFFCURVE",
"1077 700 OFFCURVE",
"911 700 CURVE SMOOTH",
"80 700 LINE",
"80 667 LINE",
"911 667 LINE SMOOTH",
"1058 667 OFFCURVE",
"1128 596 OFFCURVE",
"1128 500 CURVE SMOOTH",
"1128 394 OFFCURVE",
"1015 337 OFFCURVE",
"876 337 CURVE SMOOTH",
"358 337 LINE",
"358 304 LINE"
);
},
{
closed = 1;
nodes = (
"431 322 LINE",
"401 304 LINE",
"575 304 LINE SMOOTH",
"808 304 OFFCURVE",
"917 247 OFFCURVE",
"1089 -12 CURVE SMOOTH",
"1292 -318 OFFCURVE",
"1501 -504 OFFCURVE",
"1808 -504 CURVE SMOOTH",
"2047 -504 OFFCURVE",
"2195 -409 OFFCURVE",
"2279 -355 CURVE",
"2263 -327 LINE",
"2187 -379 OFFCURVE",
"2042 -469 OFFCURVE",
"1808 -469 CURVE SMOOTH",
"1531 -469 OFFCURVE",
"1326 -305 OFFCURVE",
"1129 -10 CURVE SMOOTH",
"960 243 OFFCURVE",
"872 322 OFFCURVE",
"578 322 CURVE SMOOTH"
);
}
);
width = 1276;
},
{
layerId = "FA480B27-EBBD-4830-9868-98507D39050C";
name = Bold;
width = 600;
},
{
layerId = "543F9737-16F7-428D-9F96-2EBD9FC8D3B6";
name = Light;
width = 600;
}
);
},
{
glyphname = S;
lastChange = "2015-07-19 23:34:43 +0000";
layers = (
{
layerId = "B29C398E-974A-40D0-A0A0-00935056D4B4";
name = "Light Extended";
paths = (
{
closed = 1;
nodes = (
"339 705 OFFCURVE",
"194 643 OFFCURVE",
"194 535 CURVE SMOOTH",
"194 436 OFFCURVE",
"315 401 OFFCURVE",
"606 369 CURVE SMOOTH",
"940 332 OFFCURVE",
"1102 311 OFFCURVE",
"1102 170 CURVE SMOOTH",
"1102 28 OFFCURVE",
"932 -28 OFFCURVE",
"701 -28 CURVE",
"456 -28 OFFCURVE",
"235 79 OFFCURVE",
"160 172 CURVE",
"189 177 LINE",
"189 0 LINE",
"155 0 LINE",
"155 225 LINE",
"264 92 OFFCURVE",
"490 5 OFFCURVE",
"703 5 CURVE",
"909 5 OFFCURVE",
"1067 61 OFFCURVE",
"1067 170 CURVE SMOOTH",
"1067 280 OFFCURVE",
"931 299 OFFCURVE",
"604 334 CURVE SMOOTH",
"294 367 OFFCURVE",
"159 402 OFFCURVE",
"159 535 CURVE SMOOTH",
"159 666 OFFCURVE",
"301 738 OFFCURVE",
"525 738 CURVE",
"810 738 OFFCURVE",
"971 629 OFFCURVE",
"1046 536 CURVE",
"1017 531 LINE",
"1017 700 LINE",
"1051 700 LINE",
"1051 483 LINE",
"942 616 OFFCURVE",
"776 705 OFFCURVE",
"523 705 CURVE"
);
}
);
width = 1212;
},
{
layerId = "FA480B27-EBBD-4830-9868-98507D39050C";
name = Bold;
width = 600;
},
{
layerId = "543F9737-16F7-428D-9F96-2EBD9FC8D3B6";
name = Light;
width = 600;
}
);
unicode = 0053;
},
{
glyphname = S.alt2;
lastChange = "2015-07-19 23:35:08 +0000";
layers = (
{
layerId = "B29C398E-974A-40D0-A0A0-00935056D4B4";
name = "Light Extended";
paths = (
{
closed = 1;
nodes = (
"922 -28 OFFCURVE",
"1122 34 OFFCURVE",
"1122 176 CURVE SMOOTH",
"1122 317 OFFCURVE",
"960 346 OFFCURVE",
"606 374 CURVE SMOOTH",
"290 400 OFFCURVE",
"169 446 OFFCURVE",
"169 545 CURVE SMOOTH",
"169 653 OFFCURVE",
"334 705 OFFCURVE",
"567 705 CURVE SMOOTH",
"742 705 OFFCURVE",
"952 665 OFFCURVE",
"1087 620 CURVE",
"1087 656 LINE",
"945 705 OFFCURVE",
"754 738 OFFCURVE",
"567 738 CURVE SMOOTH",
"294 738 OFFCURVE",
"134 676 OFFCURVE",
"134 545 CURVE SMOOTH",
"134 412 OFFCURVE",
"269 366 OFFCURVE",
"604 339 CURVE SMOOTH",
"951 311 OFFCURVE",
"1087 286 OFFCURVE",
"1087 176 CURVE SMOOTH",
"1087 67 OFFCURVE",
"899 5 OFFCURVE",
"678 5 CURVE SMOOTH",
"470 5 OFFCURVE",
"248 59 OFFCURVE",
"90 137 CURVE",
"90 96 LINE",
"248 22 OFFCURVE",
"458 -28 OFFCURVE",
"676 -28 CURVE SMOOTH"
);
}
);
width = 1212;
},
{
layerId = "FA480B27-EBBD-4830-9868-98507D39050C";
name = Bold;
width = 600;
},
{
layerId = "543F9737-16F7-428D-9F96-2EBD9FC8D3B6";
name = Light;
width = 600;
}
);
},
{
glyphname = T;
lastChange = "2015-07-19 17:43:17 +0000";
layers = (
{
layerId = "B29C398E-974A-40D0-A0A0-00935056D4B4";
name = "Light Extended";
paths = (
{
closed = 1;
nodes = (
"876 0 LINE",
"876 33 LINE",
"292 33 LINE",
"292 0 LINE"
);
},
{
closed = 1;
nodes = (
"567 682 LINE",
"567 18 LINE",
"602 18 LINE",
"602 682 LINE"
);
},
{
closed = 1;
nodes = (
"55 700 LINE",
"55 438 LINE",
"90 438 LINE",
"90 667 LINE",
"1078 667 LINE",
"1078 438 LINE",
"1113 438 LINE",
"1113 700 LINE"
);
}
);
width = 1168;
},
{
layerId = "FA480B27-EBBD-4830-9868-98507D39050C";
name = Bold;
width = 600;
},
{
layerId = "543F9737-16F7-428D-9F96-2EBD9FC8D3B6";
name = Light;
width = 600;
}
);
unicode = 0054;
},
{
color = 6;
glyphname = U;
lastChange = "2015-07-19 23:35:18 +0000";
layers = (
{
background = {
paths = (
{
closed = 1;
nodes = (
"1209 228 LINE SMOOTH",
"1209 190 OFFCURVE",
"1197 154 OFFCURVE",
"1173 122 CURVE SMOOTH",
"1139 73 OFFCURVE",
"1080 31 OFFCURVE",
"1006 2 CURVE SMOOTH",
"933 -27 OFFCURVE",
"846 -44 OFFCURVE",
"756 -44 CURVE SMOOTH",
"644 -44 OFFCURVE",
"533 -14 OFFCURVE",
"451 35 CURVE SMOOTH",
"410 59 OFFCURVE",
"376 89 OFFCURVE",
"353 122 CURVE SMOOTH",
"330 154 OFFCURVE",
"318 190 OFFCURVE",
"317 228 CURVE",
"317 682 LINE",
"281 682 LINE",
"281 228 LINE SMOOTH",
"281 181 OFFCURVE",
"296 138 OFFCURVE",
"323 100 CURVE SMOOTH",
"363 44 OFFCURVE",
"427 -1 OFFCURVE",
"503 -32 CURVE SMOOTH",
"580 -63 OFFCURVE",
"667 -81 OFFCURVE",
"756 -81 CURVE SMOOTH",
"882 -81 OFFCURVE",
"1002 -50 OFFCURVE",
"1093 3 CURVE SMOOTH",
"1138 30 OFFCURVE",
"1177 62 OFFCURVE",
"1203 100 CURVE SMOOTH",
"1231 138 OFFCURVE",
"1246 181 OFFCURVE",
"1246 228 CURVE SMOOTH",
"1246 682 LINE",
"1209 682 LINE"
);
},
{
closed = 1;
nodes = (
"600 663 LINE",
"600 700 LINE",
"-22 700 LINE",
"-22 663 LINE"
);
},
{
closed = 1;
nodes = (
"1546 663 LINE",
"1546 700 LINE",
"924 700 LINE",
"924 663 LINE"
);
}
);
};
layerId = "B29C398E-974A-40D0-A0A0-00935056D4B4";
name = "Light Extended";
paths = (
{
closed = 1;
nodes = (
"581 667 LINE",
"581 700 LINE",
"20 700 LINE",
"20 667 LINE"
);
},
{
closed = 1;
nodes = (
"1007 -28 OFFCURVE",
"1186 99 OFFCURVE",
"1186 348 CURVE SMOOTH",
"1186 682 LINE",
"1154 682 LINE",
"1150 332 LINE SMOOTH",
"1148 114 OFFCURVE",
"980 5 OFFCURVE",
"731 5 CURVE",
"482 5 OFFCURVE",
"314 114 OFFCURVE",
"311 333 CURVE SMOOTH",
"307 682 LINE",
"275 682 LINE",
"275 348 LINE SMOOTH",
"275 99 OFFCURVE",
"455 -28 OFFCURVE",
"731 -28 CURVE"
);
},
{
closed = 1;
nodes = (
"1441 700 LINE",
"880 700 LINE",
"880 667 LINE",
"1441 667 LINE"
);
}
);
width = 1461;
},
{
layerId = "FA480B27-EBBD-4830-9868-98507D39050C";
name = Bold;
width = 600;
},
{
layerId = "543F9737-16F7-428D-9F96-2EBD9FC8D3B6";
name = Light;
width = 600;
}
);
unicode = 0055;
},
{
color = 6;
glyphname = V;
lastChange = "2015-07-19 17:43:40 +0000";
layers = (
{
layerId = "B29C398E-974A-40D0-A0A0-00935056D4B4";
name = "Light Extended";
paths = (
{
closed = 1;
nodes = (
"1121 682 LINE",
"680 17 LINE",
"240 682 LINE",
"195 682 LINE",
"679 -45 LINE",
"1163 682 LINE"
);
},
{
closed = 1;
nodes = (
"-25 700 LINE",
"-25 667 LINE",
"456 667 LINE",
"456 700 LINE"
);
},
{
closed = 1;
nodes = (
"902 700 LINE",
"902 667 LINE",
"1383 667 LINE",
"1383 700 LINE"
);
}
);
width = 1358;
},
{
layerId = "FA480B27-EBBD-4830-9868-98507D39050C";
name = Bold;
width = 600;
},
{
layerId = "543F9737-16F7-428D-9F96-2EBD9FC8D3B6";
name = Light;
width = 600;
}
);
unicode = 0056;
},
{
glyphname = W;
lastChange = "2015-07-19 18:06:30 +0000";
layers = (
{
background = {
paths = (
{
closed = 1;
nodes = (
"1136 682 LINE",
"665 17 LINE",
"195 682 LINE",
"150 682 LINE",
"664 -45 LINE",
"1178 682 LINE"
);
},
{
closed = 1;
nodes = (
"-70 700 LINE",
"-70 666 LINE",
"411 666 LINE",
"411 700 LINE"
);
},
{
closed = 1;
nodes = (
"917 700 LINE",
"917 666 LINE",
"1398 666 LINE",
"1398 700 LINE"
);
}
);
};
layerId = "B29C398E-974A-40D0-A0A0-00935056D4B4";
name = "Light Extended";
paths = (
{
closed = 1;
nodes = (
"1066 682 LINE",
"625 18 LINE",
"245 682 LINE",
"204 682 LINE",
"624 -45 LINE",
"1107 682 LINE"
);
},
{
closed = 1;
nodes = (
"-20 700 LINE",
"-20 668 LINE",
"441 668 LINE",
"441 700 LINE"
);
},
{
closed = 1;
nodes = (
"547 700 LINE",
"547 669 LINE",
"1218 669 LINE",
"1218 700 LINE"
);
},
{
closed = 1;
nodes = (
"1526 682 LINE",
"1142 18 LINE",
"705 682 LINE",
"664 682 LINE",
"1144 -45 LINE",
"1564 682 LINE"
);
},
{
closed = 1;
nodes = (
"1327 700 LINE",
"1327 668 LINE",
"1788 668 LINE",
"1788 700 LINE"
);
}
);
width = 1768;
},
{
layerId = "FA480B27-EBBD-4830-9868-98507D39050C";
name = Bold;
width = 600;
},
{
layerId = "543F9737-16F7-428D-9F96-2EBD9FC8D3B6";
name = Light;
width = 600;
}
);
unicode = 0057;
},
{
color = 4;
glyphname = X;
lastChange = "2015-07-19 18:09:24 +0000";
layers = (
{
background = {
paths = (
{
closed = 1;
nodes = (
"1133 682 LINE",
"662 243 LINE",
"192 682 LINE",
"147 682 LINE",
"661 195 LINE",
"1175 682 LINE"
);
},
{
closed = 1;
nodes = (
"-73 700 LINE",
"-73 666 LINE",
"408 666 LINE",
"408 700 LINE"
);
},
{
closed = 1;
nodes = (
"914 700 LINE",
"914 666 LINE",
"1395 666 LINE",
"1395 700 LINE"
);
},
{
closed = 1;
nodes = (
"190 -217 LINE",
"661 222 LINE",
"1131 -217 LINE",
"1176 -217 LINE",
"662 270 LINE",
"148 -217 LINE"
);
},
{
closed = 1;
nodes = (
"1396 -235 LINE",
"1396 -201 LINE",
"915 -201 LINE",
"915 -235 LINE"
);
},
{
closed = 1;
nodes = (
"409 -235 LINE",
"409 -201 LINE",
"-72 -201 LINE",
"-72 -235 LINE"
);
}
);
};
layerId = "B29C398E-974A-40D0-A0A0-00935056D4B4";
name = "Light Extended";
paths = (
{
closed = 1;
nodes = (
"37 700 LINE",
"37 667 LINE",
"518 667 LINE",
"518 700 LINE SMOOTH"
);
},
{
closed = 1;
nodes = (
"1266 0 LINE",
"1266 33 LINE",
"785 33 LINE",
"785 0 LINE"
);
},
{
closed = 1;
nodes = (
"1055 17 LINE",
"280 682 LINE",
"226 682 LINE",
"1001 17 LINE"
);
},
{
closed = 1;
nodes = (
"1072 682 LINE",
"1018 682 LINE",
"243 17 LINE",
"297 17 LINE"
);
},
{
closed = 1;
nodes = (
"783 667 LINE",
"1264 667 LINE",
"1264 700 LINE",
"783 700 LINE SMOOTH"
);
},
{
closed = 1;
nodes = (
"516 33 LINE",
"35 33 LINE",
"35 0 LINE",
"516 0 LINE"
);
}
);
width = 1301;
},
{
layerId = "FA480B27-EBBD-4830-9868-98507D39050C";
name = Bold;
width = 600;
},
{
layerId = "543F9737-16F7-428D-9F96-2EBD9FC8D3B6";
name = Light;
width = 600;
}
);
unicode = 0058;
},
{
color = 6;
glyphname = Y;
lastChange = "2015-07-19 18:10:12 +0000";
layers = (
{
background = {
paths = (
{
closed = 1;
nodes = (
"457 26 LINE",
"164 26 LINE",
"164 0 LINE",
"483 0 LINE",
"483 151 LINE",
"457 151 LINE"
);
},
{
closed = 1;
nodes = (
"780 0 LINE",
"780 26 LINE",
"469 26 LINE",
"469 0 LINE"
);
},
{
closed = 1;
nodes = (
"736 500 LINE",
"460 160 LINE",
"480 143 LINE",
"747 474 LINE",
"992 474 LINE",
"992 500 LINE"
);
},
{
closed = 1;
nodes = (
"205 500 LINE",
"-52 500 LINE",
"-52 474 LINE",
"193 474 LINE",
"461 143 LINE",
"481 160 LINE"
);
}
);
};
layerId = "B29C398E-974A-40D0-A0A0-00935056D4B4";
name = "Light Extended";
paths = (
{
closed = 1;
nodes = (
"1056 697 LINE",
"645 236 LINE",
"669 212 LINE",
"1073 665 LINE"
);
},
{
closed = 1;
nodes = (
"254 700 LINE",
"237 665 LINE",
"643 212 LINE",
"671 236 LINE"
);
},
{
closed = 1;
nodes = (
"673 249 LINE",
"638 249 LINE",
"638 0 LINE",
"673 0 LINE"
);
},
{
closed = 1;
nodes = (
"948 0 LINE",
"948 33 LINE",
"378 33 LINE",
"378 0 LINE"
);
},
{
closed = 1;
nodes = (
"825 700 LINE",
"825 667 LINE",
"1306 667 LINE",
"1306 700 LINE"
);
},
{
closed = 1;
nodes = (
"6 700 LINE",
"6 667 LINE",
"487 667 LINE",
"487 700 LINE"
);
}
);
width = 1312;
},
{
layerId = "FA480B27-EBBD-4830-9868-98507D39050C";
name = Bold;
width = 600;
},
{
layerId = "543F9737-16F7-428D-9F96-2EBD9FC8D3B6";
name = Light;
width = 600;
}
);
unicode = 0059;
},
{
glyphname = Z;
lastChange = "2015-07-19 18:08:12 +0000";
layers = (
{
layerId = "B29C398E-974A-40D0-A0A0-00935056D4B4";
name = "Light Extended";
paths = (
{
closed = 1;
nodes = (
"980 262 LINE",
"1015 262 LINE",
"1015 0 LINE",
"80 0 LINE",
"80 19 LINE",
"912 654 LINE",
"954 670 LINE",
"954 672 LINE",
"912 667 LINE",
"110 667 LINE",
"110 438 LINE",
"75 438 LINE",
"75 700 LINE",
"1010 700 LINE",
"1010 681 LINE",
"178 46 LINE",
"136 30 LINE",
"136 28 LINE",
"178 33 LINE",
"980 33 LINE"
);
}
);
width = 1090;
},
{
layerId = "FA480B27-EBBD-4830-9868-98507D39050C";
name = Bold;
width = 600;
},
{
layerId = "543F9737-16F7-428D-9F96-2EBD9FC8D3B6";
name = Light;
width = 600;
}
);
unicode = 005A;
},
{
color = 4;
glyphname = a;
lastChange = "2015-07-19 23:23:04 +0000";
layers = (
{
background = {
paths = (
{
closed = 1;
nodes = (
"895 140 LINE",
"895 46 OFFCURVE",
"963 -23 OFFCURVE",
"1053 -23 CURVE SMOOTH",
"1182 -23 OFFCURVE",
"1221 90 OFFCURVE",
"1221 166 CURVE",
"1186 166 LINE",
"1186 86 OFFCURVE",
"1147 11 OFFCURVE",
"1055 11 CURVE SMOOTH",
"990 11 OFFCURVE",
"930 61 OFFCURVE",
"930 140 CURVE",
"930 296 LINE",
"930 439 OFFCURVE",
"848 538 OFFCURVE",
"643 538 CURVE",
"482 538 OFFCURVE",
"320 520 OFFCURVE",
"142 480 CURVE",
"142 443 LINE",
"322 484 OFFCURVE",
"482 504 OFFCURVE",
"643 504 CURVE",
"830 504 OFFCURVE",
"895 415 OFFCURVE",
"895 296 CURVE"
);
},
{
closed = 1;
nodes = (
"100 21 OFFCURVE",
"206 -29 OFFCURVE",
"349 -29 CURVE",
"533 -29 OFFCURVE",
"735 31 OFFCURVE",
"910 110 CURVE",
"910 143 LINE",
"728 66 OFFCURVE",
"530 5 OFFCURVE",
"349 5 CURVE",
"227 5 OFFCURVE",
"135 46 OFFCURVE",
"135 142 CURVE",
"135 239 OFFCURVE",
"265 293 OFFCURVE",
"432 293 CURVE",
"582 293 OFFCURVE",
"754 264 OFFCURVE",
"910 224 CURVE",
"910 258 LINE",
"754 295 OFFCURVE",
"603 327 OFFCURVE",
"432 327 CURVE",
"245 327 OFFCURVE",
"100 264 OFFCURVE",
"100 142 CURVE"
);
}
);
};
layerId = "B29C398E-974A-40D0-A0A0-00935056D4B4";
name = "Light Extended";
paths = (
{
closed = 1;
nodes = (
"1030 -28 OFFCURVE",
"1068 -11 OFFCURVE",
"1103 13 CURVE",
"1089 43 LINE",
"1056 19 OFFCURVE",
"1025 5 OFFCURVE",
"987 5 CURVE SMOOTH",
"940 5 OFFCURVE",
"895 40 OFFCURVE",
"895 120 CURVE SMOOTH",
"895 296 LINE SMOOTH",
"895 439 OFFCURVE",
"788 538 OFFCURVE",
"563 538 CURVE SMOOTH",
"422 538 OFFCURVE",
"275 505 OFFCURVE",
"132 460 CURVE",
"132 424 LINE",
"277 470 OFFCURVE",
"416 505 OFFCURVE",
"563 505 CURVE SMOOTH",
"770 505 OFFCURVE",
"860 416 OFFCURVE",
"860 296 CURVE SMOOTH",
"860 120 LINE SMOOTH",
"860 26 OFFCURVE",
"913 -28 OFFCURVE",
"985 -28 CURVE SMOOTH"
);
},
{
closed = 1;
nodes = (
"539 -29 OFFCURVE",
"720 16 OFFCURVE",
"875 95 CURVE",
"875 127 LINE",
"713 50 OFFCURVE",
"536 4 OFFCURVE",
"381 4 CURVE",
"249 4 OFFCURVE",
"135 40 OFFCURVE",
"135 127 CURVE",
"135 225 OFFCURVE",
"261 259 OFFCURVE",
"438 259 CURVE SMOOTH",
"585 259 OFFCURVE",
"752 234 OFFCURVE",
"875 219 CURVE",
"875 252 LINE",
"752 267 OFFCURVE",
"588 292 OFFCURVE",
"415 292 CURVE SMOOTH",
"241 292 OFFCURVE",
"100 249 OFFCURVE",
"100 127 CURVE",
"100 16 OFFCURVE",
"209 -29 OFFCURVE",
"381 -29 CURVE"
);
}
);
width = 1113;
},
{
guideLines = (
{
position = "{407, 538}";
}
);
layerId = "FA480B27-EBBD-4830-9868-98507D39050C";
name = Bold;
paths = (
{
closed = 1;
nodes = (
"652 -23 OFFCURVE",
"686 -6 OFFCURVE",
"708 10 CURVE",
"678 111 LINE",
"668 101 OFFCURVE",
"656 95 OFFCURVE",
"643 95 CURVE SMOOTH",
"628 95 OFFCURVE",
"622 108 OFFCURVE",
"622 127 CURVE SMOOTH",
"622 316 LINE SMOOTH",
"622 459 OFFCURVE",
"539 538 OFFCURVE",
"383 538 CURVE SMOOTH",
"277 538 OFFCURVE",
"177 518 OFFCURVE",
"77 487 CURVE",
"77 362 LINE",
"170 394 OFFCURVE",
"253 414 OFFCURVE",
"332 414 CURVE SMOOTH",
"399 414 OFFCURVE",
"467 390 OFFCURVE",
"467 316 CURVE SMOOTH",
"467 109 LINE SMOOTH",
"467 30 OFFCURVE",
"529 -23 OFFCURVE",
"604 -23 CURVE SMOOTH"
);
},
{
closed = 1;
nodes = (
"336 -29 OFFCURVE",
"428 2 OFFCURVE",
"509 74 CURVE",
"511 169 LINE",
"440 113 OFFCURVE",
"354 88 OFFCURVE",
"309 88 CURVE",
"254 88 OFFCURVE",
"206 96 OFFCURVE",
"205 150 CURVE",
"206 197 OFFCURVE",
"272 211 OFFCURVE",
"339 211 CURVE",
"397 211 OFFCURVE",
"444 205 OFFCURVE",
"511 189 CURVE",
"512 275 LINE",
"432 300 OFFCURVE",
"366 312 OFFCURVE",
"278 312 CURVE",
"142 312 OFFCURVE",
"46 244 OFFCURVE",
"45 137 CURVE",
"46 27 OFFCURVE",
"133 -29 OFFCURVE",
"251 -29 CURVE"
);
}
);
width = 743;
},
{
layerId = "543F9737-16F7-428D-9F96-2EBD9FC8D3B6";
name = Light;
paths = (
{
closed = 1;
nodes = (
"631 -28 OFFCURVE",
"651 -21 OFFCURVE",
"665 -11 CURVE",
"656 20 LINE",
"646 11 OFFCURVE",
"628 6 OFFCURVE",
"609 6 CURVE SMOOTH",
"581 6 OFFCURVE",
"562 27 OFFCURVE",
"562 83 CURVE SMOOTH",
"562 366 LINE",
"562 459 OFFCURVE",
"498 538 OFFCURVE",
"363 538 CURVE",
"302 538 OFFCURVE",
"224 527 OFFCURVE",
"126 500 CURVE",
"126 466 LINE",
"224 494 OFFCURVE",
"302 504 OFFCURVE",
"363 504 CURVE",
"480 504 OFFCURVE",
"527 435 OFFCURVE",
"527 366 CURVE",
"527 83 LINE SMOOTH",
"527 12 OFFCURVE",
"554 -28 OFFCURVE",
"607 -28 CURVE SMOOTH"
);
},
{
closed = 1;
nodes = (
"359 -29 OFFCURVE",
"445 -1 OFFCURVE",
"542 95 CURVE",
"542 123 LINE",
"445 36 OFFCURVE",
"356 5 OFFCURVE",
"286 5 CURVE SMOOTH",
"228 5 OFFCURVE",
"140 42 OFFCURVE",
"140 138 CURVE SMOOTH",
"140 225 OFFCURVE",
"226 273 OFFCURVE",
"308 273 CURVE SMOOTH",
"369 273 OFFCURVE",
"446 267 OFFCURVE",
"542 235 CURVE",
"542 263 LINE",
"451 292 OFFCURVE",
"390 307 OFFCURVE",
"308 307 CURVE SMOOTH",
"216 307 OFFCURVE",
"105 250 OFFCURVE",
"105 138 CURVE SMOOTH",
"105 17 OFFCURVE",
"207 -29 OFFCURVE",
"286 -29 CURVE SMOOTH"
);
}
);
width = 743;
}
);
unicode = 0061;
},
{
color = 9;
glyphname = a.alt;
lastChange = "2015-07-19 20:00:37 +0000";
layers = (
{
background = {
paths = (
{
closed = 1;
nodes = (
"895 140 LINE",
"895 46 OFFCURVE",
"963 -23 OFFCURVE",
"1053 -23 CURVE SMOOTH",
"1182 -23 OFFCURVE",
"1221 90 OFFCURVE",
"1221 166 CURVE",
"1186 166 LINE",
"1186 86 OFFCURVE",
"1147 11 OFFCURVE",
"1055 11 CURVE SMOOTH",
"990 11 OFFCURVE",
"930 61 OFFCURVE",
"930 140 CURVE",
"930 296 LINE",
"930 439 OFFCURVE",
"848 538 OFFCURVE",
"643 538 CURVE",
"482 538 OFFCURVE",
"320 520 OFFCURVE",
"142 480 CURVE",
"142 443 LINE",
"322 484 OFFCURVE",
"482 504 OFFCURVE",
"643 504 CURVE",
"830 504 OFFCURVE",
"895 415 OFFCURVE",
"895 296 CURVE"
);
},
{
closed = 1;
nodes = (
"100 21 OFFCURVE",
"206 -29 OFFCURVE",
"349 -29 CURVE",
"533 -29 OFFCURVE",
"735 31 OFFCURVE",
"910 110 CURVE",
"910 143 LINE",
"728 66 OFFCURVE",
"530 5 OFFCURVE",
"349 5 CURVE",
"227 5 OFFCURVE",
"135 46 OFFCURVE",
"135 142 CURVE",
"135 239 OFFCURVE",
"265 293 OFFCURVE",
"432 293 CURVE",
"582 293 OFFCURVE",
"754 264 OFFCURVE",
"910 224 CURVE",
"910 258 LINE",
"754 295 OFFCURVE",
"603 327 OFFCURVE",
"432 327 CURVE",
"245 327 OFFCURVE",
"100 264 OFFCURVE",
"100 142 CURVE"
);
}
);
};
layerId = "B29C398E-974A-40D0-A0A0-00935056D4B4";
name = "Light Extended";
paths = (
{
closed = 1;
nodes = (
"1119 -28 OFFCURVE",
"1151 55 OFFCURVE",
"1151 125 CURVE SMOOTH",
"1151 146 LINE",
"1116 146 LINE",
"1116 125 LINE SMOOTH",
"1116 55 OFFCURVE",
"1085 5 OFFCURVE",
"1025 5 CURVE SMOOTH",
"960 5 OFFCURVE",
"930 55 OFFCURVE",
"930 140 CURVE SMOOTH",
"930 296 LINE SMOOTH",
"930 439 OFFCURVE",
"848 538 OFFCURVE",
"643 538 CURVE SMOOTH",
"482 538 OFFCURVE",
"320 520 OFFCURVE",
"142 480 CURVE",
"142 444 LINE",
"322 485 OFFCURVE",
"482 505 OFFCURVE",
"643 505 CURVE SMOOTH",
"830 505 OFFCURVE",
"895 416 OFFCURVE",
"895 296 CURVE SMOOTH",
"895 140 LINE SMOOTH",
"895 41 OFFCURVE",
"933 -28 OFFCURVE",
"1023 -28 CURVE SMOOTH"
);
},
{
closed = 1;
nodes = (
"533 -29 OFFCURVE",
"735 31 OFFCURVE",
"910 110 CURVE",
"910 142 LINE",
"728 65 OFFCURVE",
"530 4 OFFCURVE",
"349 4 CURVE SMOOTH",
"227 4 OFFCURVE",
"135 45 OFFCURVE",
"135 142 CURVE SMOOTH",
"135 240 OFFCURVE",
"265 294 OFFCURVE",
"432 294 CURVE SMOOTH",
"582 294 OFFCURVE",
"754 265 OFFCURVE",
"910 225 CURVE",
"910 258 LINE",
"754 295 OFFCURVE",
"603 327 OFFCURVE",
"432 327 CURVE SMOOTH",
"245 327 OFFCURVE",
"100 264 OFFCURVE",
"100 142 CURVE SMOOTH",
"100 21 OFFCURVE",
"206 -29 OFFCURVE",
"349 -29 CURVE SMOOTH"
);
}
);
width = 1226;
},
{
guideLines = (
{
position = "{407, 538}";
}
);
layerId = "FA480B27-EBBD-4830-9868-98507D39050C";
name = Bold;
paths = (
{
closed = 1;
nodes = (
"699 -29 OFFCURVE",
"748 18 OFFCURVE",
"748 103 CURVE SMOOTH",
"748 170 LINE",
"676 170 LINE",
"676 101 LINE SMOOTH",
"676 82 OFFCURVE",
"668 64 OFFCURVE",
"648 64 CURVE SMOOTH",
"628 64 OFFCURVE",
"622 82 OFFCURVE",
"622 101 CURVE SMOOTH",
"622 316 LINE",
"622 459 OFFCURVE",
"539 538 OFFCURVE",
"383 538 CURVE SMOOTH",
"277 538 OFFCURVE",
"177 518 OFFCURVE",
"77 487 CURVE",
"77 362 LINE",
"170 394 OFFCURVE",
"253 414 OFFCURVE",
"332 414 CURVE SMOOTH",
"399 414 OFFCURVE",
"467 390 OFFCURVE",
"467 316 CURVE",
"467 103 LINE SMOOTH",
"467 24 OFFCURVE",
"524 -29 OFFCURVE",
"613 -29 CURVE SMOOTH"
);
},
{
closed = 1;
nodes = (
"345 -29 OFFCURVE",
"449 9 OFFCURVE",
"536 100 CURVE",
"536 191 LINE",
"461 119 OFFCURVE",
"360 88 OFFCURVE",
"309 88 CURVE",
"254 88 OFFCURVE",
"206 96 OFFCURVE",
"205 150 CURVE",
"206 197 OFFCURVE",
"272 211 OFFCURVE",
"339 211 CURVE",
"404 211 OFFCURVE",
"455 204 OFFCURVE",
"536 183 CURVE",
"536 268 LINE",
"445 297 OFFCURVE",
"375 312 OFFCURVE",
"278 312 CURVE",
"142 312 OFFCURVE",
"46 244 OFFCURVE",
"45 137 CURVE",
"46 27 OFFCURVE",
"133 -29 OFFCURVE",
"251 -29 CURVE"
);
}
);
width = 763;
},
{
layerId = "543F9737-16F7-428D-9F96-2EBD9FC8D3B6";
name = Light;
paths = (
{
closed = 1;
nodes = (
"687 -28 OFFCURVE",
"728 19 OFFCURVE",
"728 79 CURVE SMOOTH",
"728 106 LINE",
"696 106 LINE",
"696 79 LINE SMOOTH",
"696 34 OFFCURVE",
"676 6 OFFCURVE",
"630 6 CURVE SMOOTH",
"588 6 OFFCURVE",
"562 31 OFFCURVE",
"562 79 CURVE SMOOTH",
"562 366 LINE",
"562 459 OFFCURVE",
"498 538 OFFCURVE",
"363 538 CURVE",
"302 538 OFFCURVE",
"224 527 OFFCURVE",
"126 500 CURVE",
"126 466 LINE",
"224 494 OFFCURVE",
"302 504 OFFCURVE",
"363 504 CURVE",
"480 504 OFFCURVE",
"527 435 OFFCURVE",
"527 366 CURVE",
"527 79 LINE SMOOTH",
"527 16 OFFCURVE",
"565 -28 OFFCURVE",
"628 -28 CURVE SMOOTH"
);
},
{
closed = 1;
nodes = (
"359 -29 OFFCURVE",
"445 -1 OFFCURVE",
"542 95 CURVE",
"542 123 LINE",
"445 36 OFFCURVE",
"356 5 OFFCURVE",
"286 5 CURVE SMOOTH",
"228 5 OFFCURVE",
"140 42 OFFCURVE",
"140 138 CURVE SMOOTH",
"140 225 OFFCURVE",
"226 273 OFFCURVE",
"308 273 CURVE SMOOTH",
"369 273 OFFCURVE",
"446 267 OFFCURVE",
"542 235 CURVE",
"542 263 LINE",
"451 292 OFFCURVE",
"390 307 OFFCURVE",
"308 307 CURVE SMOOTH",
"216 307 OFFCURVE",
"105 250 OFFCURVE",
"105 138 CURVE SMOOTH",
"105 17 OFFCURVE",
"207 -29 OFFCURVE",
"286 -29 CURVE SMOOTH"
);
}
);
width = 763;
}
);
},
{
color = 3;
glyphname = a.alt2;
lastChange = "2015-07-19 23:24:05 +0000";
layers = (
{
layerId = "B29C398E-974A-40D0-A0A0-00935056D4B4";
name = "Light Extended";
paths = (
{
closed = 1;
nodes = (
"1121 -28 OFFCURVE",
"1154 -11 OFFCURVE",
"1189 13 CURVE",
"1175 43 LINE",
"1142 19 OFFCURVE",
"1116 5 OFFCURVE",
"1078 5 CURVE SMOOTH",
"1031 5 OFFCURVE",
"981 40 OFFCURVE",
"981 120 CURVE",
"981 296 LINE",
"946 296 LINE",
"946 120 LINE",
"946 26 OFFCURVE",
"1004 -28 OFFCURVE",
"1076 -28 CURVE SMOOTH"
);
},
{
closed = 1;
nodes = (
"981 259 LINE",
"981 510 LINE",
"946 510 LINE",
"946 259 LINE"
);
},
{
closed = 1;
nodes = (
"866 477 OFFCURVE",
"717 537 OFFCURVE",
"532 536 CURVE",
"314 537 OFFCURVE",
"100 429 OFFCURVE",
"100 234 CURVE",
"100 69 OFFCURVE",
"236 -29 OFFCURVE",
"440 -29 CURVE",
"625 -29 OFFCURVE",
"800 63 OFFCURVE",
"965 182 CURVE",
"965 215 LINE",
"787 89 OFFCURVE",
"603 4 OFFCURVE",
"440 4 CURVE",
"250 4 OFFCURVE",
"135 98 OFFCURVE",
"135 234 CURVE",
"135 404 OFFCURVE",
"329 504 OFFCURVE",
"532 503 CURVE",
"702 504 OFFCURVE",
"864 443 OFFCURVE",
"969 385 CURVE",
"969 418 LINE"
);
}
);
width = 1199;
},
{
layerId = "FA480B27-EBBD-4830-9868-98507D39050C";
name = Bold;
paths = (
{
closed = 1;
nodes = (
"418 -29 OFFCURVE",
"505 37 OFFCURVE",
"575 121 CURVE",
"575 224 LINE",
"499 150 OFFCURVE",
"423 96 OFFCURVE",
"339 96 CURVE SMOOTH",
"259 96 OFFCURVE",
"205 156 OFFCURVE",
"205 241 CURVE",
"205 345 OFFCURVE",
"267 412 OFFCURVE",
"347 412 CURVE SMOOTH",
"420 412 OFFCURVE",
"505 356 OFFCURVE",
"579 305 CURVE",
"579 398 LINE",
"507 463 OFFCURVE",
"422 537 OFFCURVE",
"315 537 CURVE SMOOTH",
"164 537 OFFCURVE",
"40 413 OFFCURVE",
"40 236 CURVE",
"40 59 OFFCURVE",
"174 -29 OFFCURVE",
"309 -29 CURVE SMOOTH"
);
},
{
closed = 1;
nodes = (
"681 -23 OFFCURVE",
"715 -6 OFFCURVE",
"737 10 CURVE",
"707 111 LINE",
"697 101 OFFCURVE",
"685 95 OFFCURVE",
"672 95 CURVE SMOOTH",
"657 95 OFFCURVE",
"651 108 OFFCURVE",
"651 127 CURVE SMOOTH",
"651 316 LINE",
"496 316 LINE",
"496 109 LINE",
"496 30 OFFCURVE",
"558 -23 OFFCURVE",
"633 -23 CURVE SMOOTH"
);
},
{
closed = 1;
nodes = (
"651 290 LINE",
"651 510 LINE",
"496 510 LINE",
"496 290 LINE"
);
}
);
width = 767;
},
{
background = {
paths = (
{
closed = 1;
nodes = (
"592 119 LINE SMOOTH",
"592 56 OFFCURVE",
"634 12 OFFCURVE",
"697 12 CURVE SMOOTH",
"756 12 OFFCURVE",
"793 64 OFFCURVE",
"793 119 CURVE SMOOTH",
"793 146 LINE",
"761 146 LINE",
"761 119 LINE SMOOTH",
"761 79 OFFCURVE",
"745 46 OFFCURVE",
"699 46 CURVE SMOOTH",
"657 46 OFFCURVE",
"627 71 OFFCURVE",
"627 119 CURVE SMOOTH",
"627 316 LINE",
"592 316 LINE"
);
}
);
};
layerId = "543F9737-16F7-428D-9F96-2EBD9FC8D3B6";
name = Light;
paths = (
{
closed = 1;
nodes = (
"434 -29 OFFCURVE",
"512 17 OFFCURVE",
"577 101 CURVE",
"577 134 LINE",
"506 50 OFFCURVE",
"418 5 OFFCURVE",
"336 5 CURVE SMOOTH",
"230 5 OFFCURVE",
"140 98 OFFCURVE",
"140 248 CURVE",
"140 407 OFFCURVE",
"254 488 OFFCURVE",
"347 488 CURVE",
"437 488 OFFCURVE",
"512 439 OFFCURVE",
"581 381 CURVE",
"581 414 LINE",
"514 476 OFFCURVE",
"452 522 OFFCURVE",
"347 522 CURVE",
"239 522 OFFCURVE",
"105 435 OFFCURVE",
"105 248 CURVE",
"105 66 OFFCURVE",
"210 -29 OFFCURVE",
"336 -29 CURVE SMOOTH"
);
},
{
closed = 1;
nodes = (
"662 -28 OFFCURVE",
"682 -21 OFFCURVE",
"696 -11 CURVE",
"687 20 LINE",
"677 11 OFFCURVE",
"659 6 OFFCURVE",
"640 6 CURVE SMOOTH",
"612 6 OFFCURVE",
"593 27 OFFCURVE",
"593 83 CURVE",
"593 331 LINE",
"558 331 LINE",
"558 83 LINE",
"558 12 OFFCURVE",
"585 -28 OFFCURVE",
"638 -28 CURVE SMOOTH"
);
},
{
closed = 1;
nodes = (
"593 325 LINE",
"593 510 LINE",
"558 510 LINE",
"558 325 LINE"
);
}
);
width = 767;
}
);
},
{
color = 3;
glyphname = b;
lastChange = "2015-07-19 23:24:41 +0000";
layers = (
{
layerId = "B29C398E-974A-40D0-A0A0-00935056D4B4";
name = "Light Extended";
paths = (
{
closed = 1;
nodes = (
"211 -28 LINE",
"246 -28 LINE",
"246 510 LINE",
"211 510 LINE"
);
},
{
closed = 1;
nodes = (
"246 800 LINE",
"211 800 LINE",
"211 259 LINE",
"246 259 LINE"
);
},
{
closed = 1;
nodes = (
"233 800 LINE",
"-50 800 LINE",
"-50 767 LINE",
"233 767 LINE"
);
},
{
closed = 1;
nodes = (
"325 31 OFFCURVE",
"474 -29 OFFCURVE",
"659 -28 CURVE",
"877 -29 OFFCURVE",
"1091 89 OFFCURVE",
"1091 284 CURVE",
"1091 439 OFFCURVE",
"955 537 OFFCURVE",
"751 537 CURVE",
"566 537 OFFCURVE",
"391 445 OFFCURVE",
"226 326 CURVE",
"226 293 LINE",
"404 419 OFFCURVE",
"588 504 OFFCURVE",
"751 504 CURVE",
"941 504 OFFCURVE",
"1056 410 OFFCURVE",
"1056 284 CURVE",
"1056 114 OFFCURVE",
"862 4 OFFCURVE",
"659 5 CURVE",
"489 4 OFFCURVE",
"327 65 OFFCURVE",
"222 123 CURVE",
"222 90 LINE"
);
}
);
width = 1191;
},
{
layerId = "FA480B27-EBBD-4830-9868-98507D39050C";
name = Bold;
width = 600;
},
{
layerId = "543F9737-16F7-428D-9F96-2EBD9FC8D3B6";
name = Light;
width = 600;
}
);
unicode = 0062;
},
{
color = 4;
glyphname = c;
lastChange = "2015-07-19 23:22:35 +0000";
layers = (
{
layerId = "B29C398E-974A-40D0-A0A0-00935056D4B4";
name = "Light Extended";
paths = (
{
closed = 1;
nodes = (
"332 504 OFFCURVE",
"135 414 OFFCURVE",
"135 244 CURVE",
"135 103 OFFCURVE",
"283 4 OFFCURVE",
"493 5 CURVE",
"677 4 OFFCURVE",
"825 56 OFFCURVE",
"938 128 CURVE",
"955 96 LINE",
"837 25 OFFCURVE",
"678 -28 OFFCURVE",
"493 -28 CURVE",
"269 -29 OFFCURVE",
"100 74 OFFCURVE",
"100 244 CURVE",
"100 439 OFFCURVE",
"317 537 OFFCURVE",
"539 536 CURVE",
"709 536 OFFCURVE",
"870 474 OFFCURVE",
"940 384 CURVE",
"911 394 LINE",
"911 535 LINE",
"945 535 LINE",
"945 341 LINE",
"841 464 OFFCURVE",
"677 503 OFFCURVE",
"535 503 CURVE"
);
}
);
width = 1058;
},
{
layerId = "FA480B27-EBBD-4830-9868-98507D39050C";
name = Bold;
width = 600;
},
{
layerId = "543F9737-16F7-428D-9F96-2EBD9FC8D3B6";
name = Light;
width = 600;
}
);
unicode = 0063;
},
{
color = 4;
glyphname = c.alt;
lastChange = "2015-07-19 23:25:14 +0000";
layers = (
{
layerId = "B29C398E-974A-40D0-A0A0-00935056D4B4";
name = "Light Extended";
paths = (
{
closed = 1;
nodes = (
"826 517 OFFCURVE",
"707 542 OFFCURVE",
"549 541 CURVE",
"327 542 OFFCURVE",
"100 444 OFFCURVE",
"100 244 CURVE",
"100 69 OFFCURVE",
"269 -29 OFFCURVE",
"478 -28 CURVE",
"658 -28 OFFCURVE",
"822 20 OFFCURVE",
"945 86 CURVE",
"945 125 LINE",
"819 53 OFFCURVE",
"657 4 OFFCURVE",
"478 5 CURVE",
"283 4 OFFCURVE",
"135 98 OFFCURVE",
"135 244 CURVE",
"135 419 OFFCURVE",
"342 509 OFFCURVE",
"549 508 CURVE",
"707 509 OFFCURVE",
"824 480 OFFCURVE",
"913 451 CURVE",
"913 325 LINE",
"948 325 LINE",
"948 476 LINE"
);
}
);
width = 1058;
},
{
layerId = "FA480B27-EBBD-4830-9868-98507D39050C";
name = Bold;
width = 600;
},
{
layerId = "543F9737-16F7-428D-9F96-2EBD9FC8D3B6";
name = Light;
width = 600;
}
);
},
{
color = 3;
glyphname = d;
lastChange = "2015-07-19 23:25:34 +0000";
layers = (
{
layerId = "B29C398E-974A-40D0-A0A0-00935056D4B4";
name = "Light Extended";
paths = (
{
closed = 1;
nodes = (
"1116 -28 OFFCURVE",
"1154 -11 OFFCURVE",
"1189 13 CURVE",
"1175 43 LINE",
"1142 19 OFFCURVE",
"1111 5 OFFCURVE",
"1073 5 CURVE SMOOTH",
"1026 5 OFFCURVE",
"981 40 OFFCURVE",
"981 120 CURVE SMOOTH",
"981 800 LINE",
"946 800 LINE",
"946 120 LINE SMOOTH",
"946 26 OFFCURVE",
"999 -28 OFFCURVE",
"1071 -28 CURVE SMOOTH"
);
},
{
closed = 1;
nodes = (
"968 767 LINE",
"968 800 LINE",
"685 800 LINE",
"685 767 LINE"
);
},
{
closed = 1;
nodes = (
"866 477 OFFCURVE",
"717 537 OFFCURVE",
"532 536 CURVE",
"314 537 OFFCURVE",
"100 429 OFFCURVE",
"100 234 CURVE",
"100 69 OFFCURVE",
"236 -29 OFFCURVE",
"440 -29 CURVE",
"625 -29 OFFCURVE",
"800 63 OFFCURVE",
"965 182 CURVE",
"965 215 LINE",
"787 89 OFFCURVE",
"603 4 OFFCURVE",
"440 4 CURVE",
"250 4 OFFCURVE",
"135 98 OFFCURVE",
"135 234 CURVE",
"135 404 OFFCURVE",
"329 504 OFFCURVE",
"532 503 CURVE",
"702 504 OFFCURVE",
"864 443 OFFCURVE",
"969 385 CURVE",
"969 418 LINE"
);
}
);
width = 1199;
},
{
layerId = "FA480B27-EBBD-4830-9868-98507D39050C";
name = Bold;
paths = (
{
closed = 1;
nodes = (
"418 -29 OFFCURVE",
"505 37 OFFCURVE",
"575 121 CURVE",
"575 224 LINE",
"499 150 OFFCURVE",
"423 96 OFFCURVE",
"339 96 CURVE SMOOTH",
"259 96 OFFCURVE",
"205 156 OFFCURVE",
"205 241 CURVE",
"205 345 OFFCURVE",
"267 412 OFFCURVE",
"347 412 CURVE SMOOTH",
"420 412 OFFCURVE",
"505 356 OFFCURVE",
"579 305 CURVE",
"579 398 LINE",
"507 463 OFFCURVE",
"422 537 OFFCURVE",
"315 537 CURVE SMOOTH",
"164 537 OFFCURVE",
"40 413 OFFCURVE",
"40 236 CURVE",
"40 59 OFFCURVE",
"174 -29 OFFCURVE",
"309 -29 CURVE SMOOTH"
);
},
{
closed = 1;
nodes = (
"681 -23 OFFCURVE",
"715 -6 OFFCURVE",
"737 10 CURVE",
"707 111 LINE",
"697 101 OFFCURVE",
"685 95 OFFCURVE",
"672 95 CURVE SMOOTH",
"657 95 OFFCURVE",
"651 108 OFFCURVE",
"651 127 CURVE SMOOTH",
"651 740 LINE",
"496 740 LINE",
"496 109 LINE SMOOTH",
"496 30 OFFCURVE",
"558 -23 OFFCURVE",
"633 -23 CURVE SMOOTH"
);
},
{
closed = 1;
nodes = (
"651 635 LINE",
"651 740 LINE",
"360 740 LINE",
"360 635 LINE"
);
}
);
width = 767;
},
{
background = {
paths = (
{
closed = 1;
nodes = (
"592 119 LINE SMOOTH",
"592 56 OFFCURVE",
"634 12 OFFCURVE",
"697 12 CURVE SMOOTH",
"756 12 OFFCURVE",
"793 64 OFFCURVE",
"793 119 CURVE SMOOTH",
"793 146 LINE",
"761 146 LINE",
"761 119 LINE SMOOTH",
"761 79 OFFCURVE",
"745 46 OFFCURVE",
"699 46 CURVE SMOOTH",
"657 46 OFFCURVE",
"627 71 OFFCURVE",
"627 119 CURVE SMOOTH",
"627 316 LINE",
"592 316 LINE"
);
}
);
};
layerId = "543F9737-16F7-428D-9F96-2EBD9FC8D3B6";
name = Light;
paths = (
{
closed = 1;
nodes = (
"434 -29 OFFCURVE",
"512 32 OFFCURVE",
"577 106 CURVE",
"577 134 LINE",
"506 60 OFFCURVE",
"418 5 OFFCURVE",
"336 5 CURVE SMOOTH",
"230 5 OFFCURVE",
"145 98 OFFCURVE",
"145 248 CURVE",
"145 407 OFFCURVE",
"254 488 OFFCURVE",
"347 488 CURVE",
"437 488 OFFCURVE",
"512 439 OFFCURVE",
"581 386 CURVE",
"581 414 LINE",
"514 471 OFFCURVE",
"452 522 OFFCURVE",
"347 522 CURVE",
"239 522 OFFCURVE",
"110 435 OFFCURVE",
"110 248 CURVE",
"110 66 OFFCURVE",
"210 -29 OFFCURVE",
"336 -29 CURVE SMOOTH"
);
},
{
closed = 1;
nodes = (
"662 -28 OFFCURVE",
"682 -21 OFFCURVE",
"696 -11 CURVE",
"687 20 LINE",
"677 11 OFFCURVE",
"659 6 OFFCURVE",
"640 6 CURVE SMOOTH",
"612 6 OFFCURVE",
"593 27 OFFCURVE",
"593 83 CURVE SMOOTH",
"593 700 LINE",
"558 700 LINE",
"558 83 LINE SMOOTH",
"558 12 OFFCURVE",
"585 -28 OFFCURVE",
"638 -28 CURVE SMOOTH"
);
},
{
closed = 1;
nodes = (
"593 665 LINE",
"593 700 LINE",
"390 700 LINE",
"390 665 LINE"
);
}
);
width = 767;
}
);
unicode = 0064;
},
{
color = 3;
glyphname = d.alt;
lastChange = "2015-07-19 23:25:46 +0000";
layers = (
{
layerId = "B29C398E-974A-40D0-A0A0-00935056D4B4";
name = "Light Extended";
paths = (
{
closed = 1;
nodes = (
"968 767 LINE",
"968 800 LINE",
"685 800 LINE",
"685 767 LINE"
);
},
{
closed = 1;
nodes = (
"946 41 OFFCURVE",
"984 -28 OFFCURVE",
"1074 -28 CURVE SMOOTH",
"1170 -28 OFFCURVE",
"1202 55 OFFCURVE",
"1202 125 CURVE SMOOTH",
"1202 146 LINE",
"1167 146 LINE",
"1167 125 LINE SMOOTH",
"1167 55 OFFCURVE",
"1136 5 OFFCURVE",
"1076 5 CURVE SMOOTH",
"1011 5 OFFCURVE",
"981 55 OFFCURVE",
"981 140 CURVE SMOOTH",
"981 800 LINE",
"946 800 LINE",
"946 140 LINE SMOOTH"
);
},
{
closed = 1;
nodes = (
"866 477 OFFCURVE",
"717 537 OFFCURVE",
"532 536 CURVE",
"314 537 OFFCURVE",
"100 429 OFFCURVE",
"100 234 CURVE",
"100 69 OFFCURVE",
"236 -29 OFFCURVE",
"440 -29 CURVE",
"625 -29 OFFCURVE",
"800 63 OFFCURVE",
"965 182 CURVE",
"965 215 LINE",
"787 89 OFFCURVE",
"603 4 OFFCURVE",
"440 4 CURVE",
"250 4 OFFCURVE",
"135 98 OFFCURVE",
"135 234 CURVE",
"135 404 OFFCURVE",
"329 504 OFFCURVE",
"532 503 CURVE",
"702 504 OFFCURVE",
"864 443 OFFCURVE",
"969 385 CURVE",
"969 418 LINE"
);
},
{
closed = 1;
nodes = (
"968 767 LINE",
"968 800 LINE",
"685 800 LINE",
"685 767 LINE"
);
},
{
closed = 1;
nodes = (
"946 41 OFFCURVE",
"984 -28 OFFCURVE",
"1074 -28 CURVE SMOOTH",
"1170 -28 OFFCURVE",
"1202 55 OFFCURVE",
"1202 125 CURVE SMOOTH",
"1202 146 LINE",
"1167 146 LINE",
"1167 125 LINE SMOOTH",
"1167 55 OFFCURVE",
"1136 5 OFFCURVE",
"1076 5 CURVE SMOOTH",
"1011 5 OFFCURVE",
"981 55 OFFCURVE",
"981 140 CURVE SMOOTH",
"981 800 LINE",
"946 800 LINE",
"946 140 LINE SMOOTH"
);
},
{
closed = 1;
nodes = (
"866 477 OFFCURVE",
"717 537 OFFCURVE",
"532 536 CURVE",
"314 537 OFFCURVE",
"100 429 OFFCURVE",
"100 234 CURVE",
"100 69 OFFCURVE",
"236 -29 OFFCURVE",
"440 -29 CURVE",
"625 -29 OFFCURVE",
"800 63 OFFCURVE",
"965 182 CURVE",
"965 215 LINE",
"787 89 OFFCURVE",
"603 4 OFFCURVE",
"440 4 CURVE",
"250 4 OFFCURVE",
"135 98 OFFCURVE",
"135 234 CURVE",
"135 404 OFFCURVE",
"329 504 OFFCURVE",
"532 503 CURVE",
"702 504 OFFCURVE",
"864 443 OFFCURVE",
"969 385 CURVE",
"969 418 LINE"
);
}
);
width = 1277;
},
{
layerId = "FA480B27-EBBD-4830-9868-98507D39050C";
name = Bold;
paths = (
{
closed = 1;
nodes = (
"418 -29 OFFCURVE",
"505 37 OFFCURVE",
"575 121 CURVE",
"575 224 LINE",
"499 150 OFFCURVE",
"423 96 OFFCURVE",
"339 96 CURVE SMOOTH",
"259 96 OFFCURVE",
"205 156 OFFCURVE",
"205 241 CURVE",
"205 345 OFFCURVE",
"277 412 OFFCURVE",
"357 412 CURVE SMOOTH",
"435 412 OFFCURVE",
"505 381 OFFCURVE",
"579 345 CURVE",
"579 438 LINE",
"507 488 OFFCURVE",
"437 537 OFFCURVE",
"325 537 CURVE SMOOTH",
"174 537 OFFCURVE",
"40 413 OFFCURVE",
"40 236 CURVE",
"40 59 OFFCURVE",
"174 -29 OFFCURVE",
"309 -29 CURVE SMOOTH"
);
},
{
closed = 1;
nodes = (
"728 -29 OFFCURVE",
"777 18 OFFCURVE",
"777 103 CURVE SMOOTH",
"777 170 LINE",
"705 170 LINE",
"705 101 LINE SMOOTH",
"705 82 OFFCURVE",
"697 64 OFFCURVE",
"677 64 CURVE SMOOTH",
"657 64 OFFCURVE",
"651 82 OFFCURVE",
"651 101 CURVE SMOOTH",
"651 735 LINE",
"496 735 LINE",
"496 103 LINE SMOOTH",
"496 24 OFFCURVE",
"553 -29 OFFCURVE",
"642 -29 CURVE SMOOTH"
);
},
{
closed = 1;
nodes = (
"651 630 LINE",
"651 735 LINE",
"360 735 LINE",
"360 630 LINE"
);
}
);
width = 792;
},
{
background = {
paths = (
{
closed = 1;
nodes = (
"592 119 LINE SMOOTH",
"592 56 OFFCURVE",
"634 12 OFFCURVE",
"697 12 CURVE SMOOTH",
"756 12 OFFCURVE",
"793 64 OFFCURVE",
"793 119 CURVE SMOOTH",
"793 146 LINE",
"761 146 LINE",
"761 119 LINE SMOOTH",
"761 79 OFFCURVE",
"745 46 OFFCURVE",
"699 46 CURVE SMOOTH",
"657 46 OFFCURVE",
"627 71 OFFCURVE",
"627 119 CURVE SMOOTH",
"627 316 LINE",
"592 316 LINE"
);
}
);
};
layerId = "543F9737-16F7-428D-9F96-2EBD9FC8D3B6";
name = Light;
paths = (
{
closed = 1;
nodes = (
"434 -29 OFFCURVE",
"512 32 OFFCURVE",
"577 106 CURVE",
"577 134 LINE",
"506 60 OFFCURVE",
"418 5 OFFCURVE",
"336 5 CURVE SMOOTH",
"230 5 OFFCURVE",
"145 98 OFFCURVE",
"145 248 CURVE",
"145 407 OFFCURVE",
"254 488 OFFCURVE",
"347 488 CURVE",
"437 488 OFFCURVE",
"512 439 OFFCURVE",
"581 386 CURVE",
"581 414 LINE",
"514 471 OFFCURVE",
"452 522 OFFCURVE",
"347 522 CURVE",
"239 522 OFFCURVE",
"110 435 OFFCURVE",
"110 248 CURVE",
"110 66 OFFCURVE",
"210 -29 OFFCURVE",
"336 -29 CURVE SMOOTH"
);
},
{
closed = 1;
nodes = (
"717 -29 OFFCURVE",
"759 19 OFFCURVE",
"759 78 CURVE SMOOTH",
"759 105 LINE",
"727 105 LINE",
"727 78 LINE SMOOTH",
"727 34 OFFCURVE",
"706 5 OFFCURVE",
"660 5 CURVE SMOOTH",
"618 5 OFFCURVE",
"593 30 OFFCURVE",
"593 78 CURVE SMOOTH",
"593 700 LINE",
"558 700 LINE",
"558 78 LINE SMOOTH",
"558 15 OFFCURVE",
"595 -29 OFFCURVE",
"658 -29 CURVE SMOOTH"
);
},
{
closed = 1;
nodes = (
"593 665 LINE",
"593 700 LINE",
"390 700 LINE",
"390 665 LINE"
);
}
);
width = 792;
}
);
},
{
color = 4;
glyphname = e;
lastChange = "2015-07-19 23:21:38 +0000";
layers = (
{
background = {
paths = (
{
closed = 1;
nodes = (
"909 264 OFFCURVE",
"762 215 OFFCURVE",
"605 207 CURVE",
"455 199 OFFCURVE",
"281 226 OFFCURVE",
"123 258 CURVE",
"125 224 LINE",
"283 195 OFFCURVE",
"436 164 OFFCURVE",
"607 173 CURVE",
"783 182 OFFCURVE",
"946 239 OFFCURVE",
"939 358 CURVE",
"933 481 OFFCURVE",
"755 548 OFFCURVE",
"539 537 CURVE",
"338 527 OFFCURVE",
"100 439 OFFCURVE",
"100 234 CURVE",
"100 49 OFFCURVE",
"299 -39 OFFCURVE",
"518 -38 CURVE",
"694 -39 OFFCURVE",
"834 4 OFFCURVE",
"945 71 CURVE",
"945 111 LINE",
"832 40 OFFCURVE",
"697 -5 OFFCURVE",
"518 -4 CURVE",
"313 -5 OFFCURVE",
"135 79 OFFCURVE",
"135 234 CURVE",
"135 413 OFFCURVE",
"354 494 OFFCURVE",
"541 503 CURVE",
"743 513 OFFCURVE",
"900 447 OFFCURVE",
"904 364 CURVE"
);
}
);
};
layerId = "B29C398E-974A-40D0-A0A0-00935056D4B4";
name = "Light Extended";
paths = (
{
closed = 1;
nodes = (
"924 107 LINE",
"815 44 OFFCURVE",
"686 4 OFFCURVE",
"518 5 CURVE",
"334 4 OFFCURVE",
"135 88 OFFCURVE",
"135 239 CURVE",
"135 414 OFFCURVE",
"364 504 OFFCURVE",
"571 504 CURVE SMOOTH",
"758 504 OFFCURVE",
"904 463 OFFCURVE",
"904 369 CURVE SMOOTH",
"904 274 OFFCURVE",
"748 236 OFFCURVE",
"583 236 CURVE SMOOTH",
"443 236 OFFCURVE",
"255 268 OFFCURVE",
"127 310 CURVE",
"129 277 LINE",
"256 235 OFFCURVE",
"443 203 OFFCURVE",
"583 203 CURVE SMOOTH",
"769 203 OFFCURVE",
"939 255 OFFCURVE",
"939 371 CURVE SMOOTH",
"939 485 OFFCURVE",
"776 537 OFFCURVE",
"577 537 CURVE SMOOTH",
"348 537 OFFCURVE",
"100 439 OFFCURVE",
"100 239 CURVE",
"100 59 OFFCURVE",
"320 -29 OFFCURVE",
"518 -28 CURVE",
"691 -29 OFFCURVE",
"830 13 OFFCURVE",
"940 78 CURVE"
);
}
);
width = 1045;
},
{
layerId = "FA480B27-EBBD-4830-9868-98507D39050C";
name = Bold;
width = 600;
},
{
layerId = "543F9737-16F7-428D-9F96-2EBD9FC8D3B6";
name = Light;
width = 600;
}
);
unicode = 0065;
},
{
color = 4;
glyphname = f;
lastChange = "2015-07-19 18:38:28 +0000";
layers = (
{
background = {
paths = (
{
closed = 1;
nodes = (
"120 0 LINE",
"623 0 LINE",
"623 35 LINE",
"120 35 LINE"
);
},
{
closed = 1;
nodes = (
"309 0 LINE",
"344 0 LINE",
"344 611 LINE",
"344 735 OFFCURVE",
"414 800 OFFCURVE",
"552 800 CURVE SMOOTH",
"648 800 OFFCURVE",
"736 779 OFFCURVE",
"780 759 CURVE",
"780 641 LINE",
"815 641 LINE",
"815 783 LINE",
"750 811 OFFCURVE",
"660 835 OFFCURVE",
"554 835 CURVE SMOOTH",
"390 835 OFFCURVE",
"308 748 OFFCURVE",
"309 609 CURVE"
);
},
{
closed = 1;
nodes = (
"664 510 LINE",
"160 510 LINE",
"160 476 LINE",
"664 476 LINE"
);
}
);
};
layerId = "B29C398E-974A-40D0-A0A0-00935056D4B4";
name = "Light Extended";
paths = (
{
closed = 1;
nodes = (
"60 0 LINE",
"563 0 LINE",
"563 33 LINE",
"60 33 LINE"
);
},
{
closed = 1;
nodes = (
"249 0 LINE",
"284 0 LINE",
"284 611 LINE",
"284 736 OFFCURVE",
"344 801 OFFCURVE",
"482 801 CURVE SMOOTH",
"563 801 OFFCURVE",
"667 776 OFFCURVE",
"744 742 CURVE",
"755 775 LINE",
"676 807 OFFCURVE",
"575 835 OFFCURVE",
"484 835 CURVE SMOOTH",
"320 835 OFFCURVE",
"248 748 OFFCURVE",
"249 609 CURVE"
);
},
{
closed = 1;
nodes = (
"604 510 LINE",
"100 510 LINE",
"100 477 LINE",
"604 477 LINE"
);
}
);
width = 695;
},
{
layerId = "FA480B27-EBBD-4830-9868-98507D39050C";
name = Bold;
width = 600;
},
{
layerId = "543F9737-16F7-428D-9F96-2EBD9FC8D3B6";
name = Light;
width = 600;
}
);
unicode = 0066;
},
{
color = 4;
glyphname = f.alt;
lastChange = "2015-07-19 19:58:45 +0000";
layers = (
{
background = {
paths = (
{
closed = 1;
nodes = (
"69 510 LINE",
"69 475 LINE",
"473 475 LINE",
"473 510 LINE"
);
},
{
closed = 1;
nodes = (
"29 0 LINE",
"482 0 LINE",
"482 35 LINE",
"29 35 LINE"
);
},
{
closed = 1;
nodes = (
"138 594 OFFCURVE",
"218 582 OFFCURVE",
"218 544 CURVE",
"218 0 LINE",
"253 0 LINE",
"253 548 LINE",
"253 590 OFFCURVE",
"173 610 OFFCURVE",
"173 641 CURVE",
"173 755 OFFCURVE",
"238 800 OFFCURVE",
"336 800 CURVE SMOOTH",
"412 800 OFFCURVE",
"470 781 OFFCURVE",
"509 759 CURVE",
"509 641 LINE",
"544 641 LINE",
"544 783 LINE",
"484 813 OFFCURVE",
"424 835 OFFCURVE",
"338 835 CURVE SMOOTH",
"214 835 OFFCURVE",
"137 768 OFFCURVE",
"138 639 CURVE"
);
}
);
};
layerId = "B29C398E-974A-40D0-A0A0-00935056D4B4";
name = "Light Extended";
paths = (
{
closed = 1;
nodes = (
"150 598 OFFCURVE",
"202 543 OFFCURVE",
"248 497 CURVE",
"248 0 LINE",
"283 0 LINE",
"283 497 LINE",
"235 548 OFFCURVE",
"185 607 OFFCURVE",
"185 674 CURVE",
"185 751 OFFCURVE",
"260 802 OFFCURVE",
"375 802 CURVE SMOOTH",
"489 802 OFFCURVE",
"571 770 OFFCURVE",
"640 741 CURVE",
"654 773 LINE",
"576 805 OFFCURVE",
"488 835 OFFCURVE",
"377 835 CURVE SMOOTH",
"237 835 OFFCURVE",
"150 767 OFFCURVE",
"150 673 CURVE"
);
},
{
closed = 1;
nodes = (
"90 510 LINE",
"90 477 LINE",
"544 477 LINE",
"544 510 LINE"
);
},
{
closed = 1;
nodes = (
"50 0 LINE",
"553 0 LINE",
"553 33 LINE",
"50 33 LINE"
);
}
);
width = 624;
},
{
layerId = "FA480B27-EBBD-4830-9868-98507D39050C";
name = Bold;
width = 600;
},
{
layerId = "543F9737-16F7-428D-9F96-2EBD9FC8D3B6";
name = Light;
width = 600;
}
);
},
{
color = 4;
glyphname = g;
lastChange = "2015-07-19 17:49:10 +0000";
layers = (
{
guideLines = (
{
position = "{98, 313}";
}
);
layerId = "B29C398E-974A-40D0-A0A0-00935056D4B4";
name = "Light Extended";
paths = (
{
closed = 1;
nodes = (
"716 168 OFFCURVE",
"883 227 OFFCURVE",
"883 354 CURVE",
"883 482 OFFCURVE",
"716 538 OFFCURVE",
"522 538 CURVE",
"328 538 OFFCURVE",
"162 482 OFFCURVE",
"162 354 CURVE",
"162 227 OFFCURVE",
"328 166 OFFCURVE",
"522 168 CURVE"
);
},
{
closed = 1;
nodes = (
"346 200 OFFCURVE",
"197 253 OFFCURVE",
"197 354 CURVE",
"197 457 OFFCURVE",
"346 505 OFFCURVE",
"522 506 CURVE",
"699 506 OFFCURVE",
"848 457 OFFCURVE",
"848 354 CURVE",
"848 253 OFFCURVE",
"699 200 OFFCURVE",
"522 200 CURVE"
);
},
{
closed = 1;
nodes = (
"760 -242 OFFCURVE",
"970 -178 OFFCURVE",
"970 -49 CURVE SMOOTH",
"970 38 OFFCURVE",
"884 78 OFFCURVE",
"775 78 CURVE SMOOTH",
"669 78 OFFCURVE",
"434 32 OFFCURVE",
"324 32 CURVE SMOOTH",
"176 32 OFFCURVE",
"130 84 OFFCURVE",
"130 129 CURVE SMOOTH",
"130 189 OFFCURVE",
"195 221 OFFCURVE",
"245 239 CURVE",
"218 252 LINE",
"168 237 OFFCURVE",
"95 196 OFFCURVE",
"95 124 CURVE SMOOTH",
"95 74 OFFCURVE",
"138 0 OFFCURVE",
"321 0 CURVE SMOOTH",
"436 0 OFFCURVE",
"663 46 OFFCURVE",
"775 46 CURVE SMOOTH",
"870 46 OFFCURVE",
"935 19 OFFCURVE",
"935 -49 CURVE SMOOTH",
"935 -159 OFFCURVE",
"738 -210 OFFCURVE",
"482 -210 CURVE SMOOTH",
"222 -210 OFFCURVE",
"120 -148 OFFCURVE",
"120 -72 CURVE SMOOTH",
"120 -26 OFFCURVE",
"157 14 OFFCURVE",
"204 30 CURVE",
"178 43 LINE",
"140 29 OFFCURVE",
"85 -15 OFFCURVE",
"85 -76 CURVE SMOOTH",
"85 -170 OFFCURVE",
"201 -242 OFFCURVE",
"484 -242 CURVE SMOOTH"
);
},
{
closed = 1;
nodes = (
"967 651 LINE",
"874 647 OFFCURVE",
"799 587 OFFCURVE",
"778 478 CURVE",
"794 455 LINE",
"820 571 OFFCURVE",
"885 611 OFFCURVE",
"967 616 CURVE"
);
}
);
width = 1015;
},
{
layerId = "543F9737-16F7-428D-9F96-2EBD9FC8D3B6";
name = Light;
width = 600;
},
{
layerId = "FA480B27-EBBD-4830-9868-98507D39050C";
name = Bold;
width = 600;
}
);
unicode = 0067;
},
{
color = 4;
glyphname = g.alt;
lastChange = "2015-07-19 18:25:54 +0000";
layers = (
{
background = {
paths = (
{
closed = 1;
nodes = (
"786 -39 OFFCURVE",
"988 60 OFFCURVE",
"988 250 CURVE",
"988 446 OFFCURVE",
"786 538 OFFCURVE",
"531 538 CURVE",
"277 537 OFFCURVE",
"75 446 OFFCURVE",
"75 250 CURVE",
"75 60 OFFCURVE",
"277 -40 OFFCURVE",
"531 -39 CURVE"
);
},
{
closed = 1;
nodes = (
"771 504 OFFCURVE",
"953 421 OFFCURVE",
"953 250 CURVE",
"953 86 OFFCURVE",
"771 -5 OFFCURVE",
"531 -5 CURVE",
"292 -6 OFFCURVE",
"110 86 OFFCURVE",
"110 250 CURVE",
"110 421 OFFCURVE",
"292 503 OFFCURVE",
"531 504 CURVE"
);
}
);
};
layerId = "B29C398E-974A-40D0-A0A0-00935056D4B4";
name = "Light Extended";
paths = (
{
closed = 1;
nodes = (
"683 504 OFFCURVE",
"825 450 OFFCURVE",
"956 384 CURVE",
"961 418 LINE",
"833 484 OFFCURVE",
"692 537 OFFCURVE",
"527 536 CURVE",
"312 537 OFFCURVE",
"100 419 OFFCURVE",
"100 229 CURVE",
"100 69 OFFCURVE",
"236 -29 OFFCURVE",
"420 -29 CURVE",
"605 -29 OFFCURVE",
"800 73 OFFCURVE",
"965 192 CURVE",
"965 225 LINE",
"787 99 OFFCURVE",
"583 4 OFFCURVE",
"420 4 CURVE",
"250 4 OFFCURVE",
"135 98 OFFCURVE",
"135 229 CURVE",
"135 394 OFFCURVE",
"327 504 OFFCURVE",
"527 503 CURVE"
);
},
{
closed = 1;
nodes = (
"146 -204 LINE",
"251 -253 OFFCURVE",
"427 -300 OFFCURVE",
"585 -300 CURVE SMOOTH",
"846 -300 OFFCURVE",
"981 -173 OFFCURVE",
"980 26 CURVE",
"980 510 LINE",
"945 510 LINE",
"945 24 LINE",
"945 -152 OFFCURVE",
"822 -267 OFFCURVE",
"587 -267 CURVE SMOOTH",
"436 -267 OFFCURVE",
"261 -220 OFFCURVE",
"156 -172 CURVE"
);
}
);
width = 1135;
},
{
layerId = "FA480B27-EBBD-4830-9868-98507D39050C";
name = Bold;
width = 600;
},
{
layerId = "543F9737-16F7-428D-9F96-2EBD9FC8D3B6";
name = Light;
width = 600;
}
);
},
{
color = 4;
glyphname = h;
lastChange = "2015-07-19 23:44:52 +0000";
layers = (
{
layerId = "B29C398E-974A-40D0-A0A0-00935056D4B4";
rightMetricsKey = "=n";
name = "Light Extended";
paths = (
{
closed = 1;
nodes = (
"271 0 LINE",
"306 0 LINE",
"306 800 LINE",
"271 800 LINE"
);
},
{
closed = 1;
nodes = (
"10 800 LINE",
"10 767 LINE",
"306 767 LINE",
"306 800 LINE"
);
},
{
closed = 1;
nodes = (
"42 0 LINE",
"567 0 LINE",
"567 33 LINE",
"42 33 LINE"
);
},
{
closed = 1;
nodes = (
"554 539 OFFCURVE",
"378 390 OFFCURVE",
"287 316 CURVE",
"287 283 LINE",
"378 356 OFFCURVE",
"554 506 OFFCURVE",
"748 506 CURVE SMOOTH",
"957 506 OFFCURVE",
"1007 353 OFFCURVE",
"1007 207 CURVE",
"1007 0 LINE",
"1042 0 LINE",
"1042 207 LINE",
"1042 382 OFFCURVE",
"971 539 OFFCURVE",
"748 539 CURVE SMOOTH"
);
},
{
closed = 1;
nodes = (
"746 33 LINE",
"746 0 LINE",
"1271 0 LINE",
"1271 33 LINE"
);
}
);
width = 1271;
},
{
layerId = "543F9737-16F7-428D-9F96-2EBD9FC8D3B6";
name = Light;
width = 600;
},
{
layerId = "FA480B27-EBBD-4830-9868-98507D39050C";
name = Bold;
width = 600;
}
);
rightMetricsKey = "=n";
unicode = 0068;
},
{
color = 4;
glyphname = i;
lastChange = "2015-07-19 19:01:02 +0000";
layers = (
{
layerId = "B29C398E-974A-40D0-A0A0-00935056D4B4";
leftMetricsKey = "=n";
name = "Light Extended";
paths = (
{
closed = 1;
nodes = (
"341 0 LINE",
"376 0 LINE",
"376 510 LINE",
"341 510 LINE"
);
},
{
closed = 1;
nodes = (
"80 33 LINE",
"80 0 LINE",
"605 0 LINE",
"605 33 LINE"
);
},
{
closed = 1;
nodes = (
"80 510 LINE",
"80 477 LINE",
"376 477 LINE",
"376 510 LINE"
);
},
{
closed = 1;
nodes = (
"300 757 OFFCURVE",
"275 739 OFFCURVE",
"275 713 CURVE",
"275 688 OFFCURVE",
"300 670 OFFCURVE",
"343 670 CURVE",
"387 670 OFFCURVE",
"410 688 OFFCURVE",
"410 713 CURVE",
"410 739 OFFCURVE",
"387 757 OFFCURVE",
"343 757 CURVE"
);
}
);
width = 610;
},
{
layerId = "FA480B27-EBBD-4830-9868-98507D39050C";
name = Bold;
width = 600;
},
{
layerId = "543F9737-16F7-428D-9F96-2EBD9FC8D3B6";
name = Light;
width = 600;
}
);
leftMetricsKey = "=n";
unicode = 0069;
},
{
color = 4;
glyphname = j;
lastChange = "2015-07-19 17:50:05 +0000";
layers = (
{
layerId = "B29C398E-974A-40D0-A0A0-00935056D4B4";
name = "Light Extended";
paths = (
{
closed = 1;
nodes = (
"-50 -264 LINE",
"10 -283 OFFCURVE",
"75 -300 OFFCURVE",
"150 -300 CURVE SMOOTH",
"270 -300 OFFCURVE",
"357 -213 OFFCURVE",
"356 -74 CURVE",
"356 492 LINE",
"321 492 LINE",
"321 -76 LINE",
"321 -202 OFFCURVE",
"246 -267 OFFCURVE",
"152 -267 CURVE SMOOTH",
"84 -267 OFFCURVE",
"20 -251 OFFCURVE",
"-40 -233 CURVE"
);
},
{
closed = 1;
nodes = (
"61 510 LINE",
"61 477 LINE",
"356 477 LINE",
"356 510 LINE"
);
},
{
closed = 1;
nodes = (
"281 757 OFFCURVE",
"256 739 OFFCURVE",
"256 713 CURVE",
"256 688 OFFCURVE",
"281 670 OFFCURVE",
"324 670 CURVE",
"368 670 OFFCURVE",
"391 688 OFFCURVE",
"391 713 CURVE",
"391 739 OFFCURVE",
"368 757 OFFCURVE",
"324 757 CURVE"
);
}
);
width = 546;
},
{
layerId = "FA480B27-EBBD-4830-9868-98507D39050C";
name = Bold;
width = 600;
},
{
layerId = "543F9737-16F7-428D-9F96-2EBD9FC8D3B6";
name = Light;
width = 600;
}
);
unicode = 006A;
},
{
color = 4;
glyphname = k;
lastChange = "2015-07-19 23:26:46 +0000";
layers = (
{
background = {
paths = (
{
closed = 1;
nodes = (
"271 0 LINE",
"306 0 LINE",
"306 800 LINE",
"271 800 LINE"
);
},
{
closed = 1;
nodes = (
"10 800 LINE",
"10 765 LINE",
"306 765 LINE",
"306 800 LINE"
);
},
{
closed = 1;
nodes = (
"42 0 LINE",
"567 0 LINE",
"567 35 LINE",
"42 35 LINE"
);
},
{
closed = 1;
nodes = (
"347 236 OFFCURVE",
"510 218 OFFCURVE",
"642 218 CURVE SMOOTH",
"834 218 OFFCURVE",
"991 273 OFFCURVE",
"991 372 CURVE SMOOTH",
"991 458 OFFCURVE",
"918 505 OFFCURVE",
"782 505 CURVE",
"614 505 OFFCURVE",
"447 418 OFFCURVE",
"285 303 CURVE",
"285 345 LINE",
"444 458 OFFCURVE",
"594 537 OFFCURVE",
"782 537 CURVE",
"945 537 OFFCURVE",
"1026 471 OFFCURVE",
"1026 373 CURVE SMOOTH",
"1026 256 OFFCURVE",
"869 185 OFFCURVE",
"637 185 CURVE SMOOTH",
"490 185 OFFCURVE",
"347 209 OFFCURVE",
"282 221 CURVE",
"284 247 LINE"
);
},
{
closed = 0;
nodes = (
"852 141 LINE",
"766 266 OFFCURVE",
"705 333 OFFCURVE",
"544 333 CURVE SMOOTH",
"429 333 LINE",
"429 298 LINE",
"566 298 LINE SMOOTH",
"695 298 OFFCURVE",
"749 220 OFFCURVE",
"819 118 CURVE"
);
},
{
closed = 0;
nodes = (
"818 140 LINE",
"818 46 OFFCURVE",
"886 -23 OFFCURVE",
"976 -23 CURVE SMOOTH",
"1105 -23 OFFCURVE",
"1144 90 OFFCURVE",
"1144 166 CURVE",
"1109 166 LINE",
"1109 86 OFFCURVE",
"1070 11 OFFCURVE",
"978 11 CURVE SMOOTH",
"913 11 OFFCURVE",
"853 61 OFFCURVE",
"853 140 CURVE"
);
}
);
};
layerId = "B29C398E-974A-40D0-A0A0-00935056D4B4";
leftMetricsKey = "=h";
name = "Light Extended";
paths = (
{
closed = 1;
nodes = (
"271 0 LINE",
"306 0 LINE",
"306 800 LINE",
"271 800 LINE"
);
},
{
closed = 1;
nodes = (
"10 800 LINE",
"10 767 LINE",
"306 767 LINE",
"306 800 LINE"
);
},
{
closed = 1;
nodes = (
"42 0 LINE",
"567 0 LINE",
"567 33 LINE",
"42 33 LINE"
);
},
{
closed = 1;
nodes = (
"282 241 LINE",
"347 229 OFFCURVE",
"490 204 OFFCURVE",
"637 204 CURVE SMOOTH",
"889 204 OFFCURVE",
"1046 271 OFFCURVE",
"1046 388 CURVE SMOOTH",
"1046 481 OFFCURVE",
"959 537 OFFCURVE",
"792 537 CURVE SMOOTH",
"632 537 OFFCURVE",
"451 457 OFFCURVE",
"285 345 CURVE",
"285 316 LINE",
"451 424 OFFCURVE",
"627 504 OFFCURVE",
"787 504 CURVE SMOOTH",
"927 504 OFFCURVE",
"1011 466 OFFCURVE",
"1011 387 CURVE SMOOTH",
"1011 287 OFFCURVE",
"859 237 OFFCURVE",
"642 237 CURVE SMOOTH",
"510 237 OFFCURVE",
"347 255 OFFCURVE",
"284 266 CURVE"
);
},
{
closed = 1;
nodes = (
"1120 148 LINE",
"1104 50 OFFCURVE",
"1029 5 OFFCURVE",
"945 5 CURVE SMOOTH",
"829 5 OFFCURVE",
"759 79 OFFCURVE",
"654 216 CURVE",
"618 215 LINE",
"710 81 OFFCURVE",
"813 -28 OFFCURVE",
"943 -28 CURVE SMOOTH",
"1057 -28 OFFCURVE",
"1133 45 OFFCURVE",
"1151 141 CURVE"
);
}
);
width = 1201;
},
{
layerId = "FA480B27-EBBD-4830-9868-98507D39050C";
name = Bold;
width = 600;
},
{
layerId = "543F9737-16F7-428D-9F96-2EBD9FC8D3B6";
name = Light;
width = 600;
}
);
leftMetricsKey = "=h";
unicode = 006B;
},
{
color = 4;
glyphname = l;
lastChange = "2015-07-19 18:58:45 +0000";
layers = (
{
layerId = "B29C398E-974A-40D0-A0A0-00935056D4B4";
leftMetricsKey = "=h";
name = "Light Extended";
paths = (
{
closed = 1;
nodes = (
"239 0 LINE",
"274 0 LINE",
"274 800 LINE",
"239 800 LINE"
);
},
{
closed = 1;
nodes = (
"10 800 LINE",
"10 767 LINE",
"274 767 LINE",
"274 800 LINE"
);
},
{
closed = 1;
nodes = (
"10 0 LINE",
"503 0 LINE",
"503 33 LINE",
"10 33 LINE"
);
}
);
width = 508;
},
{
layerId = "FA480B27-EBBD-4830-9868-98507D39050C";
name = Bold;
width = 600;
},
{
layerId = "543F9737-16F7-428D-9F96-2EBD9FC8D3B6";
name = Light;
width = 600;
}
);
leftMetricsKey = "=h";
unicode = 006C;
},
{
color = 4;
glyphname = m;
lastChange = "2015-07-19 23:44:57 +0000";
layers = (
{
layerId = "B29C398E-974A-40D0-A0A0-00935056D4B4";
leftMetricsKey = "=n";
rightMetricsKey = "=n";
name = "Light Extended";
paths = (
{
closed = 1;
nodes = (
"341 0 LINE",
"376 0 LINE",
"376 510 LINE",
"341 510 LINE"
);
},
{
closed = 1;
nodes = (
"80 33 LINE",
"80 0 LINE",
"605 0 LINE",
"605 33 LINE"
);
},
{
closed = 1;
nodes = (
"80 510 LINE",
"80 477 LINE",
"376 477 LINE",
"376 510 LINE"
);
},
{
closed = 1;
nodes = (
"558 539 OFFCURVE",
"435 428 OFFCURVE",
"357 316 CURVE",
"357 283 LINE",
"455 399 OFFCURVE",
"558 506 OFFCURVE",
"713 506 CURVE SMOOTH",
"882 506 OFFCURVE",
"917 383 OFFCURVE",
"917 237 CURVE",
"917 0 LINE",
"952 0 LINE",
"952 237 LINE",
"952 412 OFFCURVE",
"896 539 OFFCURVE",
"713 539 CURVE SMOOTH"
);
},
{
closed = 1;
nodes = (
"706 33 LINE",
"706 0 LINE",
"1181 0 LINE",
"1181 33 LINE"
);
},
{
closed = 1;
nodes = (
"706 34 LINE",
"706 0 LINE",
"1181 0 LINE",
"1181 34 LINE"
);
},
{
closed = 1;
nodes = (
"1134 539 OFFCURVE",
"1011 428 OFFCURVE",
"933 316 CURVE",
"933 283 LINE",
"1031 399 OFFCURVE",
"1134 506 OFFCURVE",
"1289 506 CURVE SMOOTH",
"1458 506 OFFCURVE",
"1493 383 OFFCURVE",
"1493 237 CURVE",
"1493 0 LINE",
"1528 0 LINE",
"1528 237 LINE",
"1528 412 OFFCURVE",
"1472 539 OFFCURVE",
"1289 539 CURVE SMOOTH"
);
},
{
closed = 1;
nodes = (
"1282 33 LINE",
"1282 0 LINE",
"1757 0 LINE",
"1757 33 LINE"
);
},
{
closed = 1;
nodes = (
"1282 34 LINE",
"1282 0 LINE",
"1757 0 LINE",
"1757 34 LINE"
);
}
);
width = 1757;
},
{
layerId = "FA480B27-EBBD-4830-9868-98507D39050C";
name = Bold;
width = 600;
},
{
layerId = "543F9737-16F7-428D-9F96-2EBD9FC8D3B6";
name = Light;
width = 600;
}
);
leftMetricsKey = "=n";
rightMetricsKey = "=n";
unicode = 006D;
},
{
color = 4;
glyphname = n;
lastChange = "2015-07-19 23:44:21 +0000";
layers = (
{
layerId = "B29C398E-974A-40D0-A0A0-00935056D4B4";
name = "Light Extended";
paths = (
{
closed = 1;
nodes = (
"341 0 LINE",
"376 0 LINE",
"376 510 LINE",
"341 510 LINE"
);
},
{
closed = 1;
nodes = (
"80 33 LINE",
"80 0 LINE",
"605 0 LINE",
"605 33 LINE"
);
},
{
closed = 1;
nodes = (
"80 510 LINE",
"80 477 LINE",
"376 477 LINE",
"376 510 LINE"
);
},
{
closed = 1;
nodes = (
"624 539 OFFCURVE",
"448 390 OFFCURVE",
"357 316 CURVE",
"357 283 LINE",
"448 356 OFFCURVE",
"624 506 OFFCURVE",
"818 506 CURVE SMOOTH",
"1027 506 OFFCURVE",
"1077 353 OFFCURVE",
"1077 207 CURVE",
"1077 0 LINE",
"1112 0 LINE",
"1112 207 LINE",
"1112 382 OFFCURVE",
"1041 539 OFFCURVE",
"818 539 CURVE SMOOTH"
);
},
{
closed = 1;
nodes = (
"816 33 LINE",
"816 0 LINE",
"1341 0 LINE",
"1341 33 LINE"
);
}
);
width = 1341;
},
{
layerId = "543F9737-16F7-428D-9F96-2EBD9FC8D3B6";
name = Light;
paths = (
{
closed = 1;
nodes = (
"211 0 LINE",
"246 0 LINE",
"246 511 LINE",
"211 511 LINE"
);
},
{
closed = 1;
nodes = (
"80 35 LINE",
"80 0 LINE",
"355 0 LINE",
"355 35 LINE"
);
},
{
closed = 1;
nodes = (
"80 511 LINE",
"80 476 LINE",
"246 476 LINE",
"246 511 LINE"
);
},
{
closed = 1;
nodes = (
"409 524 OFFCURVE",
"323 436 OFFCURVE",
"227 312 CURVE",
"227 276 LINE",
"326 398 OFFCURVE",
"414 490 OFFCURVE",
"513 490 CURVE SMOOTH",
"601 490 OFFCURVE",
"647 433 OFFCURVE",
"647 333 CURVE SMOOTH",
"647 0 LINE",
"682 0 LINE",
"682 333 LINE SMOOTH",
"682 463 OFFCURVE",
"620 524 OFFCURVE",
"518 524 CURVE SMOOTH"
);
},
{
closed = 1;
nodes = (
"536 35 LINE",
"536 0 LINE",
"801 0 LINE",
"801 35 LINE"
);
}
);
width = 846;
},
{
layerId = "FA480B27-EBBD-4830-9868-98507D39050C";
name = Bold;
paths = (
{
closed = 1;
nodes = (
"150 0 LINE",
"305 0 LINE",
"305 510 LINE",
"150 510 LINE"
);
},
{
closed = 1;
nodes = (
"50 105 LINE",
"50 0 LINE",
"385 0 LINE",
"385 105 LINE"
);
},
{
closed = 1;
nodes = (
"50 510 LINE",
"50 405 LINE",
"296 405 LINE",
"296 510 LINE"
);
},
{
closed = 1;
nodes = (
"434 537 OFFCURVE",
"345 472 OFFCURVE",
"247 346 CURVE",
"247 205 LINE",
"325 308 OFFCURVE",
"419 397 OFFCURVE",
"493 397 CURVE SMOOTH",
"553 397 OFFCURVE",
"582 359 OFFCURVE",
"582 294 CURVE SMOOTH",
"582 0 LINE",
"737 0 LINE",
"737 295 LINE SMOOTH",
"737 455 OFFCURVE",
"676 537 OFFCURVE",
"544 537 CURVE SMOOTH"
);
},
{
closed = 1;
nodes = (
"506 105 LINE",
"506 0 LINE",
"831 0 LINE",
"831 105 LINE"
);
}
);
width = 846;
}
);
unicode = 006E;
},
{
color = 4;
glyphname = o;
lastChange = "2015-07-19 23:22:06 +0000";
layers = (
{
layerId = "B29C398E-974A-40D0-A0A0-00935056D4B4";
name = "Light Extended";
paths = (
{
closed = 1;
nodes = (
"811 -28 OFFCURVE",
"1013 71 OFFCURVE",
"1013 255 CURVE",
"1013 446 OFFCURVE",
"811 538 OFFCURVE",
"556 538 CURVE",
"302 537 OFFCURVE",
"100 446 OFFCURVE",
"100 255 CURVE",
"100 71 OFFCURVE",
"302 -28 OFFCURVE",
"556 -28 CURVE SMOOTH"
);
},
{
closed = 1;
nodes = (
"317 5 OFFCURVE",
"135 96 OFFCURVE",
"135 255 CURVE",
"135 422 OFFCURVE",
"317 504 OFFCURVE",
"556 505 CURVE",
"796 505 OFFCURVE",
"978 422 OFFCURVE",
"978 255 CURVE",
"978 96 OFFCURVE",
"796 5 OFFCURVE",
"556 5 CURVE SMOOTH"
);
}
);
width = 1113;
},
{
guideLines = (
{
position = "{371, 538}";
}
);
layerId = "543F9737-16F7-428D-9F96-2EBD9FC8D3B6";
name = Light;
paths = (
{
closed = 1;
nodes = (
"519 -37 OFFCURVE",
"645 74 OFFCURVE",
"645 250 CURVE",
"645 426 OFFCURVE",
"519 537 OFFCURVE",
"369 538 CURVE",
"219 537 OFFCURVE",
"93 426 OFFCURVE",
"93 250 CURVE",
"93 74 OFFCURVE",
"219 -37 OFFCURVE",
"369 -38 CURVE"
);
},
{
closed = 1;
nodes = (
"230 -5 OFFCURVE",
"128 97 OFFCURVE",
"128 250 CURVE",
"128 403 OFFCURVE",
"230 505 OFFCURVE",
"369 506 CURVE",
"508 505 OFFCURVE",
"610 403 OFFCURVE",
"610 250 CURVE",
"610 97 OFFCURVE",
"508 -5 OFFCURVE",
"369 -6 CURVE"
);
}
);
width = 734;
},
{
layerId = "FA480B27-EBBD-4830-9868-98507D39050C";
name = Bold;
paths = (
{
closed = 1;
nodes = (
"547 -39 OFFCURVE",
"694 60 OFFCURVE",
"694 250 CURVE",
"694 440 OFFCURVE",
"537 539 OFFCURVE",
"367 539 CURVE",
"197 539 OFFCURVE",
"40 440 OFFCURVE",
"40 250 CURVE",
"40 60 OFFCURVE",
"197 -39 OFFCURVE",
"367 -39 CURVE"
);
},
{
closed = 1;
nodes = (
"282 76 OFFCURVE",
"205 142 OFFCURVE",
"205 250 CURVE",
"205 358 OFFCURVE",
"282 424 OFFCURVE",
"367 424 CURVE",
"453 424 OFFCURVE",
"529 358 OFFCURVE",
"529 250 CURVE",
"529 142 OFFCURVE",
"453 76 OFFCURVE",
"367 76 CURVE"
);
}
);
width = 734;
}
);
unicode = 006F;
},
{
color = 3;
glyphname = p;
lastChange = "2015-07-19 23:27:19 +0000";
layers = (
{
background = {
paths = (
{
closed = 1;
nodes = (
"271 -200 LINE",
"306 -200 LINE",
"306 510 LINE",
"271 510 LINE"
);
},
{
closed = 1;
nodes = (
"10 -165 LINE",
"10 -200 LINE",
"535 -200 LINE",
"535 -165 LINE"
);
},
{
closed = 1;
nodes = (
"10 510 LINE",
"10 475 LINE",
"306 475 LINE",
"306 510 LINE"
);
},
{
closed = 0;
nodes = (
"1177 207 LINE",
"1177 387 OFFCURVE",
"1086 537 OFFCURVE",
"832 537 CURVE",
"647 537 OFFCURVE",
"452 435 OFFCURVE",
"287 316 CURVE",
"287 282 LINE",
"465 408 OFFCURVE",
"669 503 OFFCURVE",
"832 503 CURVE",
"1072 503 OFFCURVE",
"1142 357 OFFCURVE",
"1142 207 CURVE"
);
},
{
closed = 0;
nodes = (
"190 250 LINE",
"190 60 OFFCURVE",
"415 -39 OFFCURVE",
"681 -39 CURVE",
"948 -39 OFFCURVE",
"1173 60 OFFCURVE",
"1173 250 CURVE"
);
},
{
closed = 0;
nodes = (
"1138 250 LINE",
"1138 86 OFFCURVE",
"933 -5 OFFCURVE",
"681 -5 CURVE",
"430 -5 OFFCURVE",
"225 86 OFFCURVE",
"225 250 CURVE"
);
}
);
};
layerId = "B29C398E-974A-40D0-A0A0-00935056D4B4";
leftMetricsKey = "=h";
name = "Light Extended";
paths = (
{
closed = 1;
nodes = (
"271 -235 LINE",
"306 -235 LINE",
"306 510 LINE",
"271 510 LINE"
);
},
{
closed = 1;
nodes = (
"10 510 LINE",
"10 477 LINE",
"306 477 LINE",
"306 510 LINE"
);
},
{
closed = 1;
nodes = (
"386 31 OFFCURVE",
"535 -29 OFFCURVE",
"720 -28 CURVE",
"938 -29 OFFCURVE",
"1152 79 OFFCURVE",
"1152 274 CURVE",
"1152 439 OFFCURVE",
"1016 537 OFFCURVE",
"812 537 CURVE",
"627 537 OFFCURVE",
"452 445 OFFCURVE",
"287 326 CURVE",
"287 293 LINE",
"465 419 OFFCURVE",
"649 504 OFFCURVE",
"812 504 CURVE",
"1002 504 OFFCURVE",
"1117 410 OFFCURVE",
"1117 274 CURVE",
"1117 104 OFFCURVE",
"923 4 OFFCURVE",
"720 5 CURVE",
"550 4 OFFCURVE",
"388 65 OFFCURVE",
"283 123 CURVE",
"283 90 LINE"
);
},
{
closed = 1;
nodes = (
"42 -235 LINE",
"567 -235 LINE",
"567 -202 LINE",
"42 -202 LINE"
);
}
);
width = 1252;
},
{
layerId = "FA480B27-EBBD-4830-9868-98507D39050C";
name = Bold;
width = 600;
},
{
layerId = "543F9737-16F7-428D-9F96-2EBD9FC8D3B6";
name = Light;
width = 600;
}
);
leftMetricsKey = "=h";
unicode = 0070;
},
{
color = 3;
glyphname = q;
lastChange = "2015-07-19 23:27:27 +0000";
layers = (
{
background = {
paths = (
{
closed = 1;
nodes = (
"988 767 LINE",
"988 800 LINE",
"705 800 LINE",
"705 767 LINE"
);
},
{
closed = 1;
nodes = (
"966 41 OFFCURVE",
"1004 -28 OFFCURVE",
"1094 -28 CURVE SMOOTH",
"1190 -28 OFFCURVE",
"1222 55 OFFCURVE",
"1222 125 CURVE SMOOTH",
"1222 146 LINE",
"1187 146 LINE",
"1187 125 LINE SMOOTH",
"1187 55 OFFCURVE",
"1156 5 OFFCURVE",
"1096 5 CURVE SMOOTH",
"1031 5 OFFCURVE",
"1001 55 OFFCURVE",
"1001 140 CURVE SMOOTH",
"1001 800 LINE",
"966 800 LINE",
"966 140 LINE SMOOTH"
);
},
{
closed = 1;
nodes = (
"886 477 OFFCURVE",
"737 537 OFFCURVE",
"552 536 CURVE",
"334 537 OFFCURVE",
"120 419 OFFCURVE",
"120 224 CURVE",
"120 59 OFFCURVE",
"256 -39 OFFCURVE",
"460 -39 CURVE",
"645 -39 OFFCURVE",
"820 63 OFFCURVE",
"985 182 CURVE",
"985 215 LINE",
"807 89 OFFCURVE",
"623 -6 OFFCURVE",
"460 -6 CURVE",
"270 -6 OFFCURVE",
"155 88 OFFCURVE",
"155 224 CURVE",
"155 394 OFFCURVE",
"349 504 OFFCURVE",
"552 503 CURVE",
"722 504 OFFCURVE",
"884 443 OFFCURVE",
"989 385 CURVE",
"989 418 LINE"
);
},
{
closed = 1;
nodes = (
"988 767 LINE",
"988 800 LINE",
"705 800 LINE",
"705 767 LINE"
);
},
{
closed = 1;
nodes = (
"966 41 OFFCURVE",
"1004 -28 OFFCURVE",
"1094 -28 CURVE SMOOTH",
"1190 -28 OFFCURVE",
"1222 55 OFFCURVE",
"1222 125 CURVE SMOOTH",
"1222 146 LINE",
"1187 146 LINE",
"1187 125 LINE SMOOTH",
"1187 55 OFFCURVE",
"1156 5 OFFCURVE",
"1096 5 CURVE SMOOTH",
"1031 5 OFFCURVE",
"1001 55 OFFCURVE",
"1001 140 CURVE SMOOTH",
"1001 800 LINE",
"966 800 LINE",
"966 140 LINE SMOOTH"
);
},
{
closed = 1;
nodes = (
"886 477 OFFCURVE",
"737 537 OFFCURVE",
"552 536 CURVE",
"334 537 OFFCURVE",
"120 419 OFFCURVE",
"120 224 CURVE",
"120 59 OFFCURVE",
"256 -39 OFFCURVE",
"460 -39 CURVE",
"645 -39 OFFCURVE",
"820 63 OFFCURVE",
"985 182 CURVE",
"985 215 LINE",
"807 89 OFFCURVE",
"623 -6 OFFCURVE",
"460 -6 CURVE",
"270 -6 OFFCURVE",
"155 88 OFFCURVE",
"155 224 CURVE",
"155 394 OFFCURVE",
"349 504 OFFCURVE",
"552 503 CURVE",
"722 504 OFFCURVE",
"884 443 OFFCURVE",
"989 385 CURVE",
"989 418 LINE"
);
}
);
};
layerId = "B29C398E-974A-40D0-A0A0-00935056D4B4";
name = "Light Extended";
paths = (
{
closed = 1;
nodes = (
"965 536 LINE",
"965 -235 LINE",
"1000 -235 LINE",
"1000 536 LINE"
);
},
{
closed = 1;
nodes = (
"704 -202 LINE",
"704 -235 LINE",
"1229 -235 LINE",
"1229 -202 LINE"
);
},
{
closed = 1;
nodes = (
"772 504 OFFCURVE",
"1004 422 OFFCURVE",
"1189 334 CURVE",
"1189 368 LINE",
"1006 457 OFFCURVE",
"787 537 OFFCURVE",
"567 536 CURVE",
"332 537 OFFCURVE",
"120 429 OFFCURVE",
"120 234 CURVE",
"120 69 OFFCURVE",
"256 -29 OFFCURVE",
"460 -29 CURVE",
"645 -29 OFFCURVE",
"820 63 OFFCURVE",
"985 182 CURVE",
"985 215 LINE",
"807 89 OFFCURVE",
"623 4 OFFCURVE",
"460 4 CURVE",
"270 4 OFFCURVE",
"155 98 OFFCURVE",
"155 234 CURVE",
"155 404 OFFCURVE",
"347 504 OFFCURVE",
"567 503 CURVE"
);
}
);
width = 1239;
},
{
layerId = "FA480B27-EBBD-4830-9868-98507D39050C";
name = Bold;
width = 600;
},
{
layerId = "543F9737-16F7-428D-9F96-2EBD9FC8D3B6";
name = Light;
width = 600;
}
);
unicode = 0071;
},
{
color = 4;
glyphname = r;
lastChange = "2015-07-19 19:01:34 +0000";
layers = (
{
layerId = "B29C398E-974A-40D0-A0A0-00935056D4B4";
leftMetricsKey = "=n";
name = "Light Extended";
paths = (
{
closed = 1;
nodes = (
"697 537 OFFCURVE",
"532 450 OFFCURVE",
"357 316 CURVE",
"357 283 LINE",
"545 424 OFFCURVE",
"719 504 OFFCURVE",
"902 504 CURVE",
"902 317 LINE",
"937 317 LINE",
"937 536 LINE",
"902 537 LINE"
);
},
{
closed = 1;
nodes = (
"341 0 LINE",
"376 0 LINE",
"376 510 LINE",
"341 510 LINE"
);
},
{
closed = 1;
nodes = (
"80 33 LINE",
"80 0 LINE",
"605 0 LINE",
"605 33 LINE"
);
},
{
closed = 1;
nodes = (
"80 510 LINE",
"80 477 LINE",
"376 477 LINE",
"376 510 LINE"
);
}
);
width = 1027;
},
{
layerId = "FA480B27-EBBD-4830-9868-98507D39050C";
name = Bold;
width = 600;
},
{
layerId = "543F9737-16F7-428D-9F96-2EBD9FC8D3B6";
name = Light;
width = 600;
}
);
leftMetricsKey = "=n";
unicode = 0072;
},
{
color = 9;
glyphname = s;
lastChange = "2015-07-19 23:27:50 +0000";
layers = (
{
background = {
paths = (
{
closed = 0;
nodes = (
"483 225 LINE",
"311 254 OFFCURVE",
"177 276 OFFCURVE",
"177 380 CURVE SMOOTH",
"177 491 OFFCURVE",
"323 536 OFFCURVE",
"499 536 CURVE",
"617 537 OFFCURVE",
"715 522 OFFCURVE",
"827 491 CURVE",
"827 340 LINE",
"792 340 LINE",
"792 465 LINE",
"713 484 OFFCURVE",
"609 502 OFFCURVE",
"489 503 CURVE",
"347 502 OFFCURVE",
"213 474 OFFCURVE",
"213 380 CURVE SMOOTH",
"213 309 OFFCURVE",
"321 289 OFFCURVE",
"484 261 CURVE"
);
},
{
closed = 0;
nodes = (
"495 -34 LINE",
"369 -34 OFFCURVE",
"211 -3 OFFCURVE",
"144 61 CURVE",
"160 94 LINE",
"220 35 OFFCURVE",
"353 0 OFFCURVE",
"499 -4 CURVE"
);
},
{
closed = 0;
nodes = (
"530 -33 LINE",
"706 -33 OFFCURVE",
"852 12 OFFCURVE",
"852 123 CURVE SMOOTH",
"852 227 OFFCURVE",
"718 249 OFFCURVE",
"546 278 CURVE"
);
},
{
closed = 0;
nodes = (
"545 242 LINE",
"708 214 OFFCURVE",
"816 194 OFFCURVE",
"816 123 CURVE SMOOTH",
"816 29 OFFCURVE",
"682 1 OFFCURVE",
"540 0 CURVE"
);
}
);
};
layerId = "B29C398E-974A-40D0-A0A0-00935056D4B4";
name = "Light Extended";
paths = (
{
closed = 1;
nodes = (
"816 196 OFFCURVE",
"718 217 OFFCURVE",
"478 233 CURVE SMOOTH",
"238 249 OFFCURVE",
"127 291 OFFCURVE",
"127 388 CURVE SMOOTH",
"127 474 OFFCURVE",
"222 538 OFFCURVE",
"416 538 CURVE",
"591 538 OFFCURVE",
"752 476 OFFCURVE",
"822 386 CURVE",
"793 396 LINE",
"793 537 LINE",
"827 537 LINE",
"827 343 LINE",
"723 466 OFFCURVE",
"552 507 OFFCURVE",
"409 507 CURVE",
"270 507 OFFCURVE",
"162 462 OFFCURVE",
"162 390 CURVE SMOOTH",
"162 317 OFFCURVE",
"252 284 OFFCURVE",
"479 269 CURVE SMOOTH",
"729 252 OFFCURVE",
"850 225 OFFCURVE",
"850 116 CURVE",
"850 20 OFFCURVE",
"720 -28 OFFCURVE",
"528 -28 CURVE",
"353 -28 OFFCURVE",
"182 33 OFFCURVE",
"122 123 CURVE",
"151 113 LINE",
"151 -28 LINE",
"117 -28 LINE",
"117 166 LINE",
"211 43 OFFCURVE",
"392 3 OFFCURVE",
"535 3 CURVE",
"672 3 OFFCURVE",
"816 32 OFFCURVE",
"816 114 CURVE"
);
}
);
width = 975;
},
{
layerId = "FA480B27-EBBD-4830-9868-98507D39050C";
name = Bold;
paths = (
{
closed = 1;
nodes = (
"451 -30 OFFCURVE",
"584 26 OFFCURVE",
"584 139 CURVE SMOOTH",
"584 245 OFFCURVE",
"485 281 OFFCURVE",
"383 311 CURVE SMOOTH",
"287 339 OFFCURVE",
"237 347 OFFCURVE",
"237 375 CURVE SMOOTH",
"237 402 OFFCURVE",
"264 409 OFFCURVE",
"308 409 CURVE SMOOTH",
"365 409 OFFCURVE",
"463 392 OFFCURVE",
"548 351 CURVE",
"548 485 LINE",
"463 520 OFFCURVE",
"384 536 OFFCURVE",
"293 537 CURVE",
"160 537 OFFCURVE",
"50 480 OFFCURVE",
"50 367 CURVE SMOOTH",
"50 261 OFFCURVE",
"143 215 OFFCURVE",
"256 183 CURVE SMOOTH",
"344 158 OFFCURVE",
"397 154 OFFCURVE",
"397 126 CURVE SMOOTH",
"397 99 OFFCURVE",
"357 96 OFFCURVE",
"307 96 CURVE SMOOTH",
"255 96 OFFCURVE",
"144 119 OFFCURVE",
"51 170 CURVE",
"51 31 LINE",
"141 -14 OFFCURVE",
"226 -30 OFFCURVE",
"330 -30 CURVE SMOOTH"
);
}
);
width = 619;
},
{
layerId = "543F9737-16F7-428D-9F96-2EBD9FC8D3B6";
name = Light;
paths = (
{
closed = 1;
nodes = (
"426 -35 OFFCURVE",
"535 12 OFFCURVE",
"535 112 CURVE SMOOTH",
"535 218 OFFCURVE",
"407 239 OFFCURVE",
"318 264 CURVE SMOOTH",
"227 290 OFFCURVE",
"138 318 OFFCURVE",
"138 391 CURVE SMOOTH",
"138 462 OFFCURVE",
"217 502 OFFCURVE",
"289 502 CURVE SMOOTH",
"350 502 OFFCURVE",
"431 481 OFFCURVE",
"498 454 CURVE",
"498 490 LINE",
"431 518 OFFCURVE",
"358 535 OFFCURVE",
"289 535 CURVE SMOOTH",
"176 535 OFFCURVE",
"102 477 OFFCURVE",
"102 389 CURVE SMOOTH",
"102 292 OFFCURVE",
"211 256 OFFCURVE",
"317 228 CURVE SMOOTH",
"403 205 OFFCURVE",
"499 189 OFFCURVE",
"499 110 CURVE SMOOTH",
"499 35 OFFCURVE",
"409 -2 OFFCURVE",
"335 -2 CURVE SMOOTH",
"264 -2 OFFCURVE",
"187 9 OFFCURVE",
"94 59 CURVE",
"95 19 LINE",
"186 -24 OFFCURVE",
"256 -35 OFFCURVE",
"334 -35 CURVE SMOOTH"
);
}
);
width = 619;
}
);
unicode = 0073;
},
{
glyphname = s.alt;
lastChange = "2015-07-19 23:28:13 +0000";
layers = (
{
background = {
paths = (
{
closed = 1;
nodes = (
"719 247 OFFCURVE",
"855 220 OFFCURVE",
"855 111 CURVE SMOOTH",
"855 9 OFFCURVE",
"711 -38 OFFCURVE",
"515 -38 CURVE SMOOTH",
"347 -38 OFFCURVE",
"206 3 OFFCURVE",
"100 58 CURVE",
"117 93 LINE",
"212 36 OFFCURVE",
"355 -5 OFFCURVE",
"516 -5 CURVE SMOOTH",
"694 -5 OFFCURVE",
"819 32 OFFCURVE",
"819 109 CURVE SMOOTH",
"819 191 OFFCURVE",
"706 211 OFFCURVE",
"468 228 CURVE SMOOTH",
"228 245 OFFCURVE",
"122 286 OFFCURVE",
"127 383 CURVE SMOOTH",
"132 481 OFFCURVE",
"242 536 OFFCURVE",
"446 536 CURVE SMOOTH",
"585 536 OFFCURVE",
"712 522 OFFCURVE",
"824 491 CURVE",
"824 345 LINE",
"789 345 LINE",
"789 465 LINE",
"710 484 OFFCURVE",
"577 503 OFFCURVE",
"436 503 CURVE SMOOTH",
"288 503 OFFCURVE",
"169 466 OFFCURVE",
"163 385 CURVE SMOOTH",
"158 312 OFFCURVE",
"243 279 OFFCURVE",
"469 264 CURVE SMOOTH"
);
}
);
};
layerId = "B29C398E-974A-40D0-A0A0-00935056D4B4";
name = "Light Extended";
paths = (
{
closed = 1;
nodes = (
"719 252 OFFCURVE",
"855 220 OFFCURVE",
"855 111 CURVE SMOOTH",
"855 9 OFFCURVE",
"711 -28 OFFCURVE",
"515 -28 CURVE SMOOTH",
"347 -28 OFFCURVE",
"206 13 OFFCURVE",
"100 68 CURVE",
"117 102 LINE",
"212 45 OFFCURVE",
"355 4 OFFCURVE",
"516 4 CURVE SMOOTH",
"696 4 OFFCURVE",
"821 31 OFFCURVE",
"821 109 CURVE SMOOTH",
"821 191 OFFCURVE",
"708 216 OFFCURVE",
"468 233 CURVE SMOOTH",
"228 250 OFFCURVE",
"127 291 OFFCURVE",
"127 388 CURVE SMOOTH",
"127 484 OFFCURVE",
"242 536 OFFCURVE",
"446 536 CURVE SMOOTH",
"585 536 OFFCURVE",
"712 522 OFFCURVE",
"824 491 CURVE",
"824 345 LINE",
"789 345 LINE",
"789 466 LINE",
"710 485 OFFCURVE",
"577 504 OFFCURVE",
"436 504 CURVE SMOOTH",
"287 504 OFFCURVE",
"162 472 OFFCURVE",
"162 390 CURVE SMOOTH",
"162 317 OFFCURVE",
"242 284 OFFCURVE",
"469 269 CURVE SMOOTH"
);
}
);
width = 975;
},
{
layerId = "FA480B27-EBBD-4830-9868-98507D39050C";
name = Bold;
width = 600;
},
{
layerId = "543F9737-16F7-428D-9F96-2EBD9FC8D3B6";
name = Light;
width = 600;
}
);
},
{
color = 9;
glyphname = s.alt2;
lastChange = "2015-07-19 23:28:26 +0000";
layers = (
{
background = {
paths = (
{
closed = 0;
nodes = (
"483 225 LINE",
"311 254 OFFCURVE",
"177 276 OFFCURVE",
"177 380 CURVE SMOOTH",
"177 491 OFFCURVE",
"323 536 OFFCURVE",
"499 536 CURVE",
"617 537 OFFCURVE",
"715 522 OFFCURVE",
"827 491 CURVE",
"827 340 LINE",
"792 340 LINE",
"792 465 LINE",
"713 484 OFFCURVE",
"609 502 OFFCURVE",
"489 503 CURVE",
"347 502 OFFCURVE",
"213 474 OFFCURVE",
"213 380 CURVE SMOOTH",
"213 309 OFFCURVE",
"321 289 OFFCURVE",
"484 261 CURVE"
);
},
{
closed = 0;
nodes = (
"495 -34 LINE",
"369 -34 OFFCURVE",
"211 -3 OFFCURVE",
"144 61 CURVE",
"160 94 LINE",
"220 35 OFFCURVE",
"353 0 OFFCURVE",
"499 -4 CURVE"
);
},
{
closed = 0;
nodes = (
"530 -33 LINE",
"706 -33 OFFCURVE",
"852 12 OFFCURVE",
"852 123 CURVE SMOOTH",
"852 227 OFFCURVE",
"718 249 OFFCURVE",
"546 278 CURVE"
);
},
{
closed = 0;
nodes = (
"545 242 LINE",
"708 214 OFFCURVE",
"816 194 OFFCURVE",
"816 123 CURVE SMOOTH",
"816 29 OFFCURVE",
"682 1 OFFCURVE",
"540 0 CURVE"
);
}
);
};
layerId = "B29C398E-974A-40D0-A0A0-00935056D4B4";
name = "Light Extended";
paths = (
{
closed = 1;
nodes = (
"711 -28 OFFCURVE",
"860 9 OFFCURVE",
"860 116 CURVE SMOOTH",
"860 225 OFFCURVE",
"739 254 OFFCURVE",
"475 275 CURVE SMOOTH",
"238 294 OFFCURVE",
"157 323 OFFCURVE",
"157 396 CURVE SMOOTH",
"157 478 OFFCURVE",
"287 504 OFFCURVE",
"446 504 CURVE SMOOTH",
"577 504 OFFCURVE",
"733 474 OFFCURVE",
"834 440 CURVE",
"834 471 LINE",
"728 507 OFFCURVE",
"585 536 OFFCURVE",
"446 536 CURVE SMOOTH",
"242 536 OFFCURVE",
"122 494 OFFCURVE",
"122 396 CURVE SMOOTH",
"122 297 OFFCURVE",
"223 260 OFFCURVE",
"473 239 CURVE SMOOTH",
"726 218 OFFCURVE",
"825 198 OFFCURVE",
"825 116 CURVE SMOOTH",
"825 33 OFFCURVE",
"695 4 OFFCURVE",
"529 4 CURVE SMOOTH",
"373 4 OFFCURVE",
"213 48 OFFCURVE",
"90 109 CURVE",
"90 68 LINE",
"213 15 OFFCURVE",
"365 -28 OFFCURVE",
"528 -28 CURVE SMOOTH"
);
}
);
width = 975;
},
{
layerId = "FA480B27-EBBD-4830-9868-98507D39050C";
name = Bold;
paths = (
{
closed = 1;
nodes = (
"451 -30 OFFCURVE",
"584 26 OFFCURVE",
"584 139 CURVE SMOOTH",
"584 245 OFFCURVE",
"485 281 OFFCURVE",
"383 311 CURVE SMOOTH",
"287 339 OFFCURVE",
"237 347 OFFCURVE",
"237 375 CURVE SMOOTH",
"237 402 OFFCURVE",
"264 409 OFFCURVE",
"308 409 CURVE SMOOTH",
"365 409 OFFCURVE",
"463 392 OFFCURVE",
"548 351 CURVE",
"548 485 LINE",
"463 520 OFFCURVE",
"384 536 OFFCURVE",
"293 537 CURVE",
"160 537 OFFCURVE",
"50 480 OFFCURVE",
"50 367 CURVE SMOOTH",
"50 261 OFFCURVE",
"143 215 OFFCURVE",
"256 183 CURVE SMOOTH",
"344 158 OFFCURVE",
"397 154 OFFCURVE",
"397 126 CURVE SMOOTH",
"397 99 OFFCURVE",
"357 96 OFFCURVE",
"307 96 CURVE SMOOTH",
"255 96 OFFCURVE",
"144 119 OFFCURVE",
"51 170 CURVE",
"51 31 LINE",
"141 -14 OFFCURVE",
"226 -30 OFFCURVE",
"330 -30 CURVE SMOOTH"
);
}
);
width = 619;
},
{
layerId = "543F9737-16F7-428D-9F96-2EBD9FC8D3B6";
name = Light;
paths = (
{
closed = 1;
nodes = (
"426 -35 OFFCURVE",
"535 12 OFFCURVE",
"535 112 CURVE SMOOTH",
"535 218 OFFCURVE",
"407 239 OFFCURVE",
"318 264 CURVE SMOOTH",
"227 290 OFFCURVE",
"138 318 OFFCURVE",
"138 391 CURVE SMOOTH",
"138 462 OFFCURVE",
"217 502 OFFCURVE",
"289 502 CURVE SMOOTH",
"350 502 OFFCURVE",
"431 481 OFFCURVE",
"498 454 CURVE",
"498 490 LINE",
"431 518 OFFCURVE",
"358 535 OFFCURVE",
"289 535 CURVE SMOOTH",
"176 535 OFFCURVE",
"102 477 OFFCURVE",
"102 389 CURVE SMOOTH",
"102 292 OFFCURVE",
"211 256 OFFCURVE",
"317 228 CURVE SMOOTH",
"403 205 OFFCURVE",
"499 189 OFFCURVE",
"499 110 CURVE SMOOTH",
"499 35 OFFCURVE",
"409 -2 OFFCURVE",
"335 -2 CURVE SMOOTH",
"264 -2 OFFCURVE",
"187 9 OFFCURVE",
"94 59 CURVE",
"95 19 LINE",
"186 -24 OFFCURVE",
"256 -35 OFFCURVE",
"334 -35 CURVE SMOOTH"
);
}
);
width = 619;
}
);
},
{
color = 4;
glyphname = t;
lastChange = "2015-07-19 19:57:56 +0000";
layers = (
{
layerId = "B29C398E-974A-40D0-A0A0-00935056D4B4";
name = "Light Extended";
paths = (
{
closed = 1;
nodes = (
"564 510 LINE",
"40 510 LINE",
"40 477 LINE",
"564 477 LINE"
);
},
{
closed = 1;
nodes = (
"618 68 LINE",
"560 39 OFFCURVE",
"472 6 OFFCURVE",
"373 6 CURVE SMOOTH",
"284 6 OFFCURVE",
"224 44 OFFCURVE",
"224 162 CURVE",
"224 486 LINE",
"224 495 LINE",
"224 680 LINE",
"189 680 LINE",
"189 497 LINE",
"189 489 LINE",
"189 162 LINE",
"189 24 OFFCURVE",
"260 -28 OFFCURVE",
"375 -28 CURVE SMOOTH",
"476 -28 OFFCURVE",
"567 6 OFFCURVE",
"629 35 CURVE"
);
}
);
width = 679;
},
{
layerId = "FA480B27-EBBD-4830-9868-98507D39050C";
name = Bold;
width = 600;
},
{
layerId = "543F9737-16F7-428D-9F96-2EBD9FC8D3B6";
name = Light;
width = 600;
}
);
unicode = 0074;
},
{
glyphname = t.alt;
lastChange = "2015-07-19 17:53:25 +0000";
layers = (
{
layerId = "B29C398E-974A-40D0-A0A0-00935056D4B4";
name = "Light Extended";
paths = (
{
closed = 1;
nodes = (
"564 510 LINE",
"90 510 LINE",
"90 477 LINE",
"564 477 LINE"
);
},
{
closed = 1;
nodes = (
"603 63 LINE",
"550 34 OFFCURVE",
"467 6 OFFCURVE",
"388 6 CURVE SMOOTH",
"299 6 OFFCURVE",
"239 44 OFFCURVE",
"239 162 CURVE",
"239 279 OFFCURVE",
"294 458 OFFCURVE",
"301 486 CURVE",
"302 495 LINE",
"302 700 LINE",
"267 700 LINE",
"267 497 LINE",
"268 489 LINE",
"260 458 OFFCURVE",
"204 280 OFFCURVE",
"204 162 CURVE",
"204 24 OFFCURVE",
"275 -28 OFFCURVE",
"390 -28 CURVE SMOOTH",
"471 -28 OFFCURVE",
"557 1 OFFCURVE",
"614 30 CURVE"
);
}
);
width = 704;
},
{
layerId = "FA480B27-EBBD-4830-9868-98507D39050C";
name = Bold;
width = 600;
},
{
layerId = "543F9737-16F7-428D-9F96-2EBD9FC8D3B6";
name = Light;
width = 600;
}
);
},
{
color = 4;
glyphname = u;
lastChange = "2015-07-19 23:45:01 +0000";
layers = (
{
background = {
paths = (
{
closed = 1;
nodes = (
"1055 140 LINE",
"1055 46 OFFCURVE",
"1123 -23 OFFCURVE",
"1213 -23 CURVE SMOOTH",
"1342 -23 OFFCURVE",
"1381 90 OFFCURVE",
"1381 166 CURVE",
"1346 166 LINE",
"1346 86 OFFCURVE",
"1307 11 OFFCURVE",
"1215 11 CURVE SMOOTH",
"1150 11 OFFCURVE",
"1090 61 OFFCURVE",
"1090 140 CURVE",
"1090 296 LINE",
"1090 439 OFFCURVE",
"1008 538 OFFCURVE",
"803 538 CURVE",
"642 538 OFFCURVE",
"480 520 OFFCURVE",
"302 480 CURVE",
"302 443 LINE",
"482 484 OFFCURVE",
"642 504 OFFCURVE",
"803 504 CURVE",
"990 504 OFFCURVE",
"1055 415 OFFCURVE",
"1055 296 CURVE"
);
},
{
closed = 1;
nodes = (
"260 21 OFFCURVE",
"366 -29 OFFCURVE",
"509 -29 CURVE",
"693 -29 OFFCURVE",
"895 31 OFFCURVE",
"1070 110 CURVE",
"1070 143 LINE",
"888 66 OFFCURVE",
"690 5 OFFCURVE",
"509 5 CURVE",
"387 5 OFFCURVE",
"295 46 OFFCURVE",
"295 142 CURVE",
"295 239 OFFCURVE",
"425 293 OFFCURVE",
"592 293 CURVE",
"742 293 OFFCURVE",
"914 264 OFFCURVE",
"1070 224 CURVE",
"1070 258 LINE",
"914 295 OFFCURVE",
"763 327 OFFCURVE",
"592 327 CURVE",
"405 327 OFFCURVE",
"260 264 OFFCURVE",
"260 142 CURVE"
);
}
);
};
layerId = "B29C398E-974A-40D0-A0A0-00935056D4B4";
name = "Light Extended";
paths = (
{
closed = 1;
nodes = (
"1000 477 LINE",
"1000 510 LINE",
"706 510 LINE",
"706 477 LINE"
);
},
{
closed = 1;
nodes = (
"711 -29 OFFCURVE",
"847 43 OFFCURVE",
"990 112 CURVE",
"990 145 LINE",
"847 74 OFFCURVE",
"690 4 OFFCURVE",
"548 4 CURVE",
"391 5 OFFCURVE",
"304 71 OFFCURVE",
"304 222 CURVE",
"304 510 LINE",
"269 510 LINE",
"269 222 LINE",
"269 42 OFFCURVE",
"377 -28 OFFCURVE",
"548 -29 CURVE"
);
},
{
closed = 1;
nodes = (
"286 477 LINE",
"286 510 LINE",
"0 510 LINE",
"0 477 LINE"
);
},
{
closed = 1;
nodes = (
"975 26 OFFCURVE",
"1028 -28 OFFCURVE",
"1100 -28 CURVE SMOOTH",
"1145 -28 OFFCURVE",
"1183 -11 OFFCURVE",
"1218 13 CURVE",
"1204 43 LINE",
"1171 19 OFFCURVE",
"1140 5 OFFCURVE",
"1102 5 CURVE SMOOTH",
"1055 5 OFFCURVE",
"1010 40 OFFCURVE",
"1010 120 CURVE",
"1010 510 LINE",
"975 510 LINE",
"975 120 LINE"
);
}
);
width = 1228;
},
{
layerId = "FA480B27-EBBD-4830-9868-98507D39050C";
name = Bold;
width = 600;
},
{
layerId = "543F9737-16F7-428D-9F96-2EBD9FC8D3B6";
name = Light;
width = 600;
}
);
unicode = 0075;
},
{
color = 4;
glyphname = u.alt;
lastChange = "2015-07-19 23:45:04 +0000";
layers = (
{
background = {
paths = (
{
closed = 1;
nodes = (
"1045 140 LINE",
"1045 46 OFFCURVE",
"1113 -23 OFFCURVE",
"1203 -23 CURVE SMOOTH",
"1332 -23 OFFCURVE",
"1371 90 OFFCURVE",
"1371 166 CURVE",
"1336 166 LINE",
"1336 86 OFFCURVE",
"1297 11 OFFCURVE",
"1205 11 CURVE SMOOTH",
"1140 11 OFFCURVE",
"1080 61 OFFCURVE",
"1080 140 CURVE",
"1080 296 LINE",
"1080 439 OFFCURVE",
"998 538 OFFCURVE",
"793 538 CURVE",
"632 538 OFFCURVE",
"470 520 OFFCURVE",
"292 480 CURVE",
"292 443 LINE",
"472 484 OFFCURVE",
"632 504 OFFCURVE",
"793 504 CURVE",
"980 504 OFFCURVE",
"1045 415 OFFCURVE",
"1045 296 CURVE"
);
},
{
closed = 1;
nodes = (
"250 21 OFFCURVE",
"356 -29 OFFCURVE",
"499 -29 CURVE",
"683 -29 OFFCURVE",
"885 31 OFFCURVE",
"1060 110 CURVE",
"1060 143 LINE",
"878 66 OFFCURVE",
"680 5 OFFCURVE",
"499 5 CURVE",
"377 5 OFFCURVE",
"285 46 OFFCURVE",
"285 142 CURVE",
"285 239 OFFCURVE",
"415 293 OFFCURVE",
"582 293 CURVE",
"732 293 OFFCURVE",
"904 264 OFFCURVE",
"1060 224 CURVE",
"1060 258 LINE",
"904 295 OFFCURVE",
"753 327 OFFCURVE",
"582 327 CURVE",
"395 327 OFFCURVE",
"250 264 OFFCURVE",
"250 142 CURVE"
);
}
);
};
guideLines = (
{
position = "{544, 170}";
}
);
layerId = "B29C398E-974A-40D0-A0A0-00935056D4B4";
name = "Light Extended";
paths = (
{
closed = 1;
nodes = (
"990 477 LINE",
"990 510 LINE",
"696 510 LINE",
"696 477 LINE"
);
},
{
closed = 1;
nodes = (
"701 -28 OFFCURVE",
"837 44 OFFCURVE",
"980 113 CURVE",
"980 146 LINE",
"837 75 OFFCURVE",
"680 5 OFFCURVE",
"538 5 CURVE",
"381 6 OFFCURVE",
"294 72 OFFCURVE",
"294 223 CURVE",
"294 510 LINE",
"259 510 LINE",
"259 223 LINE",
"259 43 OFFCURVE",
"367 -27 OFFCURVE",
"538 -28 CURVE"
);
},
{
closed = 1;
nodes = (
"276 477 LINE",
"276 510 LINE",
"0 510 LINE",
"0 477 LINE"
);
},
{
closed = 1;
nodes = (
"965 41 OFFCURVE",
"1003 -28 OFFCURVE",
"1093 -28 CURVE SMOOTH",
"1189 -28 OFFCURVE",
"1221 55 OFFCURVE",
"1221 125 CURVE SMOOTH",
"1221 146 LINE",
"1186 146 LINE",
"1186 125 LINE SMOOTH",
"1186 55 OFFCURVE",
"1155 5 OFFCURVE",
"1095 5 CURVE SMOOTH",
"1030 5 OFFCURVE",
"1000 55 OFFCURVE",
"1000 140 CURVE",
"1000 510 LINE",
"965 510 LINE",
"965 140 LINE"
);
}
);
width = 1296;
},
{
layerId = "FA480B27-EBBD-4830-9868-98507D39050C";
name = Bold;
width = 600;
},
{
layerId = "543F9737-16F7-428D-9F96-2EBD9FC8D3B6";
name = Light;
width = 600;
}
);
},
{
glyphname = v;
lastChange = "2015-07-19 23:29:25 +0000";
layers = (
{
layerId = "B29C398E-974A-40D0-A0A0-00935056D4B4";
name = "Light Extended";
paths = (
{
closed = 1;
nodes = (
"15 510 LINE",
"15 477 LINE",
"405 477 LINE",
"405 510 LINE"
);
},
{
closed = 1;
nodes = (
"714 510 LINE",
"714 477 LINE",
"1105 477 LINE",
"1105 510 LINE"
);
},
{
closed = 1;
nodes = (
"937 497 LINE",
"898 497 LINE",
"558 12.1135 LINE",
"218 497 LINE",
"176 497 LINE",
"557 -45 LINE"
);
}
);
width = 1120;
},
{
layerId = "FA480B27-EBBD-4830-9868-98507D39050C";
name = Bold;
width = 600;
},
{
layerId = "543F9737-16F7-428D-9F96-2EBD9FC8D3B6";
name = Light;
width = 600;
}
);
unicode = 0076;
},
{
glyphname = w;
lastChange = "2015-07-19 18:35:38 +0000";
layers = (
{
layerId = "B29C398E-974A-40D0-A0A0-00935056D4B4";
name = "Light Extended";
paths = (
{
closed = 1;
nodes = (
"20 510 LINE",
"20 477 LINE",
"380 477 LINE",
"380 510 LINE"
);
},
{
closed = 1;
nodes = (
"504 510 LINE",
"504 479 LINE",
"985 479 LINE",
"985 510 LINE"
);
},
{
closed = 1;
nodes = (
"1109 510 LINE",
"1109 477 LINE",
"1470 477 LINE",
"1470 510 LINE"
);
},
{
closed = 1;
nodes = (
"907 497 LINE",
"869 497 LINE",
"525 13 LINE",
"223 497 LINE",
"181 497 LINE",
"521 -45 LINE"
);
},
{
closed = 1;
nodes = (
"1264 497 LINE",
"961 13 LINE",
"625 497 LINE",
"586 497 LINE",
"962 -45 LINE",
"1302 497 LINE"
);
}
);
width = 1490;
},
{
layerId = "FA480B27-EBBD-4830-9868-98507D39050C";
name = Bold;
width = 600;
},
{
layerId = "543F9737-16F7-428D-9F96-2EBD9FC8D3B6";
name = Light;
width = 600;
}
);
unicode = 0077;
},
{
color = 4;
glyphname = x;
lastChange = "2015-07-19 23:30:29 +0000";
layers = (
{
background = {
paths = (
{
closed = 1;
nodes = (
"1073 510 LINE",
"631 510 LINE",
"631 475 LINE",
"1073 475 LINE"
);
},
{
closed = 1;
nodes = (
"548 270 LINE",
"542 270 LINE",
"128 0 LINE",
"179 0 LINE",
"565 246 LINE",
"572 246 LINE",
"930 500 LINE",
"879 500 LINE"
);
},
{
closed = 1;
nodes = (
"25 0 LINE",
"466 0 LINE",
"466 35 LINE",
"25 35 LINE"
);
},
{
closed = 1;
nodes = (
"555 243 LINE",
"670 90 OFFCURVE",
"742 -29 OFFCURVE",
"876 -29 CURVE SMOOTH",
"1015 -29 OFFCURVE",
"1074 84 OFFCURVE",
"1074 160 CURVE",
"1039 160 LINE",
"1039 80 OFFCURVE",
"980 5 OFFCURVE",
"878 5 CURVE SMOOTH",
"769 5 OFFCURVE",
"688 122 OFFCURVE",
"578 267 CURVE",
"565 266 LINE",
"450 419 OFFCURVE",
"378 510 OFFCURVE",
"244 510 CURVE SMOOTH",
"105 510 OFFCURVE",
"46 397 OFFCURVE",
"46 321 CURVE",
"81 321 LINE",
"81 401 OFFCURVE",
"140 476 OFFCURVE",
"242 476 CURVE SMOOTH",
"351 476 OFFCURVE",
"432 387 OFFCURVE",
"542 242 CURVE"
);
}
);
};
layerId = "B29C398E-974A-40D0-A0A0-00935056D4B4";
name = "Light Extended";
paths = (
{
closed = 1;
nodes = (
"1073 510 LINE",
"631 510 LINE",
"631 477 LINE",
"1073 477 LINE"
);
},
{
closed = 1;
nodes = (
"548 270 LINE",
"542 270 LINE",
"128 0 LINE",
"179 0 LINE",
"565 246 LINE",
"572 246 LINE",
"930 500 LINE",
"879 500 LINE"
);
},
{
closed = 1;
nodes = (
"25 0 LINE",
"466 0 LINE",
"466 33 LINE",
"25 33 LINE"
);
},
{
closed = 1;
nodes = (
"665 99 OFFCURVE",
"749 -29 OFFCURVE",
"881 -29 CURVE SMOOTH",
"1015 -29 OFFCURVE",
"1074 84 OFFCURVE",
"1074 160 CURVE",
"1039 160 LINE",
"1039 79 OFFCURVE",
"980 4 OFFCURVE",
"883 4 CURVE SMOOTH",
"780 4 OFFCURVE",
"705 102 OFFCURVE",
"570 283 CURVE SMOOTH",
"457 435 OFFCURVE",
"378 539 OFFCURVE",
"244 539 CURVE SMOOTH",
"105 539 OFFCURVE",
"46 426 OFFCURVE",
"46 350 CURVE",
"81 350 LINE",
"81 431 OFFCURVE",
"140 506 OFFCURVE",
"242 506 CURVE SMOOTH",
"351 506 OFFCURVE",
"430 417 OFFCURVE",
"543 264 CURVE SMOOTH"
);
}
);
width = 1099;
},
{
layerId = "FA480B27-EBBD-4830-9868-98507D39050C";
name = Bold;
width = 600;
},
{
layerId = "543F9737-16F7-428D-9F96-2EBD9FC8D3B6";
name = Light;
width = 600;
}
);
unicode = 0078;
},
{
color = 4;
glyphname = x.alt;
lastChange = "2015-07-19 17:54:42 +0000";
layers = (
{
background = {
paths = (
{
closed = 0;
nodes = (
"957 241 LINE",
"1141 305 OFFCURVE",
"1342 357 OFFCURVE",
"1396 523 CURVE",
"1362 530 LINE",
"1318 387 OFFCURVE",
"1143 330 OFFCURVE",
"949 273 CURVE"
);
},
{
closed = 1;
nodes = (
"740 267 OFFCURVE",
"910 341 OFFCURVE",
"910 472 CURVE",
"910 506 LINE",
"691 506 LINE",
"691 471 LINE",
"877 471 LINE",
"877 357 OFFCURVE",
"720 296 OFFCURVE",
"513 255 CURVE SMOOTH",
"289 211 OFFCURVE",
"124 115 OFFCURVE",
"124 6 CURVE",
"124 -28 LINE",
"343 -28 LINE",
"343 7 LINE",
"157 7 LINE",
"157 99 OFFCURVE",
"309 180 OFFCURVE",
"521 223 CURVE SMOOTH"
);
}
);
};
layerId = "B29C398E-974A-40D0-A0A0-00935056D4B4";
name = "Light Extended";
paths = (
{
closed = 1;
nodes = (
"386 477 LINE",
"386 510 LINE",
"25 510 LINE",
"25 477 LINE"
);
},
{
closed = 1;
nodes = (
"177 500 LINE",
"507 244 LINE",
"517 244 LINE",
"818 0 LINE",
"871 0 LINE",
"542 266 LINE",
"533 266 LINE",
"230 500 LINE"
);
},
{
closed = 1;
nodes = (
"651 33 LINE",
"651 0 LINE",
"1013 0 LINE",
"1013 33 LINE"
);
},
{
closed = 1;
nodes = (
"1013 510 LINE",
"651 510 LINE",
"651 477 LINE",
"1013 477 LINE"
);
},
{
closed = 1;
nodes = (
"522 265 LINE",
"513 265 LINE",
"168 0 LINE",
"219 0 LINE",
"538 242 LINE",
"546 242 LINE",
"860 500 LINE",
"809 500 LINE"
);
},
{
closed = 1;
nodes = (
"25 0 LINE",
"386 0 LINE",
"386 33 LINE",
"25 33 LINE"
);
}
);
width = 1038;
},
{
layerId = "FA480B27-EBBD-4830-9868-98507D39050C";
name = Bold;
width = 600;
},
{
layerId = "543F9737-16F7-428D-9F96-2EBD9FC8D3B6";
name = Light;
width = 600;
}
);
},
{
glyphname = y;
lastChange = "2015-07-19 23:31:18 +0000";
layers = (
{
background = {
paths = (
{
closed = 1;
nodes = (
"173 497 LINE",
"131 497 LINE",
"490 -28 LINE",
"534 -28 LINE"
);
},
{
closed = 1;
nodes = (
"-30 510 LINE",
"-30 475 LINE",
"360 475 LINE",
"360 510 LINE"
);
},
{
closed = 1;
nodes = (
"669 510 LINE",
"669 475 LINE",
"1060 475 LINE",
"1060 510 LINE"
);
},
{
closed = 1;
nodes = (
"533 -28 LINE",
"892 497 LINE",
"853 497 LINE",
"492 -28 LINE"
);
}
);
};
layerId = "B29C398E-974A-40D0-A0A0-00935056D4B4";
name = "Light Extended";
paths = (
{
closed = 1;
nodes = (
"212 497 LINE",
"171 497 LINE",
"520 -63 LINE",
"542 -28 LINE"
);
},
{
closed = 1;
nodes = (
"10 510 LINE",
"10 477 LINE",
"400 477 LINE",
"400 510 LINE"
);
},
{
closed = 1;
nodes = (
"659 510 LINE",
"659 477 LINE",
"1048 477 LINE",
"1048 510 LINE"
);
},
{
closed = 1;
nodes = (
"876 490 LINE",
"836 490 LINE",
"493 -70 LINE SMOOTH",
"424 -183 OFFCURVE",
"361 -240 OFFCURVE",
"262 -240 CURVE SMOOTH",
"181 -240 OFFCURVE",
"122 -215 OFFCURVE",
"50 -181 CURVE",
"39 -215 LINE",
"113 -247 OFFCURVE",
"169 -275 OFFCURVE",
"260 -275 CURVE SMOOTH",
"384 -275 OFFCURVE",
"457 -192 OFFCURVE",
"533 -68 CURVE SMOOTH"
);
}
);
width = 1058;
},
{
layerId = "FA480B27-EBBD-4830-9868-98507D39050C";
name = Bold;
width = 600;
},
{
layerId = "543F9737-16F7-428D-9F96-2EBD9FC8D3B6";
name = Light;
width = 600;
}
);
unicode = 0079;
},
{
color = 4;
glyphname = z;
lastChange = "2015-07-19 23:32:02 +0000";
layers = (
{
background = {
paths = (
{
closed = 1;
nodes = (
"911 48 OFFCURVE",
"820 -5 OFFCURVE",
"727 -4 CURVE SMOOTH",
"601 -4 OFFCURVE",
"497 76 OFFCURVE",
"337 76 CURVE SMOOTH",
"265 76 OFFCURVE",
"184 62 OFFCURVE",
"93 8 CURVE",
"270 251 OFFCURVE",
"789 218 OFFCURVE",
"901 510 CURVE",
"907 523 LINE",
"870 530 LINE",
"855 493 OFFCURVE",
"847 478 OFFCURVE",
"836 462 CURVE",
"817 438 OFFCURVE",
"785 421 OFFCURVE",
"721 421 CURVE SMOOTH",
"575 421 OFFCURVE",
"431 537 OFFCURVE",
"100 537 CURVE SMOOTH",
"65 536 LINE",
"65 317 LINE",
"100 317 LINE",
"100 503 LINE",
"409 503 OFFCURVE",
"578 387 OFFCURVE",
"721 387 CURVE SMOOTH",
"746 387 OFFCURVE",
"772 390 OFFCURVE",
"787 400 CURVE",
"784 406 LINE",
"594 252 OFFCURVE",
"164 246 OFFCURVE",
"46 -12 CURVE",
"66 -37 LINE",
"169 16 OFFCURVE",
"262 42 OFFCURVE",
"334 42 CURVE SMOOTH",
"468 42 OFFCURVE",
"588 -38 OFFCURVE",
"725 -38 CURVE SMOOTH",
"869 -38 OFFCURVE",
"948 44 OFFCURVE",
"959 150 CURVE",
"924 150 LINE"
);
}
);
};
layerId = "B29C398E-974A-40D0-A0A0-00935056D4B4";
name = "Light Extended";
paths = (
{
closed = 1;
nodes = (
"804 371 LINE",
"640 428 OFFCURVE",
"444 504 OFFCURVE",
"135 504 CURVE",
"135 317 LINE",
"100 317 LINE",
"100 536 LINE",
"135 536 LINE SMOOTH",
"466 536 OFFCURVE",
"651 457 OFFCURVE",
"815 398 CURVE"
);
},
{
closed = 1;
nodes = (
"939 516 LINE",
"825 214 OFFCURVE",
"279 285 OFFCURVE",
"106 -41 CURVE",
"75 -25 LINE",
"241 309 OFFCURVE",
"793 237 OFFCURVE",
"907 529 CURVE"
);
},
{
closed = 1;
nodes = (
"972 128 LINE",
"955 29 OFFCURVE",
"876 -45 OFFCURVE",
"720 -45 CURVE SMOOTH",
"581 -45 OFFCURVE",
"352 42 OFFCURVE",
"208 91 CURVE",
"225 121 LINE",
"371 70 OFFCURVE",
"583 -12 OFFCURVE",
"722 -12 CURVE SMOOTH",
"832 -12 OFFCURVE",
"920 37 OFFCURVE",
"938 132 CURVE"
);
}
);
width = 982;
},
{
layerId = "FA480B27-EBBD-4830-9868-98507D39050C";
name = Bold;
width = 600;
},
{
layerId = "543F9737-16F7-428D-9F96-2EBD9FC8D3B6";
name = Light;
width = 600;
}
);
unicode = 007A;
},
{
glyphname = zero;
lastChange = "2015-07-19 23:37:28 +0000";
layers = (
{
layerId = "B29C398E-974A-40D0-A0A0-00935056D4B4";
name = "Light Extended";
paths = (
{
closed = 1;
nodes = (
"830 -28 OFFCURVE",
"1059 93 OFFCURVE",
"1059 337 CURVE",
"1059 571 OFFCURVE",
"830 702 OFFCURVE",
"572 702 CURVE",
"313 702 OFFCURVE",
"85 571 OFFCURVE",
"85 337 CURVE",
"85 93 OFFCURVE",
"313 -28 OFFCURVE",
"572 -28 CURVE"
);
},
{
closed = 1;
nodes = (
"328 5 OFFCURVE",
"120 118 OFFCURVE",
"120 337 CURVE",
"120 546 OFFCURVE",
"328 669 OFFCURVE",
"572 669 CURVE",
"815 669 OFFCURVE",
"1024 546 OFFCURVE",
"1024 337 CURVE",
"1024 118 OFFCURVE",
"815 5 OFFCURVE",
"572 5 CURVE"
);
},
{
closed = 1;
nodes = (
"530 379 OFFCURVE",
"505 361 OFFCURVE",
"505 335 CURVE",
"505 310 OFFCURVE",
"530 292 OFFCURVE",
"573 292 CURVE",
"617 292 OFFCURVE",
"640 310 OFFCURVE",
"640 335 CURVE",
"640 361 OFFCURVE",
"617 379 OFFCURVE",
"573 379 CURVE"
);
}
);
width = 1144;
},
{
layerId = "543F9737-16F7-428D-9F96-2EBD9FC8D3B6";
name = Light;
width = 600;
},
{
layerId = "FA480B27-EBBD-4830-9868-98507D39050C";
name = Bold;
width = 600;
}
);
unicode = 0030;
},
{
glyphname = one;
lastChange = "2015-07-19 23:37:48 +0000";
layers = (
{
layerId = "B29C398E-974A-40D0-A0A0-00935056D4B4";
name = "Light Extended";
paths = (
{
closed = 1;
nodes = (
"388 0 LINE",
"423 0 LINE",
"423 710 LINE",
"388 710 LINE"
);
},
{
closed = 1;
nodes = (
"105 33 LINE",
"105 0 LINE",
"682 0 LINE",
"682 33 LINE"
);
},
{
closed = 1;
nodes = (
"113 504 LINE",
"254 525 OFFCURVE",
"377 576 OFFCURVE",
"415 703 CURVE",
"388 710 LINE",
"350 602 OFFCURVE",
"233 554 OFFCURVE",
"107 540 CURVE"
);
}
);
width = 732;
},
{
layerId = "543F9737-16F7-428D-9F96-2EBD9FC8D3B6";
name = Light;
width = 600;
},
{
layerId = "FA480B27-EBBD-4830-9868-98507D39050C";
name = Bold;
width = 600;
}
);
unicode = 0031;
},
{
glyphname = two;
lastChange = "2015-07-19 23:38:12 +0000";
layers = (
{
layerId = "B29C398E-974A-40D0-A0A0-00935056D4B4";
name = "Light Extended";
paths = (
{
closed = 1;
nodes = (
"120 168 OFFCURVE",
"232 233 OFFCURVE",
"513 291 CURVE SMOOTH",
"769 344 OFFCURVE",
"914 378 OFFCURVE",
"914 516 CURVE SMOOTH",
"914 653 OFFCURVE",
"736 700 OFFCURVE",
"576 700 CURVE SMOOTH",
"382 700 OFFCURVE",
"246 658 OFFCURVE",
"97 590 CURVE",
"97 551 LINE",
"251 630 OFFCURVE",
"418 667 OFFCURVE",
"576 667 CURVE SMOOTH",
"730 667 OFFCURVE",
"876 624 OFFCURVE",
"879 517 CURVE SMOOTH",
"882 408 OFFCURVE",
"750 376 OFFCURVE",
"498 323 CURVE SMOOTH",
"215 264 OFFCURVE",
"85 190 OFFCURVE",
"85 24 CURVE",
"120 24 LINE"
);
},
{
closed = 1;
nodes = (
"932 0 LINE",
"932 245 LINE",
"897 245 LINE",
"897 33 LINE",
"85 33 LINE",
"85 0 LINE"
);
}
);
width = 1052;
},
{
layerId = "543F9737-16F7-428D-9F96-2EBD9FC8D3B6";
name = Light;
width = 600;
},
{
layerId = "FA480B27-EBBD-4830-9868-98507D39050C";
name = Bold;
width = 600;
}
);
unicode = 0032;
},
{
glyphname = five;
lastChange = "2015-07-19 23:38:24 +0000";
layers = (
{
background = {
paths = (
{
closed = 1;
nodes = (
"761 -38 OFFCURVE",
"990 78 OFFCURVE",
"990 330 CURVE",
"990 572 OFFCURVE",
"761 708 OFFCURVE",
"503 708 CURVE",
"244 708 OFFCURVE",
"16 572 OFFCURVE",
"16 330 CURVE",
"16 78 OFFCURVE",
"244 -38 OFFCURVE",
"503 -38 CURVE"
);
},
{
closed = 1;
nodes = (
"259 -4 OFFCURVE",
"51 104 OFFCURVE",
"51 330 CURVE",
"51 546 OFFCURVE",
"259 674 OFFCURVE",
"503 674 CURVE",
"746 674 OFFCURVE",
"955 546 OFFCURVE",
"955 330 CURVE",
"955 104 OFFCURVE",
"746 -4 OFFCURVE",
"503 -4 CURVE"
);
},
{
closed = 1;
nodes = (
"461 379 OFFCURVE",
"436 361 OFFCURVE",
"436 335 CURVE",
"436 310 OFFCURVE",
"461 292 OFFCURVE",
"504 292 CURVE",
"548 292 OFFCURVE",
"571 310 OFFCURVE",
"571 335 CURVE",
"571 361 OFFCURVE",
"548 379 OFFCURVE",
"504 379 CURVE"
);
}
);
};
layerId = "B29C398E-974A-40D0-A0A0-00935056D4B4";
name = "Light Extended";
paths = (
{
closed = 1;
nodes = (
"146 667 LINE",
"890 667 LINE",
"890 700 LINE",
"146 700 LINE"
);
},
{
closed = 1;
nodes = (
"780 358 OFFCURVE",
"884 302 OFFCURVE",
"881 193 CURVE SMOOTH",
"878 89 OFFCURVE",
"728 5 OFFCURVE",
"544 5 CURVE SMOOTH",
"396 5 OFFCURVE",
"254 46 OFFCURVE",
"120 115 CURVE",
"120 72 LINE",
"249 14 OFFCURVE",
"360 -28 OFFCURVE",
"544 -28 CURVE SMOOTH",
"734 -28 OFFCURVE",
"917 60 OFFCURVE",
"917 194 CURVE SMOOTH",
"917 331 OFFCURVE",
"780 390 OFFCURVE",
"559 393 CURVE SMOOTH",
"396 395 OFFCURVE",
"274 372 OFFCURVE",
"144 349 CURVE",
"144 314 LINE",
"271 338 OFFCURVE",
"386 361 OFFCURVE",
"544 360 CURVE SMOOTH"
);
},
{
closed = 1;
nodes = (
"144 314 LINE",
"179 337 LINE",
"179 700 LINE",
"144 700 LINE"
);
}
);
width = 1012;
},
{
layerId = "543F9737-16F7-428D-9F96-2EBD9FC8D3B6";
name = Light;
width = 600;
},
{
layerId = "FA480B27-EBBD-4830-9868-98507D39050C";
name = Bold;
width = 600;
}
);
unicode = 0035;
},
{
glyphname = two.alt;
lastChange = "2015-07-19 23:38:45 +0000";
layers = (
{
layerId = "B29C398E-974A-40D0-A0A0-00935056D4B4";
name = "Light Extended";
paths = (
{
closed = 1;
nodes = (
"905 176 LINE",
"891 65 OFFCURVE",
"830 5 OFFCURVE",
"709 5 CURVE SMOOTH",
"555 5 OFFCURVE",
"407 83 OFFCURVE",
"259 173 CURVE",
"242 143 LINE",
"388 54 OFFCURVE",
"548 -28 OFFCURVE",
"707 -28 CURVE SMOOTH",
"857 -28 OFFCURVE",
"927 59 OFFCURVE",
"940 171 CURVE"
);
},
{
closed = 1;
nodes = (
"821 369 OFFCURVE",
"638 311 OFFCURVE",
"460 263 CURVE SMOOTH",
"260 209 OFFCURVE",
"149 151 OFFCURVE",
"65 -21 CURVE",
"93 -37 LINE",
"180 127 OFFCURVE",
"274 178 OFFCURVE",
"469 231 CURVE SMOOTH",
"659 283 OFFCURVE",
"856 350 OFFCURVE",
"856 507 CURVE SMOOTH",
"856 634 OFFCURVE",
"718 701 OFFCURVE",
"530 701 CURVE SMOOTH",
"358 701 OFFCURVE",
"198 645 OFFCURVE",
"69 545 CURVE",
"69 501 LINE",
"203 613 OFFCURVE",
"370 668 OFFCURVE",
"530 668 CURVE SMOOTH",
"712 668 OFFCURVE",
"821 605 OFFCURVE",
"821 508 CURVE SMOOTH"
);
}
);
width = 1035;
},
{
layerId = "543F9737-16F7-428D-9F96-2EBD9FC8D3B6";
name = Light;
width = 600;
},
{
layerId = "FA480B27-EBBD-4830-9868-98507D39050C";
name = Bold;
width = 600;
}
);
},
{
glyphname = five.alt;
lastChange = "2015-07-19 17:56:43 +0000";
layers = (
{
layerId = "B29C398E-974A-40D0-A0A0-00935056D4B4";
name = "Light Extended";
paths = (
{
closed = 1;
nodes = (
"120 667 LINE",
"797 667 LINE",
"797 700 LINE",
"120 700 LINE"
);
},
{
closed = 1;
nodes = (
"155 301 LINE",
"156 700 LINE",
"121 700 LINE",
"120 282 LINE",
"243 320 OFFCURVE",
"348 347 OFFCURVE",
"486 347 CURVE SMOOTH",
"655 347 OFFCURVE",
"774 282 OFFCURVE",
"772 147 CURVE SMOOTH",
"769 -36 OFFCURVE",
"512 -153 OFFCURVE",
"138 -133 CURVE",
"138 -166 LINE",
"518 -186 OFFCURVE",
"807 -64 OFFCURVE",
"807 148 CURVE SMOOTH",
"807 311 OFFCURVE",
"660 381 OFFCURVE",
"486 381 CURVE SMOOTH",
"348 381 OFFCURVE",
"244 354 OFFCURVE",
"127 317 CURVE"
);
}
);
width = 897;
},
{
layerId = "543F9737-16F7-428D-9F96-2EBD9FC8D3B6";
name = Light;
width = 600;
},
{
layerId = "FA480B27-EBBD-4830-9868-98507D39050C";
name = Bold;
width = 600;
}
);
},
{
glyphname = two.alt2;
lastChange = "2015-07-19 23:39:15 +0000";
layers = (
{
layerId = "B29C398E-974A-40D0-A0A0-00935056D4B4";
name = "Light Extended";
paths = (
{
closed = 1;
nodes = (
"393 42 OFFCURVE",
"560 -28 OFFCURVE",
"851 -28 CURVE SMOOTH",
"886 -28 LINE",
"886 191 LINE",
"851 191 LINE",
"851 4 LINE",
"582 4 OFFCURVE",
"406 74 OFFCURVE",
"222 164 CURVE",
"209 134 LINE"
);
},
{
closed = 1;
nodes = (
"821 372 OFFCURVE",
"638 311 OFFCURVE",
"460 263 CURVE SMOOTH",
"260 209 OFFCURVE",
"149 151 OFFCURVE",
"65 -21 CURVE",
"93 -37 LINE",
"180 127 OFFCURVE",
"274 178 OFFCURVE",
"469 231 CURVE SMOOTH",
"659 283 OFFCURVE",
"856 353 OFFCURVE",
"856 505 CURVE SMOOTH",
"856 633 OFFCURVE",
"718 700 OFFCURVE",
"530 700 CURVE SMOOTH",
"358 700 OFFCURVE",
"198 644 OFFCURVE",
"69 544 CURVE",
"69 500 LINE",
"203 612 OFFCURVE",
"370 667 OFFCURVE",
"530 667 CURVE SMOOTH",
"712 667 OFFCURVE",
"821 604 OFFCURVE",
"821 506 CURVE SMOOTH"
);
}
);
width = 981;
},
{
layerId = "543F9737-16F7-428D-9F96-2EBD9FC8D3B6";
name = Light;
width = 600;
},
{
layerId = "FA480B27-EBBD-4830-9868-98507D39050C";
name = Bold;
width = 600;
}
);
},
{
glyphname = asterisk;
lastChange = "2015-07-19 18:54:31 +0000";
layers = (
{
background = {
paths = (
{
closed = 1;
nodes = (
"202 781 OFFCURVE",
"222 729 OFFCURVE",
"226 689 CURVE SMOOTH",
"229 655 LINE",
"244 655 LINE",
"247 689 LINE SMOOTH",
"250 728 OFFCURVE",
"271 781 OFFCURVE",
"271 801 CURVE SMOOTH",
"271 819 OFFCURVE",
"260 835 OFFCURVE",
"237 836 CURVE",
"213 835 OFFCURVE",
"202 819 OFFCURVE",
"202 801 CURVE SMOOTH"
);
},
{
closed = 1;
nodes = (
"317 471 OFFCURVE",
"314 412 OFFCURVE",
"356 412 CURVE SMOOTH",
"377 412 OFFCURVE",
"391 427 OFFCURVE",
"391 445 CURVE SMOOTH",
"391 481 OFFCURVE",
"332 501 OFFCURVE",
"295 541 CURVE SMOOTH",
"272 566 LINE",
"260 557 LINE",
"279 528 LINE SMOOTH"
);
},
{
closed = 1;
nodes = (
"159 412 OFFCURVE",
"156 471 OFFCURVE",
"194 528 CURVE SMOOTH",
"213 557 LINE",
"201 566 LINE",
"178 541 LINE SMOOTH",
"141 501 OFFCURVE",
"82 481 OFFCURVE",
"82 445 CURVE SMOOTH",
"82 427 OFFCURVE",
"96 412 OFFCURVE",
"117 412 CURVE SMOOTH"
);
},
{
closed = 1;
nodes = (
"118 653 OFFCURVE",
"80 699 OFFCURVE",
"47 696 CURVE SMOOTH",
"29 695 OFFCURVE",
"16 677 OFFCURVE",
"18 658 CURVE SMOOTH",
"22 612 OFFCURVE",
"88 632 OFFCURVE",
"156 615 CURVE SMOOTH",
"189 607 LINE",
"193 622 LINE",
"163 635 LINE SMOOTH"
);
},
{
closed = 1;
nodes = (
"280 622 LINE",
"284 607 LINE",
"317 615 LINE SMOOTH",
"385 632 OFFCURVE",
"451 612 OFFCURVE",
"455 658 CURVE SMOOTH",
"457 677 OFFCURVE",
"444 695 OFFCURVE",
"426 696 CURVE SMOOTH",
"393 699 OFFCURVE",
"355 653 OFFCURVE",
"310 635 CURVE SMOOTH"
);
}
);
};
layerId = "B29C398E-974A-40D0-A0A0-00935056D4B4";
name = "Light Extended";
paths = (
{
closed = 1;
nodes = (
"195 790 OFFCURVE",
"219 735 OFFCURVE",
"223 693 CURVE SMOOTH",
"226 658 LINE",
"245 658 LINE",
"249 693 LINE SMOOTH",
"253 734 OFFCURVE",
"278 790 OFFCURVE",
"278 811 CURVE SMOOTH",
"278 830 OFFCURVE",
"264 847 OFFCURVE",
"237 848 CURVE",
"207 847 OFFCURVE",
"195 830 OFFCURVE",
"195 811 CURVE SMOOTH"
);
},
{
closed = 1;
nodes = (
"333 464 OFFCURVE",
"330 402 OFFCURVE",
"380 402 CURVE SMOOTH",
"405 402 OFFCURVE",
"422 417 OFFCURVE",
"422 436 CURVE SMOOTH",
"422 474 OFFCURVE",
"351 495 OFFCURVE",
"306 538 CURVE SMOOTH",
"279 564 LINE",
"264 554 LINE",
"287 524 LINE SMOOTH"
);
},
{
closed = 1;
nodes = (
"142 402 OFFCURVE",
"139 464 OFFCURVE",
"184 524 CURVE SMOOTH",
"207 554 LINE",
"194 564 LINE",
"165 538 LINE SMOOTH",
"121 495 OFFCURVE",
"50 474 OFFCURVE",
"50 436 CURVE SMOOTH",
"50 417 OFFCURVE",
"67 402 OFFCURVE",
"92 402 CURVE SMOOTH"
);
},
{
closed = 1;
nodes = (
"94 655 OFFCURVE",
"50 701 OFFCURVE",
"13 701 CURVE SMOOTH",
"-11 701 OFFCURVE",
"-27 686 OFFCURVE",
"-27 664 CURVE SMOOTH",
"-27 612 OFFCURVE",
"55 633 OFFCURVE",
"139 615 CURVE SMOOTH",
"179 607 LINE",
"183 623 LINE",
"148 636 LINE SMOOTH"
);
},
{
closed = 1;
nodes = (
"288 623 LINE",
"294 607 LINE",
"333 615 LINE SMOOTH",
"417 633 OFFCURVE",
"499 612 OFFCURVE",
"499 664 CURVE SMOOTH",
"499 686 OFFCURVE",
"483 701 OFFCURVE",
"459 701 CURVE SMOOTH",
"422 701 OFFCURVE",
"379 655 OFFCURVE",
"324 636 CURVE SMOOTH"
);
}
);
width = 473;
},
{
layerId = "543F9737-16F7-428D-9F96-2EBD9FC8D3B6";
name = Light;
width = 600;
},
{
layerId = "FA480B27-EBBD-4830-9868-98507D39050C";
name = Bold;
width = 600;
}
);
unicode = 002A;
},
{
glyphname = backslash;
lastChange = "2015-07-09 20:10:58 +0000";
layers = (
{
layerId = "B29C398E-974A-40D0-A0A0-00935056D4B4";
name = "Light Extended";
paths = (
{
closed = 1;
nodes = (
"565 -113 LINE",
"90 802 LINE",
"50 802 LINE",
"525 -113 LINE"
);
}
);
width = 595;
},
{
layerId = "543F9737-16F7-428D-9F96-2EBD9FC8D3B6";
name = Light;
width = 600;
},
{
layerId = "FA480B27-EBBD-4830-9868-98507D39050C";
name = Bold;
width = 600;
}
);
unicode = 005C;
},
{
glyphname = periodcentered;
lastChange = "2015-07-08 20:45:21 +0000";
layers = (
{
layerId = "B29C398E-974A-40D0-A0A0-00935056D4B4";
name = "Light Extended";
paths = (
{
closed = 1;
nodes = (
"131 381 OFFCURVE",
"105 362 OFFCURVE",
"105 335 CURVE",
"105 309 OFFCURVE",
"131 290 OFFCURVE",
"176 290 CURVE",
"222 290 OFFCURVE",
"246 309 OFFCURVE",
"246 335 CURVE",
"246 362 OFFCURVE",
"222 381 OFFCURVE",
"176 381 CURVE"
);
}
);
width = 351;
},
{
layerId = "543F9737-16F7-428D-9F96-2EBD9FC8D3B6";
name = Light;
width = 600;
},
{
layerId = "FA480B27-EBBD-4830-9868-98507D39050C";
name = Bold;
width = 600;
}
);
unicode = 00B7;
},
{
glyphname = comma;
lastChange = "2015-07-19 23:41:04 +0000";
layers = (
{
layerId = "B29C398E-974A-40D0-A0A0-00935056D4B4";
name = "Light Extended";
paths = (
{
closed = 1;
nodes = (
"269 35 OFFCURVE",
"241 64 OFFCURVE",
"189 64 CURVE SMOOTH",
"144 64 OFFCURVE",
"117 43 OFFCURVE",
"117 15 CURVE SMOOTH",
"117 -11 OFFCURVE",
"143 -28 OFFCURVE",
"179 -28 CURVE SMOOTH",
"200 -28 OFFCURVE",
"219 -25 OFFCURVE",
"235 -21 CURVE",
"225 -84 OFFCURVE",
"167 -147 OFFCURVE",
"95 -212 CURVE",
"112 -229 LINE",
"199 -160 OFFCURVE",
"269 -72 OFFCURVE",
"269 -10 CURVE SMOOTH"
);
}
);
width = 374;
},
{
layerId = "543F9737-16F7-428D-9F96-2EBD9FC8D3B6";
name = Light;
width = 600;
},
{
layerId = "FA480B27-EBBD-4830-9868-98507D39050C";
name = Bold;
width = 600;
}
);
unicode = 002C;
},
{
glyphname = exclam;
lastChange = "2015-07-08 19:28:08 +0000";
layers = (
{
components = (
{
name = period;
transform = "{1, 0, 0, 1, 0, 0}";
}
);
guideLines = (
{
angle = 90;
position = "{194, 329}";
}
);
layerId = "B29C398E-974A-40D0-A0A0-00935056D4B4";
name = "Light Extended";
paths = (
{
closed = 1;
nodes = (
"159 388 CURVE SMOOTH",
"165 212 LINE",
"188 212 LINE",
"194 388 LINE SMOOTH",
"201 604 OFFCURVE",
"220 749 OFFCURVE",
"220 774 CURVE",
"220 798 OFFCURVE",
"207 818 OFFCURVE",
"177 819 CURVE",
"146 818 OFFCURVE",
"133 798 OFFCURVE",
"133 774 CURVE",
"133 749 OFFCURVE",
"152 605 OFFCURVE"
);
}
);
width = 351;
},
{
layerId = "543F9737-16F7-428D-9F96-2EBD9FC8D3B6";
name = Light;
width = 600;
},
{
layerId = "FA480B27-EBBD-4830-9868-98507D39050C";
name = Bold;
width = 600;
}
);
unicode = 0021;
},
{
glyphname = numbersign;
lastChange = "2015-07-19 18:54:55 +0000";
layers = (
{
layerId = "B29C398E-974A-40D0-A0A0-00935056D4B4";
name = "Light Extended";
paths = (
{
closed = 1;
nodes = (
"888 700 LINE",
"853 700 LINE",
"598 0 LINE",
"633 0 LINE"
);
},
{
closed = 1;
nodes = (
"468 700 LINE",
"433 700 LINE",
"178 0 LINE",
"213 0 LINE"
);
},
{
closed = 1;
nodes = (
"70 474 LINE",
"1069 474 LINE",
"1069 507 LINE",
"70 507 LINE"
);
},
{
closed = 1;
nodes = (
"0 217 LINE",
"999 217 LINE",
"999 250 LINE",
"0 250 LINE"
);
}
);
width = 1069;
},
{
layerId = "543F9737-16F7-428D-9F96-2EBD9FC8D3B6";
name = Light;
width = 600;
},
{
layerId = "FA480B27-EBBD-4830-9868-98507D39050C";
name = Bold;
width = 600;
}
);
unicode = 0023;
},
{
glyphname = period;
lastChange = "2015-07-19 23:40:43 +0000";
layers = (
{
layerId = "B29C398E-974A-40D0-A0A0-00935056D4B4";
name = "Light Extended";
paths = (
{
closed = 1;
nodes = (
"131 63 OFFCURVE",
"105 44 OFFCURVE",
"105 17 CURVE",
"105 -9 OFFCURVE",
"131 -28 OFFCURVE",
"176 -28 CURVE",
"222 -28 OFFCURVE",
"246 -9 OFFCURVE",
"246 17 CURVE",
"246 44 OFFCURVE",
"222 63 OFFCURVE",
"176 63 CURVE"
);
}
);
width = 351;
},
{
layerId = "543F9737-16F7-428D-9F96-2EBD9FC8D3B6";
name = Light;
width = 600;
},
{
layerId = "FA480B27-EBBD-4830-9868-98507D39050C";
name = Bold;
width = 600;
}
);
unicode = 002E;
},
{
glyphname = question;
lastChange = "2015-07-19 23:40:27 +0000";
layers = (
{
background = {
paths = (
{
closed = 0;
nodes = (
"364 388 LINE SMOOTH",
"370 212 LINE",
"393 212 LINE",
"399 388 LINE SMOOTH"
);
}
);
};
layerId = "B29C398E-974A-40D0-A0A0-00935056D4B4";
name = "Light Extended";
paths = (
{
closed = 1;
nodes = (
"304 63 OFFCURVE",
"278 44 OFFCURVE",
"278 17 CURVE",
"278 -9 OFFCURVE",
"304 -28 OFFCURVE",
"349 -28 CURVE",
"395 -28 OFFCURVE",
"419 -9 OFFCURVE",
"419 17 CURVE",
"419 44 OFFCURVE",
"395 63 OFFCURVE",
"349 63 CURVE"
);
},
{
closed = 1;
nodes = (
"323 184 CURVE",
"343 189 LINE",
"319 239 OFFCURVE",
"310 267 OFFCURVE",
"310 300 CURVE SMOOTH",
"310 407 OFFCURVE",
"677 407 OFFCURVE",
"677 594 CURVE SMOOTH",
"677 702 OFFCURVE",
"559 739 OFFCURVE",
"430 739 CURVE SMOOTH",
"291 739 OFFCURVE",
"163 710 OFFCURVE",
"60 673 CURVE",
"60 634 LINE",
"165 674 OFFCURVE",
"291 706 OFFCURVE",
"430 706 CURVE SMOOTH",
"548 706 OFFCURVE",
"642 673 OFFCURVE",
"642 595 CURVE SMOOTH",
"642 435 OFFCURVE",
"277 433 OFFCURVE",
"277 308 CURVE SMOOTH",
"277 275 OFFCURVE",
"289 242 OFFCURVE"
);
}
);
width = 747;
},
{
layerId = "543F9737-16F7-428D-9F96-2EBD9FC8D3B6";
name = Light;
width = 600;
},
{
layerId = "FA480B27-EBBD-4830-9868-98507D39050C";
name = Bold;
width = 600;
}
);
unicode = 003F;
},
{
color = 0;
glyphname = quotesingle;
lastChange = "2015-07-19 18:50:59 +0000";
layers = (
{
layerId = "B29C398E-974A-40D0-A0A0-00935056D4B4";
name = "Light Extended";
paths = (
{
closed = 1;
nodes = (
"269 771 OFFCURVE",
"241 800 OFFCURVE",
"189 800 CURVE SMOOTH",
"144 800 OFFCURVE",
"117 779 OFFCURVE",
"117 751 CURVE SMOOTH",
"117 725 OFFCURVE",
"143 708 OFFCURVE",
"179 708 CURVE SMOOTH",
"200 708 OFFCURVE",
"219 711 OFFCURVE",
"235 715 CURVE",
"225 652 OFFCURVE",
"167 589 OFFCURVE",
"95 524 CURVE",
"112 507 LINE",
"199 576 OFFCURVE",
"269 664 OFFCURVE",
"269 726 CURVE SMOOTH"
);
}
);
width = 374;
},
{
layerId = "543F9737-16F7-428D-9F96-2EBD9FC8D3B6";
name = Light;
width = 600;
},
{
layerId = "FA480B27-EBBD-4830-9868-98507D39050C";
name = Bold;
width = 600;
}
);
unicode = 0027;
},
{
glyphname = semicolon;
lastChange = "2015-07-19 23:41:34 +0000";
layers = (
{
components = (
{
name = period;
transform = "{1, 0, 0, 1, 5, 444}";
}
);
layerId = "B29C398E-974A-40D0-A0A0-00935056D4B4";
name = "Light Extended";
paths = (
{
closed = 1;
nodes = (
"269 35 OFFCURVE",
"241 64 OFFCURVE",
"189 64 CURVE SMOOTH",
"144 64 OFFCURVE",
"117 43 OFFCURVE",
"117 15 CURVE SMOOTH",
"117 -11 OFFCURVE",
"143 -28 OFFCURVE",
"179 -28 CURVE SMOOTH",
"200 -28 OFFCURVE",
"219 -25 OFFCURVE",
"235 -21 CURVE",
"225 -84 OFFCURVE",
"167 -147 OFFCURVE",
"95 -212 CURVE",
"112 -229 LINE",
"199 -160 OFFCURVE",
"269 -72 OFFCURVE",
"269 -10 CURVE SMOOTH"
);
}
);
width = 356;
},
{
layerId = "543F9737-16F7-428D-9F96-2EBD9FC8D3B6";
name = Light;
width = 600;
},
{
layerId = "FA480B27-EBBD-4830-9868-98507D39050C";
name = Bold;
width = 600;
}
);
unicode = 003B;
},
{
glyphname = slash;
lastChange = "2015-07-09 20:11:05 +0000";
layers = (
{
layerId = "B29C398E-974A-40D0-A0A0-00935056D4B4";
name = "Light Extended";
paths = (
{
closed = 1;
nodes = (
"545 802 LINE",
"505 802 LINE",
"30 -113 LINE",
"70 -113 LINE"
);
}
);
width = 595;
},
{
layerId = "543F9737-16F7-428D-9F96-2EBD9FC8D3B6";
name = Light;
width = 600;
},
{
layerId = "FA480B27-EBBD-4830-9868-98507D39050C";
name = Bold;
width = 600;
}
);
unicode = 002F;
},
{
glyphname = underscore;
lastChange = "2015-07-08 23:59:36 +0000";
layers = (
{
layerId = "B29C398E-974A-40D0-A0A0-00935056D4B4";
name = "Light Extended";
paths = (
{
closed = 1;
nodes = (
"-50 -96 LINE",
"-50 -130 LINE",
"550 -130 LINE",
"550 -96 LINE"
);
}
);
width = 500;
},
{
layerId = "543F9737-16F7-428D-9F96-2EBD9FC8D3B6";
name = Light;
width = 600;
},
{
layerId = "FA480B27-EBBD-4830-9868-98507D39050C";
name = Bold;
width = 600;
}
);
unicode = 005F;
},
{
glyphname = bracketleft;
lastChange = "2015-07-19 19:07:47 +0000";
layers = (
{
layerId = "B29C398E-974A-40D0-A0A0-00935056D4B4";
name = "Light Extended";
paths = (
{
closed = 1;
nodes = (
"120 -137 LINE",
"155 -137 LINE",
"155 834 LINE",
"120 834 LINE"
);
},
{
closed = 1;
nodes = (
"123 801 LINE",
"440 801 LINE",
"440 834 LINE",
"123 834 LINE"
);
},
{
closed = 1;
nodes = (
"123 -137 LINE",
"440 -137 LINE",
"440 -104 LINE",
"123 -104 LINE"
);
}
);
width = 480;
},
{
layerId = "543F9737-16F7-428D-9F96-2EBD9FC8D3B6";
name = Light;
width = 600;
},
{
layerId = "FA480B27-EBBD-4830-9868-98507D39050C";
name = Bold;
width = 600;
}
);
unicode = 005B;
},
{
glyphname = parenleft;
lastChange = "2015-07-19 19:07:58 +0000";
layers = (
{
layerId = "B29C398E-974A-40D0-A0A0-00935056D4B4";
name = "Light Extended";
paths = (
{
closed = 1;
nodes = (
"120 70 OFFCURVE",
"305 -92 OFFCURVE",
"426 -155 CURVE",
"437 -128 LINE",
"333 -65 OFFCURVE",
"155 81 OFFCURVE",
"155 350 CURVE",
"155 619 OFFCURVE",
"333 765 OFFCURVE",
"437 828 CURVE",
"426 855 LINE",
"305 792 OFFCURVE",
"120 630 OFFCURVE",
"120 350 CURVE"
);
}
);
width = 477;
},
{
layerId = "543F9737-16F7-428D-9F96-2EBD9FC8D3B6";
name = Light;
width = 600;
},
{
layerId = "FA480B27-EBBD-4830-9868-98507D39050C";
name = Bold;
width = 600;
}
);
unicode = 0028;
},
{
glyphname = emdash;
lastChange = "2015-07-09 19:12:59 +0000";
layers = (
{
layerId = "B29C398E-974A-40D0-A0A0-00935056D4B4";
name = "Light Extended";
paths = (
{
closed = 1;
nodes = (
"40 272 LINE",
"40 238 LINE",
"1220 238 LINE",
"1220 272 LINE"
);
}
);
width = 1260;
},
{
layerId = "543F9737-16F7-428D-9F96-2EBD9FC8D3B6";
name = Light;
width = 600;
},
{
layerId = "FA480B27-EBBD-4830-9868-98507D39050C";
name = Bold;
width = 600;
}
);
unicode = 2014;
},
{
glyphname = endash;
lastChange = "2015-07-09 00:02:03 +0000";
layers = (
{
layerId = "B29C398E-974A-40D0-A0A0-00935056D4B4";
name = "Light Extended";
paths = (
{
closed = 1;
nodes = (
"40 272 LINE",
"40 238 LINE",
"810 238 LINE",
"810 272 LINE"
);
}
);
width = 850;
},
{
layerId = "543F9737-16F7-428D-9F96-2EBD9FC8D3B6";
name = Light;
width = 600;
},
{
layerId = "FA480B27-EBBD-4830-9868-98507D39050C";
name = Bold;
width = 600;
}
);
unicode = 2013;
},
{
glyphname = hyphen;
lastChange = "2015-07-09 00:02:40 +0000";
layers = (
{
layerId = "B29C398E-974A-40D0-A0A0-00935056D4B4";
name = "Light Extended";
paths = (
{
closed = 1;
nodes = (
"40 273 LINE",
"40 238 LINE",
"425 238 LINE",
"425 273 LINE"
);
}
);
width = 465;
},
{
layerId = "543F9737-16F7-428D-9F96-2EBD9FC8D3B6";
name = Light;
width = 600;
},
{
layerId = "FA480B27-EBBD-4830-9868-98507D39050C";
name = Bold;
width = 600;
}
);
unicode = 002D;
},
{
glyphname = quotedblleft;
lastChange = "2015-07-09 20:08:42 +0000";
layers = (
{
background = {
paths = (
{
closed = 1;
nodes = (
"103 544 OFFCURVE",
"133 517 OFFCURVE",
"175 517 CURVE",
"210 517 OFFCURVE",
"235 538 OFFCURVE",
"235 567 CURVE SMOOTH",
"235 600 OFFCURVE",
"197 619 OFFCURVE",
"141 613 CURVE",
"148 667 OFFCURVE",
"187 728 OFFCURVE",
"257 793 CURVE",
"240 810 LINE",
"153 741 OFFCURVE",
"103 651 OFFCURVE",
"103 589 CURVE"
);
},
{
closed = 1;
nodes = (
"308 544 OFFCURVE",
"338 517 OFFCURVE",
"380 517 CURVE",
"415 517 OFFCURVE",
"440 538 OFFCURVE",
"440 567 CURVE SMOOTH",
"440 600 OFFCURVE",
"402 619 OFFCURVE",
"346 613 CURVE",
"353 667 OFFCURVE",
"392 728 OFFCURVE",
"462 793 CURVE",
"445 810 LINE",
"358 741 OFFCURVE",
"308 651 OFFCURVE",
"308 589 CURVE"
);
}
);
};
components = (
{
name = quoteleft;
transform = "{1, 0, 0, 1, 204, 0}";
},
{
name = quoteleft;
transform = "{1, 0, 0, 1, 0, 0}";
}
);
layerId = "B29C398E-974A-40D0-A0A0-00935056D4B4";
name = "Light Extended";
width = 558;
},
{
components = (
{
name = quoteleft;
transform = "{1, 0, 0, 1, 0, 0}";
},
{
name = quoteleft;
transform = "{1, 0, 0, 1, 0, 0}";
}
);
layerId = "543F9737-16F7-428D-9F96-2EBD9FC8D3B6";
name = Light;
width = 600;
},
{
components = (
{
name = quoteleft;
transform = "{1, 0, 0, 1, 0, 0}";
},
{
name = quoteleft;
transform = "{1, 0, 0, 1, 0, 0}";
}
);
layerId = "FA480B27-EBBD-4830-9868-98507D39050C";
name = Bold;
width = 600;
}
);
unicode = 201C;
},
{
glyphname = quoteleft;
lastChange = "2015-07-19 18:50:23 +0000";
layers = (
{
layerId = "B29C398E-974A-40D0-A0A0-00935056D4B4";
name = "Light Extended";
paths = (
{
closed = 1;
nodes = (
"105 553 OFFCURVE",
"133 524 OFFCURVE",
"185 524 CURVE SMOOTH",
"230 524 OFFCURVE",
"257 545 OFFCURVE",
"257 573 CURVE SMOOTH",
"257 599 OFFCURVE",
"231 616 OFFCURVE",
"195 616 CURVE SMOOTH",
"174 616 OFFCURVE",
"155 613 OFFCURVE",
"139 609 CURVE",
"149 672 OFFCURVE",
"207 735 OFFCURVE",
"279 800 CURVE",
"262 817 LINE",
"175 748 OFFCURVE",
"105 660 OFFCURVE",
"105 598 CURVE SMOOTH"
);
}
);
width = 374;
},
{
layerId = "543F9737-16F7-428D-9F96-2EBD9FC8D3B6";
name = Light;
width = 600;
},
{
layerId = "FA480B27-EBBD-4830-9868-98507D39050C";
name = Bold;
width = 600;
}
);
unicode = 2018;
},
{
glyphname = quoteright;
lastChange = "2015-07-19 18:49:37 +0000";
layers = (
{
layerId = "B29C398E-974A-40D0-A0A0-00935056D4B4";
name = "Light Extended";
paths = (
{
closed = 1;
nodes = (
"269 771 OFFCURVE",
"241 800 OFFCURVE",
"189 800 CURVE SMOOTH",
"144 800 OFFCURVE",
"117 779 OFFCURVE",
"117 751 CURVE SMOOTH",
"117 725 OFFCURVE",
"143 708 OFFCURVE",
"179 708 CURVE SMOOTH",
"200 708 OFFCURVE",
"219 711 OFFCURVE",
"235 715 CURVE",
"225 652 OFFCURVE",
"167 589 OFFCURVE",
"95 524 CURVE",
"112 507 LINE",
"199 576 OFFCURVE",
"269 664 OFFCURVE",
"269 726 CURVE SMOOTH"
);
}
);
width = 374;
},
{
layerId = "543F9737-16F7-428D-9F96-2EBD9FC8D3B6";
name = Light;
width = 600;
},
{
layerId = "FA480B27-EBBD-4830-9868-98507D39050C";
name = Bold;
width = 600;
}
);
unicode = 2019;
},
{
glyphname = plus;
lastChange = "2015-07-03 20:02:36 +0000";
layers = (
{
layerId = "B29C398E-974A-40D0-A0A0-00935056D4B4";
name = "Light Extended";
paths = (
{
closed = 1;
nodes = (
"438 0 LINE",
"473 0 LINE",
"473 700 LINE",
"438 700 LINE"
);
},
{
closed = 1;
nodes = (
"100 367 LINE",
"100 333 LINE",
"810 333 LINE",
"810 367 LINE"
);
}
);
width = 910;
},
{
layerId = "543F9737-16F7-428D-9F96-2EBD9FC8D3B6";
name = Light;
width = 600;
},
{
layerId = "FA480B27-EBBD-4830-9868-98507D39050C";
name = Bold;
width = 600;
}
);
unicode = 002B;
},
{
color = 9;
glyphname = ampersand.alt;
lastChange = "2015-06-23 17:22:51 +0000";
layers = (
{
layerId = "B29C398E-974A-40D0-A0A0-00935056D4B4";
name = "Light Extended";
paths = (
{
closed = 1;
nodes = (
"1010 302 LINE",
"1010 82 OFFCURVE",
"777 -31 OFFCURVE",
"418 -31 CURVE SMOOTH",
"134 -31 OFFCURVE",
"33 48 OFFCURVE",
"33 155 CURVE SMOOTH",
"33 274 OFFCURVE",
"168 315 OFFCURVE",
"416 362 CURVE SMOOTH",
"616 401 OFFCURVE",
"711 466 OFFCURVE",
"711 598 CURVE SMOOTH",
"711 669 OFFCURVE",
"656 737 OFFCURVE",
"553 737 CURVE SMOOTH",
"424 737 OFFCURVE",
"337 623 OFFCURVE",
"337 465 CURVE SMOOTH",
"337 126 OFFCURVE",
"843 -325 OFFCURVE",
"1252 -325 CURVE SMOOTH",
"1494 -325 OFFCURVE",
"1665 -247 OFFCURVE",
"1774 -94 CURVE",
"1752 -71 LINE",
"1653 -212 OFFCURVE",
"1489 -293 OFFCURVE",
"1252 -293 CURVE SMOOTH",
"866 -293 OFFCURVE",
"369 160 OFFCURVE",
"369 474 CURVE SMOOTH",
"369 623 OFFCURVE",
"456 707 OFFCURVE",
"553 707 CURVE SMOOTH",
"633 707 OFFCURVE",
"680 656 OFFCURVE",
"680 592 CURVE SMOOTH",
"680 491 OFFCURVE",
"593 426 OFFCURVE",
"410 394 CURVE SMOOTH",
"143 347 OFFCURVE",
"0 292 OFFCURVE",
"0 155 CURVE SMOOTH",
"0 28 OFFCURVE",
"134 -65 OFFCURVE",
"418 -63 CURVE SMOOTH",
"789 -62 OFFCURVE",
"1042 62 OFFCURVE",
"1042 299 CURVE"
);
},
{
closed = 1;
nodes = (
"1009 260 OFFCURVE",
"1100 291 OFFCURVE",
"1227 442 CURVE SMOOTH",
"1333 569 OFFCURVE",
"1384 707 OFFCURVE",
"1527 707 CURVE SMOOTH",
"1624 707 OFFCURVE",
"1693 643 OFFCURVE",
"1696 524 CURVE",
"1728 524 LINE",
"1725 656 OFFCURVE",
"1648 739 OFFCURVE",
"1527 739 CURVE SMOOTH",
"1368 739 OFFCURVE",
"1312 598 OFFCURVE",
"1189 449 CURVE SMOOTH",
"1080 317 OFFCURVE",
"977 292 OFFCURVE",
"761 292 CURVE SMOOTH",
"652 292 LINE",
"652 260 LINE",
"761 260 LINE SMOOTH"
);
}
);
width = 974;
},
{
layerId = "FA480B27-EBBD-4830-9868-98507D39050C";
name = Bold;
width = 600;
},
{
layerId = "543F9737-16F7-428D-9F96-2EBD9FC8D3B6";
name = Light;
width = 600;
}
);
},
{
color = 9;
glyphname = ampersand;
lastChange = "2015-06-23 17:22:51 +0000";
layers = (
{
background = {
paths = (
{
closed = 1;
nodes = (
"902 361 LINE",
"929 338 OFFCURVE",
"963 297 OFFCURVE",
"963 227 CURVE SMOOTH",
"963 72 OFFCURVE",
"778 -62 OFFCURVE",
"518 -63 CURVE SMOOTH",
"326 -64 OFFCURVE",
"218 6 OFFCURVE",
"218 110 CURVE SMOOTH",
"218 207 OFFCURVE",
"291 266 OFFCURVE",
"487 289 CURVE SMOOTH",
"666 310 OFFCURVE",
"750 365 OFFCURVE",
"750 444 CURVE SMOOTH",
"750 501 OFFCURVE",
"708 538 OFFCURVE",
"652 538 CURVE SMOOTH",
"585 538 OFFCURVE",
"500 474 OFFCURVE",
"500 337 CURVE SMOOTH",
"500 83 OFFCURVE",
"768 -242 OFFCURVE",
"1049 -242 CURVE SMOOTH",
"1234 -242 OFFCURVE",
"1362 -179 OFFCURVE",
"1439 -69 CURVE",
"1456 -87 LINE",
"1371 -206 OFFCURVE",
"1238 -267 OFFCURVE",
"1049 -267 CURVE SMOOTH",
"750 -267 OFFCURVE",
"474 56 OFFCURVE",
"474 339 CURVE SMOOTH",
"474 483 OFFCURVE",
"565 562 OFFCURVE",
"652 562 CURVE SMOOTH",
"732 562 OFFCURVE",
"776 509 OFFCURVE",
"776 445 CURVE SMOOTH",
"776 347 OFFCURVE",
"684 282 OFFCURVE",
"492 264 CURVE SMOOTH",
"354 251 OFFCURVE",
"244 202 OFFCURVE",
"244 114 CURVE SMOOTH",
"244 26 OFFCURVE",
"326 -38 OFFCURVE",
"518 -38 CURVE SMOOTH",
"768 -38 OFFCURVE",
"938 87 OFFCURVE",
"938 229 CURVE SMOOTH",
"938 286 OFFCURVE",
"913 316 OFFCURVE",
"885 342 CURVE"
);
}
);
};
layerId = "B29C398E-974A-40D0-A0A0-00935056D4B4";
name = "Light Extended";
paths = (
{
closed = 1;
nodes = (
"949 479 LINE",
"984 449 OFFCURVE",
"1015 389 OFFCURVE",
"1015 298 CURVE SMOOTH",
"1015 122 OFFCURVE",
"800 -73 OFFCURVE",
"448 -74 CURVE SMOOTH",
"184 -76 OFFCURVE",
"30 12 OFFCURVE",
"30 154 CURVE SMOOTH",
"30 287 OFFCURVE",
"142 343 OFFCURVE",
"414 392 CURVE SMOOTH",
"600 424 OFFCURVE",
"728 490 OFFCURVE",
"728 593 CURVE SMOOTH",
"728 658 OFFCURVE",
"680 710 OFFCURVE",
"599 710 CURVE SMOOTH",
"500 710 OFFCURVE",
"411 624 OFFCURVE",
"411 473 CURVE SMOOTH",
"411 148 OFFCURVE",
"821 -308 OFFCURVE",
"1219 -308 CURVE SMOOTH",
"1461 -308 OFFCURVE",
"1628 -226 OFFCURVE",
"1728 -82 CURVE",
"1750 -106 LINE",
"1639 -261 OFFCURVE",
"1466 -341 OFFCURVE",
"1219 -341 CURVE SMOOTH",
"803 -341 OFFCURVE",
"379 119 OFFCURVE",
"379 464 CURVE SMOOTH",
"379 624 OFFCURVE",
"467 740 OFFCURVE",
"599 740 CURVE SMOOTH",
"704 740 OFFCURVE",
"760 671 OFFCURVE",
"760 599 CURVE SMOOTH",
"760 465 OFFCURVE",
"624 398 OFFCURVE",
"420 359 CURVE SMOOTH",
"167 311 OFFCURVE",
"64 269 OFFCURVE",
"64 154 CURVE SMOOTH",
"64 33 OFFCURVE",
"184 -42 OFFCURVE",
"448 -42 CURVE SMOOTH",
"787 -42 OFFCURVE",
"983 141 OFFCURVE",
"983 300 CURVE SMOOTH",
"983 375 OFFCURVE",
"963 420 OFFCURVE",
"927 454 CURVE"
);
}
);
width = 1050;
},
{
layerId = "FA480B27-EBBD-4830-9868-98507D39050C";
name = Bold;
width = 600;
},
{
layerId = "543F9737-16F7-428D-9F96-2EBD9FC8D3B6";
name = Light;
width = 600;
}
);
unicode = 0026;
},
{
color = 9;
glyphname = ampersand_alt1;
lastChange = "2015-06-23 17:22:51 +0000";
layers = (
{
layerId = "B29C398E-974A-40D0-A0A0-00935056D4B4";
name = "Light Extended";
paths = (
{
closed = 1;
nodes = (
"1200 149 OFFCURVE",
"1221 167 OFFCURVE",
"1255 167 CURVE SMOOTH",
"1323 167 OFFCURVE",
"1429 103 OFFCURVE",
"1429 -32 CURVE SMOOTH",
"1429 -180 OFFCURVE",
"1257 -294 OFFCURVE",
"1081 -294 CURVE SMOOTH",
"686 -294 OFFCURVE",
"401 161 OFFCURVE",
"401 476 CURVE SMOOTH",
"401 625 OFFCURVE",
"488 710 OFFCURVE",
"586 710 CURVE SMOOTH",
"666 710 OFFCURVE",
"713 658 OFFCURVE",
"713 594 CURVE SMOOTH",
"713 492 OFFCURVE",
"626 427 OFFCURVE",
"442 396 CURVE SMOOTH",
"161 348 OFFCURVE",
"30 274 OFFCURVE",
"30 136 CURVE SMOOTH",
"30 22 OFFCURVE",
"133 -63 OFFCURVE",
"273 -63 CURVE SMOOTH",
"529 -63 OFFCURVE",
"713 113 OFFCURVE",
"856 245 CURVE SMOOTH",
"978 360 OFFCURVE",
"1095 478 OFFCURVE",
"1238 478 CURVE",
"1336 478 OFFCURVE",
"1431 427 OFFCURVE",
"1434 307 CURVE",
"1434 189 OFFCURVE",
"1314 85 OFFCURVE",
"1257 85 CURVE SMOOTH",
"1229 85 OFFCURVE",
"1200 99 OFFCURVE",
"1200 126 CURVE SMOOTH"
);
},
{
closed = 1;
nodes = (
"1170 85 OFFCURVE",
"1209 59 OFFCURVE",
"1255 59 CURVE SMOOTH",
"1338 59 OFFCURVE",
"1467 158 OFFCURVE",
"1467 308 CURVE",
"1458 435 OFFCURVE",
"1364 510 OFFCURVE",
"1238 510 CURVE",
"1075 510 OFFCURVE",
"953 384 OFFCURVE",
"834 271 CURVE SMOOTH",
"694 137 OFFCURVE",
"518 -31 OFFCURVE",
"273 -31 CURVE SMOOTH",
"133 -31 OFFCURVE",
"64 42 OFFCURVE",
"64 136 CURVE SMOOTH",
"64 256 OFFCURVE",
"186 316 OFFCURVE",
"448 364 CURVE SMOOTH",
"650 400 OFFCURVE",
"744 468 OFFCURVE",
"744 600 CURVE SMOOTH",
"744 671 OFFCURVE",
"689 739 OFFCURVE",
"586 739 CURVE SMOOTH",
"456 739 OFFCURVE",
"369 625 OFFCURVE",
"369 467 CURVE SMOOTH",
"369 127 OFFCURVE",
"671 -326 OFFCURVE",
"1081 -326 CURVE SMOOTH",
"1277 -326 OFFCURVE",
"1463 -204 OFFCURVE",
"1463 -30 CURVE",
"1463 113 OFFCURVE",
"1350 193 OFFCURVE",
"1255 193 CURVE SMOOTH",
"1200 193 OFFCURVE",
"1170 161 OFFCURVE",
"1170 124 CURVE SMOOTH"
);
}
);
width = 1487;
},
{
layerId = "FA480B27-EBBD-4830-9868-98507D39050C";
name = Bold;
width = 600;
},
{
layerId = "543F9737-16F7-428D-9F96-2EBD9FC8D3B6";
name = Light;
width = 600;
}
);
},
{
glyphname = tilde;
lastChange = "2015-07-09 19:00:03 +0000";
layers = (
{
guideLines = (
{
position = "{323, 654}";
},
{
position = "{322, 817}";
}
);
layerId = "B29C398E-974A-40D0-A0A0-00935056D4B4";
name = "Light Extended";
paths = (
{
closed = 1;
nodes = (
"549 721 OFFCURVE",
"496 683 OFFCURVE",
"442 683 CURVE SMOOTH",
"395 683 OFFCURVE",
"353 713 OFFCURVE",
"307 745 CURVE SMOOTH",
"257 780 OFFCURVE",
"208 817 OFFCURVE",
"147 817 CURVE SMOOTH",
"54 817 OFFCURVE",
"4 745 OFFCURVE",
"-11 649 CURVE",
"20 649 LINE",
"35 745 OFFCURVE",
"88 785 OFFCURVE",
"144 785 CURVE SMOOTH",
"191 785 OFFCURVE",
"233 755 OFFCURVE",
"279 723 CURVE SMOOTH",
"329 688 OFFCURVE",
"378 651 OFFCURVE",
"439 651 CURVE SMOOTH",
"530 651 OFFCURVE",
"580 721 OFFCURVE",
"595 817 CURVE",
"564 817 LINE"
);
}
);
width = 600;
},
{
layerId = "543F9737-16F7-428D-9F96-2EBD9FC8D3B6";
name = Light;
width = 600;
},
{
layerId = "FA480B27-EBBD-4830-9868-98507D39050C";
name = Bold;
width = 600;
}
);
unicode = 02DC;
},
